<?xml version="1.0" standalone="no"?>
<!DOCTYPE svg PUBLIC "-//W3C//DTD SVG 1.1//EN" "http://www.w3.org/Graphics/SVG/1.1/DTD/svg11.dtd" >
<svg>
<metadata>
Created by FontForge 20090914 at Sat Feb 12 18:25:24 2011
 By apache
Generated by Fontographer 4.1.2
</metadata>
<defs>
<font id="CaslonAntique" horiz-adv-x="476" >
  <font-face 
    font-family="CaslonAntique"
    font-weight="400"
    font-stretch="normal"
    units-per-em="1000"
    panose-1="0 0 4 0 0 0 0 0 0 0"
    ascent="800"
    descent="-200"
    x-height="416"
    cap-height="721"
    bbox="-107 -341 1080 978"
    underline-thickness="20"
    underline-position="-123"
    unicode-range="U+0020-U+F002"
  />
<missing-glyph horiz-adv-x="500" 
d="M63 0v740h375v-740h-375zM125 63h250v615h-250v-615z" />
    <glyph glyph-name=".notdef" horiz-adv-x="500" 
d="M63 0v740h375v-740h-375zM125 63h250v615h-250v-615z" />
    <glyph glyph-name=".null" horiz-adv-x="0" 
 />
    <glyph glyph-name="nonmarkingreturn" horiz-adv-x="200" 
 />
    <glyph glyph-name="space" unicode=" " horiz-adv-x="200" 
 />
    <glyph glyph-name="exclam" unicode="!" horiz-adv-x="228" 
d="M171 661q-4 -11 -4 -26q0 -2 1.5 -9.5t1.5 -8.5q0 -2 -3 -10.5t-3 -12.5l3 -21l-3 -5q0 -3 1.5 -8t1.5 -6q0 -2 -2.5 -12.5t-2.5 -18.5q-15 -42 -15 -122q0 -11 1.5 -21.5t1.5 -11.5q0 -2 -1.5 -7t-1.5 -6q0 -9 2 -29t2 -31q0 -17 -15 -34q0 -18 -3 -65q-10 -6 -22 -6
q-16 0 -28 19q0 42 -5 54q2 8 2 44q0 2 -3 8.5t-3 8.5q0 12 2 23q4 21 4 27q0 5 -6.5 61.5t-6.5 86.5l-5 22q3 15 3 12q0 6 -2.5 17t-2.5 12q0 2 1 7t1 6q0 2 -2.5 14t-2.5 25q0 5 3 18t3 20q0 11 6 25.5t6 16.5q12 8 17 14q17 0 34 -2t21 -2q8 0 16 -11t8 -31q0 -10 -4 -20
zM166 47q0 -21 -3.5 -22t-3.5 -12q-5 -2 -5 -8q0 -12 -26 -12q-22 0 -30 4.5l-18 10.5q-6 3 -12.5 16.5t-6.5 18.5q0 2 1 5v5.5v5.5q-1 4 -1 5q0 22 55 22q23 -9 40 -9q10 -6 10 -30z" />
    <glyph glyph-name="quotedbl" unicode="&#x22;" horiz-adv-x="372" 
d="M323 698q-3 -5 -3 -16q0 2 2 -10q0 -1 -2 -9.5t-2 -10.5q0 -30 -2 -22l-3 -3q0 -2 1.5 -4.5t1.5 -3.5t-2.5 -7.5t-2.5 -11.5q-8 -15 -8 -58q0 -6 1 -12.5t1 -7.5q0 -2 -1 -4.5t-1 -3.5q0 -34 -11 -56q0 -11 -2 -39q-8 -4 -19 -4q-14 0 -24 12q0 26 -4 32q1 3 1 33v16
q-1 10 -1 10.5t-2.5 4.5t-2.5 5q0 4 2 14q3 15 3 16q0 3 -5 21t-5 36q0 3 -4 13q3 9 3 7q0 4 -2 10.5l-2 6.5q0 1 1 4v4t-2 8.5t-2 15.5q0 3 2.5 10.5t2.5 12.5t5 14.5t5 10.5q12 5 15 8q15 0 30 -1t18 -1q20 0 20 -26q0 -3 -3 -12zM159 698q-3 -5 -3 -16q0 2 2 -10
q0 -1 -2 -9.5t-2 -10.5q0 -30 -2 -22l-3 -3q0 -2 1.5 -4.5t1.5 -3.5t-2.5 -7.5t-2.5 -11.5q-8 -15 -8 -58q0 -6 1 -12.5t1 -7.5q0 -2 -1 -4.5t-1 -3.5q0 -34 -11 -56q0 -11 -2 -39q-8 -4 -19 -4q-14 0 -24 12q0 26 -4 32q1 3 1 31v17q-1 10 -1 11t-2.5 5t-2.5 5q0 4 2 14
q3 15 3 16q0 4 -5 23t-5 34q0 3 -4 13q3 9 3 7q0 4 -2 10.5l-2 6.5q0 1 1 4v4t-2 8.5t-2 15.5q0 3 2.5 10.5t2.5 12.5t5 14.5t5 10.5q12 5 15 8q15 0 30 -1t18 -1q20 0 20 -26q0 -3 -3 -12z" />
    <glyph glyph-name="numbersign" unicode="#" 
d="M470 446q0 -24 -47 -24q-15 0 -22 -2q-20 0 -62 3q-4 -30 -4 -45q-8 -15 -14 -47q4 0 13.5 -1.5t11.5 -1.5q7 0 22 5q6 3 25 3q16 0 30.5 -10t14.5 -26q0 -8 -5.5 -26t-8.5 -18q-2 0 -11.5 1.5t-11.5 1.5q-11 0 -29.5 -2l-18.5 -2q-4 0 -21 3.5t-26 3.5q-21 0 -21 -38
v-30q-3 -19 -1 -43q1 -19 -13 -56q-6 -15 -16 -15q-2 -2 -20 -2q-11 0 -11 33q0 1 4.5 12.5t4.5 19.5t3 22.5t3 21.5q0 8 -3.5 20t-4.5 20q8 5 10 31q-4 0 -20.5 2t-21.5 2q-3 0 -29 -4q0 -16 -3 -22q-8 -17 -10 -35q-3 -26 -11 -61q2 -14 -6 -30t-8 -24t-25 -8q-7 0 -12 10
t-5 18q0 27 14.5 67t14.5 58q0 2 -1 7.5t-1 7.5q0 5 5 15q-10 -2 -13 -2q-6 0 -16.5 1t-14.5 1q-3 0 -9 -2t-7 -2q-3 0 -11 2t-9 2q-2 0 -5 -2t-5 -2q-15 0 -19 14q-3 10 -3 41q0 21 25 24l42 4q10 0 62 -4l4 6q-1 5 -1 12q0 8 10 28q7 14 7 33l3 13l-26 -3l-3 5l-18.5 -3.5
t-30.5 -3.5q-45 0 -45 36q0 8 5.5 26.5t8.5 18.5q2 0 11.5 -2t11.5 -2q11 0 29.5 2.5l18.5 2.5q2 0 17.5 -4.5t25.5 -4.5q9 0 11 11q2 8 3 16q16 37 13 64q-1 11 10 63q3 15 14 16q2 5 19 5q7 0 12 -14.5t5 -23.5q0 -4 -3 -15t-3 -14q-1 -16 -10 -39.5t-9 -50.5l11 -16
q9 0 33.5 3.5t29.5 3.5q3 -1 7 -3q2 3 4 9q9 21 11 36t10 60q-2 14 6 30t8 24t26 8q3 0 8.5 -5.5t6.5 -10t1 -17.5q0 -37 -17 -70q-5 -10 -10 -42l-2.5 -10t-1.5 -8q0 -6 8 -6t18 -1t13 -1q6 0 15 2.5t11 2.5q3 0 6 -2.5t4 -2.5q2 0 7 2.5t7 2.5q-1 0 16 -11q5 -3 5 -46z
M286 414q0 9 -8.5 16t-17.5 7q-11 0 -22 -3t-14 -3q-22 0 -22 -28q-6 -10 -15 -59q14 -1 33 -8.5t21 -7.5h26q9 16 9 33q0 5 5 24t5 29z" />
    <glyph glyph-name="dollar" unicode="$" 
d="M418 162q0 -27 -15 -53q0 -22 -33 -55t-55 -33q-6 0 -12 -7.5t-6 -13.5q0 -9 3 -26q-5 -23 -5 -42q0 -10 -13 -10q-9 0 -13 17q-9 36 -22 36q-8 0 -8 -9q0 -15 -6 -33q-7 -22 -18 -22q-15 0 -15 14q0 4 1 13.5t1 15.5q0 4 -4.5 15.5t-4.5 16.5q0 9 -24 24
q-29 17 -34 23.5t-18 15.5q-17 12 -36 73q-6 12 -6 19q0 3 1.5 7.5t1.5 6.5q0 3 -1 9.5t-1 10.5q0 7 5.5 18t5.5 14q0 20 18 20q1 0 5.5 -1.5t7.5 -1.5q9 0 10 3q18 0 32 -37q-2 -3 0 -10q3 -12 3 -11q0 -5 -2 -11t0 -10q-11 -26 -11 -41q0 -13 9 -25q10 -15 24 -15
q22 0 22 42v10q-1 6 -1 7q0 6 2.5 18t2.5 15v10q-1 6 -1 9q0 6 5 21.5t5 17.5q0 39 -10 61q0 8 -1 18.5t-1 11.5q0 17 -28 30q-32 15 -42 30q-21 10 -27 25q-9 20 -16 26q-11 9 -11 24q0 3 1 9v12q0 9 -4 9q0 15 -1 53.5t-1 37.5q0 3 6.5 17t8.5 21q11 8 19 27q7 15 83 72
q7 5 14 17q9 42 25 42q1 0 10.5 -4.5t14.5 -4.5q6 0 15.5 4.5t10.5 4.5q23 0 23 -27.5t10 -27.5t23 -13q2 -2 16.5 -8.5t16.5 -12.5q4 -12 12 -16t8 -9t5.5 -21.5t5.5 -17.5q0 -2 -4.5 -12t-4.5 -16q0 -9 -9 -20t-16 -11q-5 0 -23 7l-23 10q-9 18 -9 31q0 4 2 11t2 10
q0 11 -5 11q-14 0 -14 -20q0 -5 2 -15.5t2 -15.5q0 -8 -5 -23t-5 -21q0 -2 2 -12t2 -13q0 -4 -1 -10t-1 -9q0 -15 5.5 -41t5.5 -36q0 -6 11 -18t16 -14q17 -6 19 -12q4 -9 21 -20q10 -6 10 -22q0 -10 6.5 -14t6.5 -21q0 -3 10 -31t10 -36q0 -6 -1.5 -18.5t-1.5 -18.5
q0 -7 2 -14.5t2 -10.5zM278 484q0 4 -1 10.5t-1 9.5q0 2 1 9v15q0 8 -2 22t-2 19t1 12v14q0 2 -2 8t-2 9q0 28 -12 28q-14 0 -14 -56q0 -2 2 -13.5t2 -12.5q0 -4 -1 -12t-1 -10t1.5 -8t1.5 -9q0 -2 -1.5 -12.5t-1.5 -17.5q0 -46 22 -46q10 16 10 41zM221 452q-8 35 -8 55
q6 10 6 42q0 11 -3.5 25.5t-3.5 19.5t1 13v10q0 8 -9.5 13t-14.5 5q-38 0 -63 -64q0 -6 1 -12.5t1 -7.5v-10q-1 -5 -1 -7q0 -35 48 -71q20 -15 26 -15q17 0 20 4zM382 151q0 5 -2.5 18.5t-2.5 21.5q-9 11 -13 23q-5 16 -25 41q-22 30 -36 30q-17 0 -17 -30q0 -4 1 -16.5
t1 -17.5q0 -2 -7 -14l4 -3q-6 -13 -6 -32q0 -7 6.5 -31t6.5 -29q0 -6 -5 -11q3 -24 3 -27q14 -10 25 -10q9 0 19.5 7.5t16 10t27.5 40.5q4 15 4 29zM257 150q0 33 -4 33q4 12 4 16q0 2 -2 8t-2 9q0 27 -2 36q-12 0 -12 -26q0 -3 1 -10t1 -11q0 -2 -2.5 -29.5t-2.5 -28.5
q0 -2 1 -12v-16q0 -11 -6 -23l3 -1q-3 -4 -3 -15q0 -6 12 -13q8 5 8 14v9l-1 5l1 8v14t3 19t3 14z" />
    <glyph glyph-name="percent" unicode="%" horiz-adv-x="766" 
d="M732 169q0 -38 -33.5 -75l-33.5 -37q0 -3 -12 -10t-16 -12q-15 -20 -41 -20q-21 -6 -17 -6q-6 0 -12 3t-7 3q-18 0 -25.5 6t-15.5 8q-3 1 -5 4.5t-3 3.5q-12 0 -35 27t-23 39q0 3 -10 17t-10 41q0 5 -4 19t-4 18l-2 2q7 21 7 35q0 22 6 34q12 21 14 28q1 4 14 21t13 21
q9 0 35 27q18 19 46 19q3 0 14 3.5t21 3.5t35.5 -8.5t30.5 -16.5q23 -32 36.5 -41.5t14.5 -23.5q3 -23 4 -26q0 -27 13 -46q0 -13 1.5 -33t1.5 -27zM343 585l-3 -1q1 -8 -1 -28q-1 -24 -1 -32q-13 -19 -13 -46q-4 -10 -5 -20q-2 -19 -17 -28q-26 -15 -49.5 -41.5
t-49.5 -26.5q-13 0 -27.5 3.5l-14.5 3.5q-25 0 -48 23t-32 23q0 3 -12 20q-15 21 -15 22q-2 23 -11 34q-6 7 -6 34q0 15 -8 36l3 2q0 4 2.5 14.5t2.5 15.5q0 26 9.5 40t9.5 18q0 13 19 38t31 25q2 0 17 11q23 17 63 17q22 0 27 -2q32 -2 50 -20q12 -8 27 -22l34.5 -48
t17.5 -65zM621 710q0 -23 -9 -29q-19 -13 -22.5 -33.5t-20.5 -38.5q-28 -29 -40 -73q-32 -14 -36 -42q-3 -19 -15 -26q-8 -5 -21.5 -30.5t-16.5 -36.5q-19 -16 -55 -75q-32 -54 -46 -86q-8 -4 -16 -25q-3 -8 -13 -23q-25 -24 -33 -43.5t-48 -83.5q-2 -18 -21 -37l-22 -27
t-32 -13q-4 0 -13.5 7.5t-9.5 12.5q0 19 23 56q28 35 79 113q5 10 5 16t2 9q7 12 46 59q27 35 38 66q2 7 7 19q16 16 25 30q19 30 23 41q60 108 72 122q50 58 54 89q3 22 52 80q14 17 34 17q5 4 20 4q10 0 10 -19zM642 217q0 7 -3.5 13.5t-4.5 16.5q-1 16 -2 19
q-2 12 -14 42q-14 37 -45 37q-24 0 -40 -13q-3 -13 -15 -23q-7 -6 -7 -16.5t-15 -26.5t-15 -49q0 -32 16 -59v-11q0 -17 10 -35q2 -10 14.5 -25.5t21 -15.5t18.5 -12q3 -5 14 -5q36 0 42 46q1 8 8 20t7 17q0 4 -1 12.5t-1 11.5q0 9 6 30t6 26zM251 538q0 5 -5.5 25.5
t-5.5 29.5q0 3 1 12v13q0 6 -7.5 20t-7.5 16q-11 43 -49 43q-11 0 -21 -7l-10 -7q-19 -5 -34 -41q0 -10 -8 -24q-2 -3 -2 -10q0 -1 1 -4v-5l-7 -19.5t-7 -36.5q0 -29 13.5 -51t13.5 -31t14.5 -20t17.5 -19q16 -13 35 -13q32 0 42 39l11 32q8 21 8 29q0 5 3.5 13.5t3.5 15.5z
" />
    <glyph glyph-name="ampersand" unicode="&#x26;" horiz-adv-x="643" 
d="M627 448q0 -31 -77 -86q-10 -7 -10 -24q0 -9 8 -24t8 -24v-22q-1 -17 -1 -22q0 -24 1 -43q0 -2 2 -5.5t2 -5.5q0 -3 -3.5 -20t-3.5 -27q0 -26 -16 -39q-11 -9 -20 -27q-6 -12 -15 -12t-25 -22q-19 -26 -45 -32.5t-53 -11.5q-17 -4 -39 -4q-1 0 -13.5 1.5t-21.5 1.5
q-8 0 -22 -2.5t-18 -2.5q-26 0 -63 14.5t-47 26.5q-19 24 -41 33q-33 14 -40 47q-1 11 -7 27q-21 31 -24 53q2 60 2 84v46q0 62 59 100q9 6 9 19.5t21 21.5q10 4 14 14q2 6 11 11t9 21v23q-1 18 -1 28q0 54 4 80q10 32 39 56q22 19 32 19q28 0 42 2q35 5 34 5q18 0 34 -17
q20 -21 51 -35q14 -6 14 -31q0 -15 -12.5 -29t-24.5 -14q-18 0 -32.5 15.5t-33.5 15.5q-13 0 -27.5 -11t-14.5 -24v-43q0 -8 9 -21q9 -16 18 -16h43q41 0 41 -22q0 -16 -30 -27q-23 -10 -37 -10q-2 0 -8.5 1t-8.5 1t-14.5 -4.5t-18.5 -4.5q-44 0 -75 -69q-22 -50 -22 -75
q0 -42 -9 -57q23 -28 23 -66q0 -19 12 -56q16 -47 35 -52q5 -1 58 -21q16 -6 54 -6q15 0 33 8q23 11 30 13q29 8 52 54q22 43 22 81q0 25 -10 52q-12 36 -14 47q-1 6 -15 6q-20 0 -39 -12q-27 12 -27 29q0 9 -8 17q9 13 13 35q3 19 6.5 38.5t21.5 19.5q3 0 31.5 -2t30.5 -2
q73 0 101 20q25 18 35 18q22 0 22 -22z" />
    <glyph glyph-name="quotesingle" unicode="'" horiz-adv-x="208" 
d="M159 698q-3 -5 -3 -16q0 2 2 -10q0 -1 -2 -9.5t-2 -10.5q0 -30 -2 -22l-3 -3q0 -2 1.5 -4.5t1.5 -3.5t-2.5 -7.5t-2.5 -11.5q-8 -15 -8 -58q0 -6 1 -12.5t1 -7.5q0 -2 -1 -4.5t-1 -3.5q0 -34 -11 -56q0 -11 -2 -39q-8 -4 -19 -4q-14 0 -24 12q0 26 -4 32v59q0 1 -2.5 5
t-2.5 5q0 4 2 14q3 15 3 16q0 3 -5 21t-5 36q0 3 -4 13q3 9 3 7q0 4 -2 10.5l-2 6.5q0 1 1 4v4t-2 8.5t-2 15.5q0 3 2.5 10.5t2.5 12.5t5 14.5t5 10.5q12 5 15 8q15 0 30 -1t18 -1q20 0 20 -26q0 -3 -3 -12z" />
    <glyph glyph-name="parenleft" unicode="(" horiz-adv-x="389" 
d="M362 -159q0 -20 -11 -26q-7 -3 -23 -3q-6 0 -21.5 14t-18.5 14q-27 0 -34 9q-20 26 -31 26q-4 0 -12 14q-11 19 -21 28q-44 41 -67 103q-16 21 -37 67q-2 11 -17 65q-12 45 -12 53q0 11 5 34t5 34q0 2 -5 15.5t-5 17.5q0 20 15 102q2 15 11 35q33 32 33 64t27 52.5
t39 55.5q2 4 -3 18q22 16 59 54q48 63 65 63q11 0 22.5 -9t11.5 -22q0 -24 -51 -73q-11 -28 -24 -28q-20 0 -20 -44q0 -27 -37 -93q1 -25 1 -56q0 -2 -3 -22.5t-3 -27.5q0 -13 -1.5 -40.5t-1.5 -40.5q0 -4 2.5 -24.5t2.5 -25.5q0 -20 -12 -35q-3 -4 -3 -26q0 -33 19 -61
q36 -53 36 -116q0 -69 62 -105q7 -18 34 -30q24 -10 24 -30z" />
    <glyph glyph-name="parenright" unicode=")" horiz-adv-x="389" 
d="M328 336q0 -11 -3 -49.5t-3 -50.5q0 -16 -9.5 -39.5t-9.5 -37.5q0 -45 -13 -58q-23 -23 -27 -47l5 -4q0 -32 -26 -52q-35 -27 -46 -57q-14 -38 -56 -73q-3 -3 -32 -37q-23 -27 -33 -27q-11 0 -22.5 9t-11.5 22q0 25 50 75q11 28 26 28q22 0 22 44q0 22 40 94q-1 26 -1 58
q0 2 8.5 22.5t8.5 27.5q0 14 -4 54t-4 53q0 4 -2.5 24.5t-2.5 26.5q0 21 12 36q7 8 7 29q0 20 -23 54q-32 47 -32 93q0 71 -61 107q-7 20 -30 30q-27 12 -27 31q0 16 5.5 22.5t27.5 6.5q6 0 21.5 -14t18.5 -14q27 0 35 -10q20 -26 31 -26q4 0 12 -14q10 -19 20 -29
q52 -50 62 -104q2 -9 19.5 -41t17.5 -46q0 -17 15 -64t15 -53z" />
    <glyph glyph-name="asterisk" unicode="*" horiz-adv-x="400" 
d="M373 613q0 -20 -7.5 -37t-17.5 -17l-1 -4q-12 2 -17 2q1 0 -16 -8h-24q-5 0 -20 4.5t-21 4.5q-10 0 -10 -5q0 -8 14 -18q21 -14 22 -15q2 -6 3 -8t7 -4t12 -5l3 -6q7 -4 20 -17q9 -13 9 -36q0 -11 -20.5 -27.5t-29.5 -16.5q-11 0 -28 12t-17 27t-1 16t-17 20q-1 6 -8 18
q0 40 -9 40q-14 0 -14 -46q-3 -1 -6 -3.5t-3 -11t-7 -16.5q0 -3 -2.5 -10.5t-24.5 -29.5q-5 -6 -17.5 -6t-13.5 -2q-42 12 -42 50q0 19 14 37q11 15 20 17q16 4 36 26q5 -2 23 12q-8 1 -19 4.5t-13 3.5q-3 0 -10 -4t-10 -5q-1 0 -4 1t-4 1q8 -2 -25 -2q-18 0 -33.5 15
t-15.5 38q0 17 13 30.5t25 13.5q7 0 12 2q1 -1 16 -5h10q4 -5 13 -9t26 -8q5 -3 18 -8q7 -8 21 -18q4 7 7 5q-1 10 -7.5 15.5t-7.5 9.5q3 9 3 8q0 5 -7.5 10t-7.5 7q0 1 1 4.5t1 4.5q0 2 -3.5 9.5t-3.5 14.5q0 3 4.5 11.5t4.5 14t3 11t3 6.5q9 5 13.5 10t26.5 5
q14 0 26.5 -7.5t12.5 -20.5q0 -9 4 -27.5t4 -27.5q0 -4 -8 -14q-5 -5 -5 -13q0 -2 -2.5 -9t-2.5 -10q-2 -6 -7 -11.5t-8 -14.5q20 9 35 22q10 0 15.5 9.5t10.5 9.5t11 7t12 9q3 2 13 0q12 -2 14 -2q36 0 36 -33z" />
    <glyph glyph-name="plus" unicode="+" horiz-adv-x="600" 
d="M543 372q0 -8 -4.5 -21.5t-8.5 -13.5q-2 0 -13.5 1.5t-14.5 1.5q-13 0 -34 -2l-21 -2q-6 0 -29.5 4t-36.5 4q-20 -5 -48 -5q-6 -15 -6 -66q0 -6 1.5 -19t1.5 -14q0 -7 -1 -19t-1 -17q0 -7 2 -17t2 -13t-2 -7t-2 -5q0 -2 2 -8t2 -9t-5 -11t-8 -10q-6 -3 -33 -2
q-18 1 -22 19q-1 5 -1 33q0 18 -3 26q0 18 4 78q-4 0 -4 11q0 57 -9 57q-3 0 -23 -1.5t-25.5 -1.5t-16 -1.5t-11.5 -1.5q-7 0 -19 1t-17 1q-7 0 -17 -2t-13 -2t-7 2t-5 2q-2 0 -8 -2t-9 -2t-18 10q-5 3 -5 36q0 16 10 19.5t42 3.5q18 0 26 3q13 0 73 -4q0 4 11 4q3 0 22 -1
t26 -1q0 8 -2 26t-2 28l4 16l-1.5 40.5t-1.5 54.5q0 26 5 37q7 15 29 15q21 0 26.5 -9.5t5.5 -31.5q0 -13 2 -34l2 -21q0 -6 -4 -27.5t-4 -34.5q0 -52 15 -67q43 1 89 4l6 -6l20.5 4t34.5 4q26 0 37 -5q15 -7 15 -29z" />
    <glyph glyph-name="comma" unicode="," horiz-adv-x="214" 
d="M165 26v-11q-1 -10 -2 -11.5t-1 -12.5q0 -2 -4 -4.5t-4 -10t-21 -26.5q-24 -21 -43 -21q-30 0 -35 10v12q1 2 16 8q31 12 31 23q0 4 -8 11t-14 7t-18 12t-12 26q0 3 -3 11.5t-3 13.5q0 16 14 28q20 9 37 9q2 0 6 -1t5 -1q37 0 43 -28q2 -9 7 -14q0 -4 4.5 -15t4.5 -15z
" />
    <glyph glyph-name="hyphen" unicode="-" horiz-adv-x="324" 
d="M297 216q0 -15 -13.5 -26t-33.5 -11q-5 0 -16 1h-17q-7 0 -15 -1.5t-10 -1.5q-10 0 -25.5 1t-21.5 1q-9 0 -22.5 -1.5t-17.5 -1.5t-9.5 1.5t-6.5 1.5q-4 0 -12.5 -1.5t-11.5 -1.5q-2 0 -24 11q-13 7 -13 33q0 15 19 20q16 4 58 4q24 0 34 3q2 0 86 -4q0 4 15 4
q2 0 15 -2.5t19 -2.5q23 0 23 -26z" />
    <glyph glyph-name="hyphen" unicode="&#x2010;" horiz-adv-x="324" 
d="M297 216q0 -15 -13.5 -26t-33.5 -11q-5 0 -16 1h-17q-7 0 -15 -1.5t-10 -1.5q-10 0 -25.5 1t-21.5 1q-9 0 -22.5 -1.5t-17.5 -1.5t-9.5 1.5t-6.5 1.5q-4 0 -12.5 -1.5t-11.5 -1.5q-2 0 -24 11q-13 7 -13 33q0 15 19 20q16 4 58 4q24 0 34 3q2 0 86 -4q0 4 15 4
q2 0 15 -2.5t19 -2.5q23 0 23 -26z" />
    <glyph glyph-name="period" unicode="." horiz-adv-x="208" 
d="M173 58q0 -2 -2 -5.5t-2 -5.5q0 -1 1 -6.5t2 -12.5q-2 -2 -8 -18q-4 -12 -20 -17q-4 1 -14 1q-2 0 -9 -1h-13q-20 8 -22.5 9.5t-15.5 5.5q-29 8 -29 42q0 19 12 36t23 17q3 0 10 2t26 2q17 0 24 -2q8 -10 17 -10q6 0 13 -12.5t7 -24.5z" />
    <glyph glyph-name="slash" unicode="/" horiz-adv-x="500" 
d="M456 710q0 -16 -6 -21q-17 -13 -18 -34t-16 -38q-24 -28 -30 -73q-30 -15 -30 -42q0 -19 -9.5 -25t-22.5 -32.5t-14 -35.5q-16 -15 -41 -75q-21 -49 -32 -86q-10 -5 -12.5 -22t-10.5 -26q-23 -26 -27 -44t-36 -83q2 -17 -15.5 -37t-18.5 -28q-1 -12 -48 -12q-4 0 -14 7.5
t-11 12.5q-3 18 15 56q9 19 33 55q21 33 31 58q2 5 2 14.5t1 10.5q5 10 38 60q22 35 29 65q3 12 4 19q7 9 21 30q12 26 18 41q38 101 55 122q42 52 42 89q0 22 41 80q12 17 32 17q4 4 36 4q14 0 14 -27z" />
    <glyph glyph-name="zero" unicode="0" 
d="M434 344q0 -5 -3.5 -16t-3.5 -16q0 -22 -2 -60q-3 -44 -3 -60q-16 -24 -16 -46q0 -2 -11 -19t-11 -34.5t-32 -38.5q-26 -17 -26 -34q0 -11 -32 -22q-28 -10 -45 -10q-10 0 -31 3t-30 3q-24 0 -51 29q-3 3 -24 22q-14 13 -14 17.5t-12 22.5q-25 38 -25 64q0 6 -3.5 10
t-6.5 11q0 7 2.5 22.5t2.5 22.5q-2 7 -5 14q-4 14 -4 27v35q0 5 -3 21.5t-3 28.5q0 8 4.5 32t4.5 27q0 9 -3 18q4 63 19 106q11 32 11 47q0 11 23.5 64t34.5 62q2 2 6 9t13 10q15 6 26.5 17.5t52.5 11.5q13 0 41.5 -7t31.5 -7q22 -9 47 -39.5t31 -53.5q4 -15 9.5 -15
t16.5 -38t14 -64q2 -20 2 -58q0 -10 3 -29.5t3 -28.5q0 -4 -1.5 -14t-1.5 -13q0 -4 2 -16t2 -18zM327 354q0 12 -6 32q-4 14 -4 50q0 34 2 43l2 9q0 18 1 40.5t1 26.5q0 18 -2.5 40t-2.5 24q0 19 -24 50q-21 27 -36 27h-8q-5 -1 -9 -1t-9.5 1t-8.5 1q-17 0 -31.5 -22
t-14.5 -45q0 -29 -3.5 -34.5t-7.5 -14.5q-10 -43 -10 -63t2 -59.5t2 -58.5q0 -6 -5 -13q-7 -10 -7 -34q0 -6 4 -20.5t4 -24.5q0 -20 -3 -50.5t-3 -42.5q0 -3 4.5 -14.5t5.5 -18.5q12 -113 37 -126q11 -6 34 -6q20 0 34.5 4t27.5 29q6 5 13 15q10 23 10 49q0 9 -2 28t-2 31
q0 4 2.5 13t2.5 13q0 2 -3 7t-3 7q0 7 3 19t3 17v12q-1 8 -1 11q0 11 5.5 30z" />
    <glyph glyph-name="one" unicode="1" 
d="M335 26q0 -24 -34 -24q-2 0 -15.5 2t-15.5 2t-18 -2.5t-19 -2.5q-1 0 -8 2.5t-12 2.5q-4 0 -11.5 -1t-9.5 -1q-1 0 -14.5 2t-19.5 2q-2 0 -9 7.5t-7 10.5q0 6 15 19q33 29 33 72q0 35 4 40q-3 9 -3 41q0 15 3.5 44t3.5 34q0 4 -3 32.5t-3 43.5q0 16 7 16q-12 24 -12 57
q0 12 2 44.5t2 49.5q0 14 -8.5 43.5t-8.5 46.5q0 13 -13 19q-48 21 -48 36q0 8 6 13t22 24q3 -6 9 -6q6 2 17 8q74 43 94 43q15 0 25 -11t10 -26q0 -10 -4 -30.5t-4 -26.5q0 -15 1 -34v-20l4 -9q-7 -47 -7 -61q0 -12 4 -31t4 -20t-3 -22t-3 -35q0 -18 6 -57q0 13 -8 -51
q2 -9 5 -30q1 -6 -2.5 -26.5t-3.5 -27.5q0 -19 6 -55.5t6 -54.5q0 -46 28 -69q10 -8 10 -23z" />
    <glyph glyph-name="two" unicode="2" 
d="M401 569q-4 -28 -4 -58l-5 -6q-1 -34 -6 -50q-6 -20 -27 -43q-38 -41 -59.5 -78.5t-97.5 -113.5v-7q-14 -10 -18 -26q-6 -22 -21 -41t-15 -27q0 -9 33 -15q25 -5 41 -5q3 0 26.5 1.5t25.5 1.5q13 0 18 -2q21 0 48.5 13t27.5 22.5t14 9.5q16 0 16 -24q0 -10 -6 -29.5
t-6 -30.5q0 -17 -8 -35q-10 -23 -25 -23q-10 0 -40.5 1.5t-31.5 1.5q-11 0 -29 -2t-19 -2q-8 0 -35 4.5t-37 4.5q-15 0 -46 -3t-36 -3q-12 0 -20.5 8t-8.5 18q0 4 7 16q11 27 29 63q15 22 20 33q13 32 38 67q0 4 3 11q26 44 59 90q2 5 40 82l18 28q13 21 13 29q0 1 3 5
t3.5 6.5t5 41.5t4.5 49q0 2 -1.5 6t-1.5 6q2 29 -19 49q-9 9 -44 30q-8 5 -17 5q-33 0 -72 -20q-46 -23 -58 -55q-9 -6 -12 -6q-14 0 -14 23q0 8 7 22l12 21q3 3 8 9q22 41 44 59q13 2 20 17q76 19 103 19q49 0 83 -21q31 -19 38 -46q5 -18 17 -27q9 -7 9 -18q0 -2 -1 -14
t-1 -21q0 -5 8 -21z" />
    <glyph glyph-name="three" unicode="3" 
d="M408 209q0 -44 -7 -97q-2 -10 -18 -24v-14q-59 -82 -121 -82l-13.5 2t-21.5 2q-3 0 -13.5 -1.5t-17.5 -1.5q2 0 -10 4q-4 -2 -7 -2q-58 0 -106 38q-9 7 -21 12q-15 6 -28 35q-12 25 -12 39q0 35 33 63q8 7 27 7q24 0 40 -14q12 -10 12 -20q0 -2 -4.5 -20t-4.5 -20t2 -5
t2 -5q0 -32 40 -51q31 -15 64 -15q31 0 54 10q20 8 20 18q29 15 29 85q0 2 -6.5 21.5t-6.5 32.5q0 1 -3.5 13t-3.5 21q0 29 -24.5 55.5t-39.5 47.5q-10 14 -33 23q-31 13 -37 17l-4 20q24 4 50 17q31 15 38.5 29.5t24.5 40.5q15 20 15 61q0 9 -12 37.5t-20 28.5q0 7 -10 17
q-20 19 -41 37q-38 0 -52 8q-7 0 -45.5 -11t-40.5 -11q-25 0 -25 15q0 16 19 24q10 9 38 23q90 9 83 9q8 -6 98 -24q13 -11 31 -17q22 -8 34 -32.5t23 -33.5q17 -15 17 -46q0 -89 -25 -107q-47 -34 -47 -59q0 -11 27 -32q60 -46 60 -168z" />
    <glyph glyph-name="four" unicode="4" 
d="M413 341q0 -18 -27 -41q-9 -18 -9 -90q0 -18 3 -38t3 -24q0 -9 -1.5 -29.5t-1.5 -21.5q0 -2 3.5 -27t3.5 -30q0 -24 -19 -24q-3 0 -25.5 -5.5t-30.5 -5.5q-30 0 -30 36v43q-1 36 -1 42t-4 30.5t-4 45.5q0 8 1 23v23q0 57 -56 57q-7 0 -22 -3t-17 -3q-1 0 -17 2t-25 2
q2 0 -39.5 -2t-62.5 -2q-5 3 -19 3q-2 0 -6.5 7t-4.5 10q11 25 25 39q19 19 19 28q0 16 22 38q16 16 29 41q20 38 54.5 66t49 54t60.5 72q14 14 14 21q0 26 14 37.5t19 30.5q3 11 19.5 22.5t27.5 11.5q12 0 20 -10.5t8 -20.5q0 -2 -6 -22.5t-6 -38.5q0 -6 2 -44.5t2 -67.5
q0 -26 -1.5 -78t-1.5 -64q0 -3 3 -21.5t3 -32.5q1 -3 18 -13q14 -9 14 -26zM279 473q-3 13 -3 44q0 13 3 55q-9 9 -13 9q-11 0 -33 -33q-18 -27 -37 -41q-39 -28 -67 -75q-9 -12 -17.5 -24.5t-8.5 -28.5q0 -8 25 -13q20 -5 34 -5q4 0 8 2q3 0 27 -4.5t26 -4.5q54 0 54 56
q0 6 -3 33l3 6q-3 5 -3 13q0 4 5 11z" />
    <glyph glyph-name="five" unicode="5" 
d="M415 188q0 -26 -16 -50q0 -1 -6.5 -10.5t-10.5 -17.5q-23 -46 -62 -75.5t-74 -29.5q-2 0 -12 1h-13q-13 0 -17 -6q-18 0 -37 -1.5t-18 -1.5q-29 0 -40.5 8t-39.5 22q-14 6 -24 24q-8 15 -8 26q0 64 47 64q22 0 30 -17q14 -28 38 -48q28 -21 57 -21q47 0 69 19
q41 35 51.5 48.5t19.5 44.5q2 4 4 17q0 10 -3 28t-3 21q0 39 -1 46q-3 25 -18 39l-54 51q-16 18 -35 18q-12 0 -37 22q-11 10 -36 10h-36q-15 0 -26 18q7 18 7 44q0 10 -3.5 43.5t-3.5 54.5q0 7 2.5 37.5t2.5 45.5q0 4 -1.5 15t-1.5 17q0 18 28 31q22 10 40 10h29
q19 -1 20 -1l8 4q29 0 85 8q18 5 22 5q33 0 33 -23q0 -25 -29 -35q-7 -3 -28.5 -17.5t-32.5 -14.5q-4 0 -17 -3.5t-18 -3.5t-13.5 -6t-19.5 -6h-31q-35 0 -35 -27q0 -1 1 -22t1 -29q0 -19 54 -29q27 -5 53 -16q0 3 6 3q3 0 13 -7t14 -13q21 -29 40 -34q16 -4 24 -24
q3 -4 8.5 -12t5.5 -16t20 -25q0 -5 7.5 -24t7.5 -28q0 -4 6 -23t6 -33v-21q-1 -11 -1 -14q0 -6 1 -32.5t1 -27.5z" />
    <glyph glyph-name="six" unicode="6" 
d="M440 156q0 -53 -113 -140q-6 -4 -27 -10t-30 -6h-54q-1 0 -4 -1.5t-5 -1.5q-21 0 -56 27q-6 6 -26 17q-8 3 -22 10q-5 3 -13 19q-4 7 -18 17q-33 22 -33 65v96q0 4 -1 14t-1 12q0 7 6 42q8 42 17 64q4 11 10 40q3 15 8 25l45 87q6 13 34 39t28 36q8 14 64 51.5t76 37.5
q27 0 27 -19q0 -8 -15.5 -21.5t-29.5 -19.5q-31 -12 -46 -31q-18 -22 -53 -56q-10 -9 -20.5 -30.5t-33.5 -60.5q-4 -7 -4 -17q0 -3 -6.5 -20.5t-6.5 -21.5q0 -6 8.5 -11t12.5 -5q17 0 49.5 8.5t50.5 8.5q10 0 22 -2.5t13 -2.5q7 0 15 2t10 2q10 0 44 -20t34 -31t16.5 -35.5
t16.5 -40.5q0 -3 4 -12.5t4 -13.5q0 -27 1.5 -59.5t1.5 -30.5zM363 144q0 4 -4 19t-4 18q0 81 -48 125q-45 41 -82 41q-95 0 -95 -57q0 -30 7 -44q-2 -22 -2 -28q0 -23 13 -40l-1 -10q6 -7 10 -22t7 -22t15 -25q5 -5 7 -13t12.5 -11.5t27.5 -12.5q2 0 44 3h33l5 6
q28 5 43 30q12 20 12 43z" />
    <glyph glyph-name="seven" unicode="7" 
d="M470 725q0 -23 -18 -45q-13 -15 -25 -42q-16 -35 -16 -45.5t-23.5 -46t-23.5 -45t-12 -39t-24 -49.5q-19 -31 -25 -56q-13 -55 -43 -124q-14 -32 -38 -102q-9 -36 -18 -46q-16 -17 -21 -49q-6 -37 -44 -37q-1 0 -11.5 3t-18 3t-13.5 4q-10 2 -20.5 4.5t-10.5 14.5
q0 4 4 16.5t4 17.5q10 10 15.5 25t9.5 20q15 16 28 48q15 36 65 122v6q35 42 45 106q21 15 24 31q4 25 21 45t18 35q1 25 26 43q0 9 13.5 37t13.5 44q0 23 -28 23q-16 0 -53 -2t-53 -2h-30q-36 0 -50.5 -20t-31.5 -20q-19 0 -19 23q0 13 4 19q12 18 14.5 36.5t7 25.5t4.5 39
q0 27 29 27q23 0 54.5 -19t45.5 -19q9 0 25.5 2.5t24.5 2.5q10 0 18 -1l7 -3q6 3 34 3q22 0 59.5 3.5t41.5 3.5q3 0 8.5 -8.5t5.5 -12.5z" />
    <glyph glyph-name="eight" unicode="8" 
d="M447 216q0 -30 -14 -70q-16 -46 -35 -69t-69 -54q-37 -23 -69 -23q-10 0 -27.5 -2t-26 -2t-21 -1t-13.5 -1q-39 0 -56 17q-11 11 -34 20t-38 47.5t-15 89.5q0 81 31 117q1 2 1 7q12 6 29 29q3 4 25 19q19 13 19 17q0 20 -16 20q-6 0 -11 14q-6 18 -20 25.5t-21 34.5
q-2 9 -14 19q0 5 -2.5 23t-2.5 26q0 63 17 86q39 52 78 92q6 6 25 6q9 0 38 14q17 8 50 8q14 0 53 -11.5t42 -11.5q0 -10 24 -29q49 -39 49 -93q0 -3 -1.5 -11.5t-1.5 -12.5q0 -7 2.5 -21t2.5 -22q0 -30 -19 -60q-15 -24 -28 -29q-37 -15 -37 -33q0 -10 10 -14q19 -7 31 -19
q15 -15 25 -37q12 -25 20 -32q12 -11 12 -35q0 -7 4 -21.5t4 -16.5zM360 538q0 3 -3.5 18t-3.5 24q0 23 -29 59q-11 0 -17 12q-9 17 -64 17q-115 0 -115 -112q0 -35 10.5 -56.5t37.5 -36.5q31 -18 38 -27q17 0 32 -8.5t30 -8.5q18 0 36.5 16.5t24.5 35.5q2 7 12.5 25.5
t10.5 41.5zM364 168q0 22 -16 46q-23 36 -25 41q-13 0 -20 12q-4 6 -11 9q-10 4 -26 22q-10 12 -28 12q-3 0 -22.5 7.5t-26.5 7.5q-39 0 -69 -30q-47 -46 -47 -104q0 -108 61 -127q54 -17 65 -17q105 0 154 81q1 5 7 21q4 12 4 19z" />
    <glyph glyph-name="nine" unicode="9" 
d="M447 515q0 -6 -1.5 -23t-1.5 -24l-5 -5q-1 -6 1 -25q1 -22 1 -29q0 -10 -6 -30q-9 -30 -9 -31q-5 -21 -5 -50q0 3 -13 -32q-15 -42 -23 -59q-16 -33 -34 -53q-35 -38 -51 -69q-8 -2 -14 -8q-37 -38 -81 -53q-29 -10 -46 -24q-40 -6 -63 -6q-24 0 -24 11q0 14 14 24t29 10
q21 0 69 33q53 37 69 73q9 20 22 42q0 14 38 73q5 10 5 16q0 3 -1.5 9.5t-1.5 9.5q0 10 5 20q-7 9 -24 9q-12 0 -17 -8q-15 0 -46 -2t-47 -2q-31 0 -45.5 10t-21.5 11q-10 2 -25.5 12.5t-20.5 20.5q-9 18 -19 26q-17 13 -17 37q0 8 -3 21t-3 39q0 7 -1.5 24.5t-1.5 23.5
t3 35t3 45q28 47 76 89q37 32 64 32q12 0 35 2.5t24 2.5q12 0 26 -2.5t17 -2.5q12 0 46 -12.5t42 -21.5q31 -37 56 -56q2 -9 8 -23q15 -22 15 -68q0 -6 2 -20.5t2 -21.5zM350 478q0 50 -12 61q5 6 5 17q0 13 -10 31.5t-10 23.5q0 13 -25 41q-28 31 -51 31q-42 0 -57 -3
q-33 -7 -43.5 -31t-20.5 -24q1 -6 1 -22q0 -4 -5 -21t-5 -22q0 -4 3.5 -22t3.5 -29q0 -37 22 -65q6 -8 21 -35q8 -15 42 -26q30 -10 58 -10q25 0 48 12q12 6 15 18q2 9 11 18t9 57z" />
    <glyph glyph-name="colon" unicode=":" horiz-adv-x="226" 
d="M172 343q0 -14 -9 -30t-16 -16q0 -8 -13 -13.5t-24 -5.5l-8 1t-13 1q-17 0 -17 4q-11 0 -18 15.5t-7 31.5q0 23 3.5 28t3.5 10q0 11 16 20t37 9q12 0 23 -7q5 -4 19 -8q21 -2 21 -33q0 -2 1 -4t1 -3zM188 42q0 -27 -33 -39q-27 -10 -33 -10q-27 0 -47 15q0 1 -10 17
q-6 9 -6 25q-4 16 -4 13q0 16 25 29q21 11 35 11q8 0 15 3q15 -5 23 -5q30 -20 30 -34q0 -4 2.5 -11.5t2.5 -13.5z" />
    <glyph glyph-name="semicolon" unicode=";" horiz-adv-x="226" 
d="M176 325q0 -1 -1.5 -4t-1.5 -5q0 -1 1 -4v-5q0 -3 -5 -13q-4 -6 -4 -10t-16 -14q-20 -12 -41 -12q-20 0 -38 12q-14 10 -14 16q0 12 -5 12q0 6 -1 15t-1 12q0 26 15 39q12 10 44 18q6 -1 11 -1q2 0 5.5 1.5t5.5 1.5q7 0 18 -9l16 -14q12 -8 12 -36zM177 44q0 -4 -2 -14
t-2 -16l-7 -14q0 -11 -36.5 -43t-52.5 -32q-20 0 -20 18q0 7 11 14q26 16 26 26q0 11 -22 18q-12 4 -17 22q2 4 2 10q0 3 -1.5 7.5t-1.5 6.5q0 29 12.5 35.5t17.5 11.5t19 5q2 0 7.5 -1t6.5 -1q5 0 11 2q2 -3 15 -3q34 -15 34 -52z" />
    <glyph glyph-name="less" unicode="&#x3c;" horiz-adv-x="600" 
d="M498 603q-15 -22 -57 -47q-46 -28 -63 -48q-11 -13 -42 -24q-16 -6 -22.5 -19t-54.5 -27q-22 -6 -56.5 -29.5t-34.5 -29.5q0 -13 92 -60q23 -12 30 -29q15 -35 66 -45v-12q44 -42 89 -60q42 -16 42 -40q0 -14 -13 -26t-28 -12q-12 0 -48 29q-39 31 -84 57q-55 31 -80 67
q-3 1 -32 22q-21 15 -35 15q-11 13 -35.5 30.5t-39.5 22.5q-26 8 -26 41q0 13 14.5 29.5t40.5 25.5q52 18 116 62l49.5 31t33.5 28q11 16 37 24t38 30q19 35 50 35q23 0 33 -8.5t20 -32.5z" />
    <glyph glyph-name="equal" unicode="=" horiz-adv-x="600" 
d="M543 435q0 -16 -10 -19.5t-42 -3.5q-18 0 -26 -3q-13 0 -73 4q0 -4 -11 -4q-3 0 -18.5 -2t-22.5 -2q-17 0 -40.5 8t-26.5 8q-97 0 -103 -6l-6 6l-20.5 -4t-34.5 -4q-26 0 -37 5q-15 7 -15 29q0 9 4.5 22t8.5 13q3 0 14.5 -1.5t13.5 -1.5q13 0 34 2l21 2q6 0 29.5 -4
t36.5 -4q41 12 70 2q10 0 34 3t26 3q3 0 23 -3.5t25 -3.5q6 0 16.5 1.5t11.5 1.5q8 0 20 -1t16 -1q7 0 17 2t13 2q4 0 8 -2l4 -2q3 0 9 2t8 2q23 0 23 -46zM543 298q0 -8 -4.5 -21.5t-8.5 -13.5q-2 0 -13.5 1.5t-14.5 1.5q-23 0 -55 -4q-37 8 -66 8q-41 -12 -70 -2
q-10 0 -34 -3t-26 -3q-3 0 -23 3.5t-25 3.5q-6 0 -16.5 -1.5t-11.5 -1.5q-7 0 -19 1t-17 1q-7 0 -17 -2t-13 -2t-7 2t-5 2q-2 0 -8 -2t-9 -2t-11 7q-12 10 -12 39q0 16 10 19.5t42 3.5q18 0 26 3q13 0 73 -4q0 4 11 4q3 0 18.5 2t22.5 2q17 0 40.5 -8t26.5 -8q97 0 103 6
l6 -6l20.5 4t34.5 4q26 0 37 -5q15 -7 15 -29z" />
    <glyph glyph-name="greater" unicode="&#x3e;" horiz-adv-x="600" 
d="M534 360q0 -13 -13 -28q-16 -18 -42 -27q-52 -18 -116 -62l-48 -30q-27 -17 -35 -29q-11 -16 -37 -24t-38 -30q-19 -35 -50 -35q-23 0 -33 8.5t-20 32.5q15 22 57 47q46 28 63 48q11 13 42 24q16 6 22.5 19t54.5 27q22 6 56.5 29.5t34.5 29.5q0 13 -92 60q-23 12 -30 29
q-15 35 -66 45v12q-44 42 -87.5 59t-43.5 41q0 14 13 26t28 12q12 0 48 -29q39 -32 84 -57q55 -31 80 -67q3 -1 32 -22q21 -15 35 -15q11 -13 35.5 -30.5t39.5 -22.5q26 -8 26 -41z" />
    <glyph glyph-name="question" unicode="?" horiz-adv-x="336" 
d="M324 507q0 -13 -26 -57q-4 -7 -8 -25t-26 -35q-36 -28 -46.5 -49.5t-32.5 -40.5q-32 -28 -32 -59q-8 -3 -8 -26q0 -6 1 -20v-21q0 -4 -7 -9.5t-12 -5.5q-30 0 -30 41q0 40 12 74q0 30 7 40q28 40 40 67q19 22 25 41q33 43 43 74q9 28 9 80q0 17 -24 60.5t-42 43.5
q-4 0 -22 1h-27q-17 0 -27 -15t-10 -33q0 -3 7 -19q0 -18 3.5 -38t3.5 -21q0 -24 -39 -24q-41 0 -41 54v8q-1 7 -1 11q0 36 27 69q0 17 10 21q17 7 26 18q19 23 69 23q65 0 91 -16q13 -8 22 -8q2 -5 18 -20q44 -41 44 -74v-67q0 -8 1.5 -22t1.5 -21zM170 50q0 -21 -12.5 -39
t-32.5 -18q-16 0 -26.5 13.5t-10.5 29.5l2 8.5t2 14.5q0 2 -1.5 5.5t-1.5 6.5q0 6 9.5 13t24.5 7q27 0 43 -24q0 -13 4 -17z" />
    <glyph glyph-name="at" unicode="@" horiz-adv-x="850" 
d="M792 426q0 -8 -17 -46t-17 -66q0 -24 -17 -61q-8 -6 -26 -26.5t-19 -27.5q-63 -43 -134 -43q-25 0 -44.5 17t-19.5 34t-12 17q-15 0 -47 -39q-19 -23 -87 -23q-53 0 -72.5 29.5t-35.5 45.5q-1 11 -5 42q-3 25 -3 41q0 15 10 43q11 32 12 40q5 1 18 16.5t18 27.5
q14 35 67 79q16 4 25 10q28 18 52 22l2 3q26 8 39 8q24 0 34 -19q12 -24 26 -24q4 0 13.5 9.5t14.5 12.5q21 7 38 7q28 0 28 -20q0 -13 -9 -21q0 -6 -7 -22.5t-7 -19.5t-1.5 -13t-1.5 -13l-4 -2q0 -6 -13.5 -53t-13.5 -61.5t-9 -28.5q-17 -27 -17 -52q0 -12 12 -22t34 -10
q26 0 53 14q32 15 34 36.5t19 51.5q13 23 13 28q1 16 8.5 41t7.5 29q0 9 -10 34q-1 2 -11 44q-9 39 -12 39t-8 17.5t-5 28.5q0 17 -42 31q-20 7 -37 24t-51.5 17t-51.5 6q-26 9 -43 9q-13 0 -31 -12q-12 -7 -22 -7q-45 0 -81 -22q-23 -14 -45 -14q-18 0 -39 -29
q-12 -17 -55 -88q-10 3 -10 -2q0 -1 -10.5 -22.5t-10.5 -26.5q0 -7 4.5 -30t4.5 -34q0 -24 -11 -39t-11 -27q0 -50 20 -68t22 -47q1 -9 13 -31t19 -28q109 -91 254 -91q89 0 105 16q20 20 74 35q20 27 40 27q19 0 19 -38q0 -20 -61 -48l-1 -8q-32 0 -68 -13
q-49 -18 -117 -18q-40 0 -52.5 5t-64.5 5q-5 0 -22.5 9.5t-20.5 9.5q-26 0 -33 7q-20 20 -35 20q-11 12 -38 32q-56 41 -74 81q-3 8 -25 32q-9 10 -18 53q-8 38 -8 56q0 9 5 38t5 37q0 2 -5 12t-5 13l-1.5 10.5t-1.5 19.5q0 34 16 52q22 25 34 49q21 41 49 58q18 11 21 22
q4 17 30 33q35 21 42.5 29.5t41.5 18t65 9.5q22 0 65.5 7.5t65.5 7.5q95 0 175 -74q75 -69 102 -165q2 -8 13 -38q4 -11 4 -25zM521 434q0 5 -2 15l2 6q0 51 -38 51q-6 0 -19 6q-33 0 -38 -6q-21 -24 -35 -24q-4 0 -22.5 -18t-32.5 -38q-4 -2 -10.5 -21.5t-6.5 -28.5
q0 -1 1 -6.5t1 -10.5q0 -1 -1 -17.5t-1 -34.5q0 -2 4.5 -9.5t4.5 -9.5q12 -54 88 -54q26 0 38 29q13 17 16 38q22 20 22 28q0 4 5.5 14t5.5 15q0 9 9 34t9 42z" />
    <glyph glyph-name="A" unicode="A" horiz-adv-x="644" 
d="M641 22q0 -27 -40 -27q-11 0 -32.5 2.5t-32.5 2.5q-10 0 -41.5 -2t-51.5 -2q-27 0 -27 14q0 13 19 20q39 15 39 48q0 31 -6 39q-13 17 -8 36q2 8 -7 17q-14 14 -17 26q-18 73 -54 120q-5 6 -32 6q-6 0 -24.5 -3.5t-25.5 -3.5q-8 0 -27.5 3.5t-25.5 3.5q-50 0 -57 -52
q0 -7 -5 -20q-12 -18 -12 -36q0 -5 -2 -13.5t-2 -14.5q-12 -10 -20 -42q-7 -27 -7 -48q0 -16 15 -28q38 -30 38 -35v-13q0 -7 -13.5 -13t-27.5 -6q-2 0 -13 1t-13 1q-13 0 -38 -8q-9 -3 -27 -3q-12 0 -46 7q-41 8 -41 32q0 22 29 32q17 6 45 43q24 34 33 57q14 37 40 78
q14 23 27 58q6 18 22.5 45t22.5 27q-3 6 -3 7q10 14 15 41t16 38t6 25q18 25 16 43q10 6 13 28q2 17 12 32q6 9 11 33q3 14 8 18q14 11 14 50q0 13 11 24t25 11q16 0 28 -15t15.5 -30t15 -43t20.5 -58q1 -4 12 -27q6 -13 9 -29q4 -25 17 -52q6 -13 10 -44q2 -17 12 -35
q13 -23 17 -49q3 -16 21 -65.5t22 -56.5q13 -20 13 -33q0 -18 18 -54q19 -40 45.5 -67.5t26.5 -40.5zM366 422q0 22 -11 42q-14 22 -33 22q-6 0 -18 -6t-15 -13t-10 -18q-12 -15 -12 -36q0 -44 62 -44q37 0 37 53z" />
    <glyph glyph-name="B" unicode="B" horiz-adv-x="588" 
d="M538 131q0 -17 -17 -47t-25 -30q-21 0 -37 -22q-12 -16 -32 -16q-7 0 -18.5 -5.5t-16.5 -6.5q-11 -1 -21 -1q-2 0 -14 1t-15 1q-18 0 -63 -4.5t-59 -4.5q-10 0 -35 6t-44 6q-9 0 -28.5 -5t-27.5 -5q-27 0 -27 17q0 11 14 20q23 15 23 38t5 30q8 12 8 37v43q0 34 -7 63
q-2 8 -2 18q0 3 2.5 13.5t7.5 24.5q5 5 5 10q0 16 -8 67q-4 25 -4 55q0 16 5.5 48t5.5 48q-11 15 -11 41q0 6 1 20v19q0 34 -39 59q-12 8 -12 18q0 31 31 31q20 0 32 -3q31 -8 44 -8q11 0 35.5 3.5t33.5 3.5q5 0 34.5 -3t48.5 -3q2 0 15 1t16 1q70 0 117 -50q8 -9 32 -24
q18 -8 33 -61q12 -44 12 -72q0 -57 -38 -78q-12 -7 -35 -30q-7 -7 -27 -12q-10 -2 -10 -11q0 -4 21 -21t41 -26q8 -4 18.5 -21t10.5 -28t10.5 -21.5t10.5 -57.5v-66zM422 511q0 14 -6 44q-2 10 -2 29q-49 71 -93 71q-1 0 -33 -2.5t-41 -2.5t-17.5 -12t-8.5 -31q0 -7 3 -21.5
t3 -19.5q0 -6 -4.5 -23.5t-4.5 -26.5q0 -17 7.5 -47.5t7.5 -46t30 -15.5h73q25 0 41 18q45 50 45 86zM433 190q0 12 -5 34t-5 33q0 5 -5 17.5t-5 21t-18.5 32t-32.5 23.5h-23q-14 0 -26 3q-16 4 -27 4q-64 0 -64 -35q0 -7 1 -27t1 -28q0 -23 -9 -35q-13 -17 -13 -29
q0 -14 10 -22t10 -17q0 -14 -6.5 -32t-6.5 -37q0 -29 29 -36q39 -10 111 -10q41 0 69 57q3 6 3 19v8q-1 5 -1 9q13 4 13 47z" />
    <glyph glyph-name="C" unicode="C" horiz-adv-x="714" 
d="M684 112q0 -27 -14 -50t-35 -29l-105 -32q-35 -10 -56 -10q-9 0 -34.5 2t-33.5 2q-9 0 -33 -4t-31 -4q-27 0 -62 25.5t-72 36.5q-18 5 -28 18q-16 19 -36 36q-55 46 -82 108q-20 45 -20 81q0 6 1 29t1 28q0 13 -1.5 40t-1.5 41q0 40 24 80q31 51 37 71q19 60 58 60
q22 0 26 12q8 22 30 42q42 37 103 37h119q8 0 24 4t20 4q26 -10 80 -10q10 0 27 -9q8 -4 27 -8t39 -21.5t20 -27.5v-74q0 -6 1.5 -24.5t1.5 -26.5q0 -37 -21 -37q-13 0 -26 20q-12 17 -12 26q0 14 -17 23q-3 2 -47 55q-23 28 -51 35q-23 6 -59 17q-13 6 -41 6
q-46 0 -58.5 -10t-29.5 -12q-26 -3 -49 -20.5t-48 -51t-25 -43.5q0 -18 -20 -82q-11 -35 -11 -84q0 -30 3 -37q8 -20 8 -28q0 -4 -2.5 -33.5t-2.5 -38.5q0 -70 70 -123q47 -35 78 -47t73 -12q32 0 39 6q28 -5 62 -5q25 0 55 16.5t46 38.5q21 29 34 70q10 32 28 32
q29 0 29 -23q0 -2 -2.5 -16.5t-2.5 -17.5q0 -4 3 -24t3 -27z" />
    <glyph glyph-name="D" unicode="D" horiz-adv-x="755" 
d="M707 365q0 -5 -2.5 -22.5t-2.5 -21.5q0 -27 -3 -39t-3 -39q0 -15 -12 -45q-23 -58 -52 -79q-14 -9 -37 -35q-13 -12 -37 -40q-5 -8 -32.5 -21.5t-37.5 -13.5q-22 0 -38 -14q-6 -5 -13 -5q-2 0 -13 3t-14 3q-2 0 -13 -5t-23 -5q-47 0 -115 8t-74 8q-17 0 -51 -6t-52 -6
q-34 0 -34 22q0 4 7.5 13t15.5 13q25 12 42 32v18q-1 12 -1 16v103q0 5 2.5 18t2.5 17q0 2 -5 16q-4 10 -5 41q-1 33 7 43l-3 9t-3 14q0 12 -1 36t-1 26q0 43 2 69q0 5 4.5 17t4.5 15q0 4 -9 37q1 10 -2 30q-5 17 -27 42l-32 37q-7 10 -7 25q0 20 12 26q9 5 36 5
q3 0 27 -4.5t42 -4.5q28 0 63.5 7.5t34.5 7.5q3 0 21 -5.5t35 -5.5q3 0 38 1.5t37 1.5q37 0 46 -6q26 -17 90 -36q41 -12 47 -32q3 -11 26 -29t51 -48q36 -40 38 -59t9 -33q11 -23 11 -29q0 -11 -2 -16v-37q0 -8 2.5 -23zM590 382q0 45 -14 65q-3 18 -8 36q-2 8 -13 21.5
t-13 22.5q-10 19 -28 49q-15 25 -52 39q-22 8 -40 26q-15 15 -41 15h-112q-18 0 -29.5 -13.5t-11.5 -22.5q0 -19 7 -42.5t7 -31.5q0 -6 -6 -21.5t-6 -22.5q0 -31 -8.5 -46t-6.5 -26q8 -26 21 -26q6 -16 6 -40q0 -8 -5 -27t-5 -26q0 -5 4.5 -25t4.5 -25q0 -22 -24 -54l16 -16
q11 -12 11 -17q0 -3 -1 -11t-1 -12t1.5 -12.5t1.5 -11.5q0 -6 -4 -27t-4 -26t21 -18.5t29 -13.5q18 0 71.5 1.5t64.5 1.5q6 0 29 17q20 16 28 25q34 38 72 114q3 6 30 42q-7 23 -7 27q0 2 6 33q9 47 9 79z" />
    <glyph glyph-name="E" unicode="E" horiz-adv-x="562" 
d="M532 624q0 -36 -22 -36q-10 0 -21 24q-8 17 -25 30q-37 28 -50 28q-17 0 -32 6q-18 7 -28 7q-7 0 -21 -5q-20 -7 -32 -7q-2 0 -11.5 1.5t-12.5 1.5q-52 0 -52 -33q0 -1 9 -37q3 -12 3 -19q0 -6 -6 -17t-6 -12q0 -16 3.5 -62.5t3.5 -70.5q7 -14 37 -14q39 0 81 48
q17 19 28 19q10 0 19 -22q8 -18 8 -26t-5 -25t-5 -24q0 -5 5.5 -17t5.5 -19q0 -2 -1.5 -7.5t-1.5 -8.5q0 -2 1.5 -10t1.5 -11q0 -34 -26 -34q-23 0 -32 20q-14 31 -37 31q-13 0 -20 7q-11 12 -36 12q-36 0 -36 -17q0 -2 3.5 -10t4.5 -11q8 -37 8 -49q0 -3 -10 -41
q10 -22 10 -46q0 -39 -4 -75q3 -8 11 -17q26 -27 107 -27q92 0 125 116q4 13 26 13q24 0 24 -38q0 -19 -6 -49q5 -27 5 -54q0 -38 -52 -38h-78q-5 0 -21.5 -2.5t-22.5 -2.5q-7 0 -41 3t-48 3q-2 0 -20 -1h-24q-5 0 -16 1t-14 1q-12 -6 -46 -6h-65q-33 0 -33 12q0 11 22 27
q32 24 37 49q8 41 8 53v22q-1 15 -1 22t1 20.5t1 19.5q0 4 -3.5 23t-3.5 37q0 15 4 35.5t4 27.5q0 27 -4.5 66.5t-4.5 46.5q0 14 7 63q-7 28 -7 45q0 72 -20 88q-56 46 -56 61q0 9 8 18t17 9h27q2 0 20 -3.5t19 -3.5q26 0 67 11q62 -7 193 -7q38 0 75 4.5t35 4.5
q37 0 37 -22q0 -4 -1 -17.5t-1 -19.5q0 -11 5 -32t5 -31z" />
    <glyph glyph-name="F" unicode="F" horiz-adv-x="526" 
d="M518 573q0 -11 -3.5 -20t-21.5 -9q-6 0 -15 7q-5 4 -10 26q-4 19 -31 51q-7 8 -24 14q-8 3 -18.5 13.5t-43.5 10.5h-42q-32 0 -57 -17t-25 -35q0 -3 2 -14.5t2 -15.5q0 -13 -7 -24q-12 -20 -12 -23q0 -16 8 -37q9 -24 9 -39q0 -20 4 -33q6 -19 20 -19h51q15 0 33.5 14.5
t22.5 36.5q15 10 19 10q13 0 23 -9t10 -21q0 -14 -4.5 -41.5t-4.5 -41.5q0 -10 7 -35t7 -41q0 -6 -8.5 -13.5t-18.5 -7.5q-17 0 -43 49q-23 43 -73 43q-49 0 -49 -39q0 -5 2 -18.5t2 -19.5q0 -12 -7 -34.5t-7 -34.5q0 -9 12 -27q6 -9 6 -45q0 -43 10 -60q7 -12 32 -25
q20 -10 20 -30q0 -22 -43 -22h-47q-13 0 -27 6.5t-22 6.5q-24 0 -35 -6q-17 -9 -31 -9q-31 0 -31 20q0 9 18 27q29 29 29 80q0 8 -4.5 36.5t-4.5 47.5q0 29 8 74q3 17 3 47q0 5 -5 27t-5 41v28q0 19 5.5 38.5t5.5 21.5q0 6 -7 42q-6 31 -6 101q0 26 -35 46q-15 9 -15 25
q0 19 31 19q20 0 37 16q19 -16 52 -16q3 0 22.5 1.5t21.5 1.5q3 0 19.5 -4.5t24.5 -4.5t31.5 10.5t31.5 10.5q5 0 16 -5.5t18 -5.5q3 0 35 1t34 1h68q4 0 15.5 -9t11.5 -14v-52q0 -3 -3.5 -15.5t-3.5 -21.5q0 -3 5 -21q5 -12 5 -16z" />
    <glyph glyph-name="G" unicode="G" horiz-adv-x="713" 
d="M692 224q0 -3 -2 -15.5t-2 -17.5t-16 -21q-19 -19 -19 -25q0 -4 2.5 -23.5t2.5 -28.5q0 -35 -7.5 -46.5t-36.5 -22.5q-50 -18 -82 -18q-4 0 -20 1t-22 1q-18 0 -46 -10q-23 -8 -80 -8q-50 0 -63 6l-68.5 23t-57.5 43q-14 20 -43 36q-17 10 -34.5 35t-21.5 45
q-1 4 -5.5 13.5t-4.5 12.5q0 26 -16 52q-6 9 -6 19l-1 73q0 3 -1.5 10.5t-1.5 9.5q0 14 7 41.5t7 40.5q0 55 21 85q9 12 13 23q20 48 70 86q5 3 21 23q21 25 81 37q15 3 37 19q19 14 80 14q3 0 31.5 -4.5t38.5 -4.5q2 0 12 1h13q28 0 62 -21q10 -1 31 -8q17 -9 34.5 -11
t25.5 -9l25 -22q5 -4 5 -24q0 -12 -1 -38.5t-1 -39.5q0 -5 2.5 -16.5t2.5 -13.5q0 -38 -24 -38q-18 0 -38 19q-10 10 -12 24q-3 28 -24.5 59t-40.5 31q-12 0 -22 10q-21 20 -75 20q-2 0 -24 -1t-25 -1q-21 0 -30 11t-19 11q-12 0 -25 -15q-19 -21 -44 -30q-36 -13 -44 -48
q-16 -73 -38 -112q-16 -29 -16 -43q0 -2 4.5 -11t4.5 -13q0 -12 -2.5 -38l-2.5 -26q0 -10 4.5 -31.5t3.5 -35.5q0 -2 1.5 -7.5t1.5 -8.5q0 -24 13 -47q3 -5 3 -23q0 -14 17 -43.5t31 -33.5q10 -3 24 -13q25 -18 35 -18q21 0 30 -3q47 -16 108 -16q46 0 65.5 10.5t32.5 47.5
q1 3 1 20q0 46 -16 62q-11 11 -39 15t-28 25q0 22 37 22q4 0 27.5 -2.5t28.5 -2.5q21 0 64.5 2t64.5 2q6 0 13.5 -11.5t7.5 -20.5z" />
    <glyph glyph-name="H" unicode="H" horiz-adv-x="806" 
d="M750 6q0 -17 -28 -17q-6 0 -19.5 1.5t-18.5 1.5l-11.5 -1t-21.5 -1q-15 0 -45 6t-46 6q-7 0 -22 -3t-18 -3q-5 0 -11 6.5t-6 13.5q0 13 13.5 19t28.5 11q25 9 25 29q0 17 -2 41.5l-2 24.5q0 14 4.5 29.5t4.5 22.5q0 10 -7 28q-3 8 -3 33q0 9 2.5 23.5t2.5 19.5
q0 7 -8.5 14.5t-22.5 23.5q-8 9 -29 9q-4 0 -18 -2.5t-19 -2.5q-12 0 -32.5 -2t-21.5 -2q-5 0 -27 3t-34 3q-21 0 -47 -1t-25 -1q-2 0 -9 1.5t-10 1.5q-36 0 -39 -36q0 -6 -4 -21t-4 -20q0 -1 2.5 -8t2.5 -9q0 -14 -10 -24t-10 -27q0 -6 12 -19q7 -8 7 -42v-18
q-1 -12 -1 -18q0 -3 3.5 -9t3.5 -16q0 -18 15 -23q45 -15 45 -26q0 -17 -25 -18q-30 -2 -47 -7q-12 -5 -27 -5q-23 0 -33 5.5t-27 5.5q-8 0 -25 -8q-9 -4 -22 -4q-28 0 -28 21q0 14 28 38q24 20 24 43q0 46 15 86q-11 14 -11 96q0 5 1 14.5t1 13.5q0 13 -3 24.5l-3 11.5
q0 2 5 19.5t5 29.5q0 55 -5 73q-2 7 -2 11q0 3 4 11q-3 12 -3 15v90q0 9 -3.5 20t-3.5 39q0 24 -23.5 34t-23.5 32q0 34 68 34q13 0 27.5 -5t21.5 -5q12 0 34 5.5t35 5.5q9 0 23.5 -10t14.5 -17q0 -23 -30 -45q-21 -15 -21 -42q0 -11 1 -29.5t1 -25.5q0 -6 -3 -15.5
t-3 -12.5q0 -8 -7.5 -16.5t-7.5 -23.5q0 -7 9 -9q6 -2 6 -16v-21q-3 -20 -3 -32q0 -27 26 -27h75q19 0 56 -9t55 -9q8 0 15.5 3.5t16.5 3.5l22.5 -1.5t35.5 -1.5q7 0 17 8t10 15t10.5 27t10.5 24q0 5 -5 19t-5 25q0 20 4.5 53.5t4.5 43.5q0 50 -33 65q-21 10 -21 28
q0 8 8 16.5t17 8.5h56q6 0 19.5 5t20.5 5q8 0 19 -2.5t12 -2.5q2 0 18.5 1.5t18.5 1.5q16 0 27 -9.5t11 -19.5q0 -11 -13 -18q-17 -9 -20 -14q-4 -8 -9 -8q-17 0 -17 -37q0 -9 1.5 -21t1.5 -20q0 7 -5 -28q-1 -7 -1 -13q0 -10 6.5 -32.5t6.5 -33.5q0 -3 -1 -14t-1 -13v-41
q-12 -20 -12 -45q0 -6 9 -25q7 -15 7 -45q0 -10 -8 -69q-4 -30 -4 -56q0 -44 6.5 -58t10.5 -48q2 -13 24 -30t22 -33z" />
    <glyph glyph-name="I" unicode="I" horiz-adv-x="334" 
d="M286 691q0 -18 -21 -33q-13 -9 -15 -16t-16 -19q-8 -24 -8 -51q0 -4 1.5 -21t1.5 -28t-2 -36.5t-2 -34.5q0 -3 1 -11t1 -11q0 -10 -2 -26t-2 -18t3 -8t3 -9q0 -2 -2.5 -16t-2.5 -21q-1 -31 -1 -53q0 -5 3 -11q-5 -12 -5 -27q0 -2 2.5 -28.5t2.5 -57.5q0 -49 2 -66
q5 -6 5 -25q7 -7 7 -15q0 -3 12.5 -11.5t12.5 -20.5v-11q0 -13 -26 -13q-4 0 -22 4t-42 4q-18 0 -55 -6q-25 -4 -23 -4q-39 0 -39 28q0 14 20 26.5t25 27.5q10 28 10 91q0 9 5 21q2 5 2 19q0 2 -2 9t-2 9q0 14 1 33.5t1 26.5q0 9 -3 43t-3 54q0 17 5.5 49t5.5 48
q0 7 -3 26.5t-3 24.5q0 89 -15.5 102t-18.5 25q-2 8 -25 15q-14 4 -14 21q0 20 16 22q12 1 28 5t21 4q8 0 21.5 -4.5t14.5 -4.5q-11 0 37 6q24 3 66 3q18 0 28 -10t10 -20z" />
    <glyph glyph-name="J" unicode="J" horiz-adv-x="340" 
d="M295 693q0 -17 -36 -32q-14 -6 -14 -23q0 -5 -4 -19.5t-4 -21.5q0 -11 -5 -24q-7 -18 -7 -101q0 -12 2 -39t2 -29q0 -12 -5 -18l4 -52q9 -109 9 -124q0 -6 -5 -13q2 -35 6 -99q4 -56 4 -63q0 -62 -6 -72q-20 -34 -20 -67q0 -16 -9 -29t-15 -13q-17 0 -17 -22
q0 -8 -12 -20q-4 -4 -10 -16q-11 -27 -24 -39q-9 -8 -38.5 -29.5t-32.5 -21.5q-9 0 -18.5 8.5t-9.5 15.5q0 23 21 49q15 19 15 45q0 11 6 19.5t6 13.5q0 14 4 23q18 40 30 46q-4 9 -4 19q12 31 12 55q0 16 -4 33.5t-4 20.5q0 4 5.5 27.5t5.5 43.5q0 8 4.5 25t4.5 25
q0 4 -11 12t-11 18l-1 140q0 31 11 45q-6 8 -6 48q0 29 10 47q0 13 -15 35q-6 9 -6 27q0 10 2.5 21.5t2.5 14.5q0 11 -9 26t-9 25q0 14 -21 20q-15 4 -15 15q0 8 -4.5 19t-4.5 18q0 20 21 24q15 3 33 3q16 0 36.5 -6t23.5 -6q7 0 35 3.5t54 3.5q32 0 37 -8q10 -15 10 -27z
" />
    <glyph glyph-name="K" unicode="K" horiz-adv-x="702" 
d="M716 19q0 -13 -10.5 -22t-24.5 -9q-2 0 -14.5 2t-15.5 2q-2 0 -17.5 -2t-18.5 -2q-10 0 -19 4q-37 17 -44 17q-3 0 -20 -4.5t-24 -4.5q-26 0 -26 20q0 -5 10 21q4 10 4 13q0 11 -22 35.5t-43 33.5q-11 5 -25 23q-11 15 -13 23q-3 12 -12.5 21.5t-46.5 38.5q-15 12 -15 25
q0 10 -5.5 12.5t-10 9t-9.5 8.5q-13 6 -24 18t-21 12q-40 0 -40 -40q0 -2 1.5 -7.5t1.5 -6.5q3 -14 3 -39q0 -3 1 -14.5t1 -16.5q0 -2 -1.5 -9.5t-1.5 -8.5q0 -5 2 -30t2 -31.5t7.5 -14.5t7.5 -13q0 -29 41 -54q6 -3 6 -12q0 -20 -28 -20q-5 0 -27.5 6t-44.5 6q-11 0 -44 -7
t-56 -7q-7 0 -14.5 7t-7.5 14q0 15 29 31q19 11 19 86q0 38 -2 54q13 33 13 63q0 17 -5.5 34.5t-5.5 20.5t3.5 10t3.5 9q0 5 -3.5 11t-3.5 7q0 2 3 11.5t3 11.5q0 5 -3.5 8.5t-3.5 24.5q0 38 5 65q8 44 8 43q0 5 -8 23.5t-8 31.5q0 5 1 12.5t1 11.5q0 40 -40 93q-8 11 -8 28
q0 27 29 27l22 -1.5t37 -1.5q1 0 20.5 3t25.5 3q4 0 13 -2t12 -2q2 0 20.5 2t28.5 2q4 0 9.5 -11.5t5.5 -16.5q0 -11 -38 -38q-14 -10 -14 -19q0 -5 1 -21v-20q0 -16 -4 -35.5t-4 -18.5q0 -4 4 -19.5t4 -23.5q0 -20 -13 -43q-2 -9 -2 -28q0 -26 26 -26q14 0 26 14
q71 85 99 85q4 0 7 -1q41 66 78 84q14 7 36 25q8 7 8 24q0 20 -23 44q-11 12 -11 20q0 20 22 20q3 0 17 -2.5t16 -2.5q12 0 28.5 4t17.5 4q2 0 23 -6t34 -6q12 0 35.5 6t30.5 6q31 0 31 -36q0 -14 -6 -28q-13 -9 -44 -9q-20 0 -36 -18q-9 -10 -50.5 -47t-50.5 -43
q-12 -8 -38 -14q-11 -3 -23 -21q-14 -23 -53 -46q-21 -13 -26 -20q-8 -11 -22 -19q-25 -14 -25 -43q0 -12 12 -23t25 -14q8 -3 11.5 -8.5t27.5 -19.5t37 -34q15 -23 31 -34q25 -17 74 -87q14 -20 39 -20q9 0 18 -12q43 -60 62 -69q39 -19 39 -50z" />
    <glyph glyph-name="L" unicode="L" horiz-adv-x="555" 
d="M555 73q0 -1 -2.5 -13.5t-2.5 -24.5q0 -2 1 -9t1 -10q0 -6 -12 -12q-20 -7 -47 -7q-2 0 -37.5 2.5t-38.5 2.5q-15 0 -42.5 -6t-41.5 -6q-37 0 -51 3q-61 13 -66 13t-30 -7t-31 -7q-2 0 -15 2t-15 2t-10.5 -1.5t-10.5 -1.5q-40 0 -40 16q0 12 21.5 32t29.5 53q1 3 -1 13
q3 9 3 10q0 3 -1.5 11.5t-1.5 12.5q0 6 4 13q11 21 11 24q0 15 -13 47q-7 17 -7 32q0 2 4 21.5t4 20.5q0 3 -1.5 8.5t-1.5 7.5t2.5 15t2.5 17q0 8 -3 36t-3 35q0 3 4 17t4 21v6q-1 6 -1 9t2 13t2 12l-2.5 20.5t-2.5 30.5q0 6 1.5 23t1.5 21q0 3 -2.5 14t-2.5 19q0 13 -31 35
q-7 5 -12.5 17t-5.5 16q0 23 16 23h53q7 0 22.5 -5.5t17.5 -5.5q5 0 31.5 8.5t44.5 8.5q39 0 39 -23q0 -6 -16 -24t-30 -28q-1 -18 -8.5 -50t-7.5 -37q0 -7 3.5 -21.5t3.5 -19.5q0 -17 -9 -49.5t-9 -38.5q0 -11 22 -28q-6 -62 -6 -118q0 -14 4.5 -32t4.5 -22q0 -30 -6 -65
t-6 -41q0 -13 10.5 -29t19.5 -20q35 -17 182 -17q13 0 29 22q23 32 26 61q1 7 8.5 14t14.5 7q13 0 22 -9.5t9 -20.5q0 -1 -1.5 -6t-1.5 -7q0 -9 2.5 -27t2.5 -19z" />
    <glyph glyph-name="M" unicode="M" horiz-adv-x="925" 
d="M880 686q0 -19 -15 -26q-20 -9 -28 -19q-11 -14 -11 -44q0 -9 5 -29.5t5 -29.5q0 -8 -8 -23t-8 -29v-39q0 -24 -6 -61t-6 -56q7 -8 7 -110q0 -5 -4.5 -21t-4.5 -25q0 -2 1 -9t1 -9t2.5 -6.5t2.5 -6.5t-1 -10.5t-1 -12.5q0 -3 2 -10t2 -9q0 -3 -1.5 -16.5t-1.5 -17.5
q0 -10 25 -28q13 -9 13 -15q0 -29 -30 -29l-9.5 1t-15.5 1q-54 0 -94 -3.5t-38 -3.5q-32 0 -32 20q0 15 10 20q46 25 46 61q0 3 -4.5 30.5t-4.5 29.5q0 31 2 37q6 19 6 26v85q0 2 1.5 9.5t1.5 10.5q0 9 -2.5 12.5t-2.5 7.5q0 28 7 85t7 54q0 39 -23 39q-10 0 -18 -13t-8 -22
q0 -29 -17 -57q-24 -39 -24 -67q0 -3 -8 -19.5t-9 -22.5q-2 -11 -16 -33q-11 -27 -34 -67q-7 -7 -24 -49.5t-24 -69.5q-2 -8 -13 -20q-19 -21 -19 -39q0 -35 -23 -35q-13 0 -14 11q-2 19 -8 31q-14 28 -16 54q-1 19 -11 41t-48 77q-33 47 -41 80l-6 32q-5 25 -15 33
q-23 18 -32 47q-6 20 -18 30q3 6 3 10q-21 21 -30 45q-6 16 -31 16q-10 0 -10 -15q0 -1 5 -11q0 -31 1 -34q5 -17 5 -20q0 -2 -3.5 -11t-3.5 -13q-1 -20 -1 -39q0 -4 2.5 -20.5t2.5 -22.5q0 -63 7 -121q5 -42 5 -50q0 -11 -3 -26t-3 -18q0 -21 17 -41q40 -46 40 -57
q0 -20 -37 -20q-1 0 -21.5 3t-29.5 3t-32.5 -2t-24.5 -2q-25 0 -25 17q0 7 13 19q33 30 33 50q0 5 3 22.5t3 24.5q0 87 8 113q2 7 2 11q0 3 -2 19q-7 56 -7 72q0 3 1.5 11t1.5 13q0 7 -1 19.5t-1 15.5q0 4 2 13t2 12q0 13 -5 26.5t-5 15.5q0 15 8.5 36t8.5 28q0 8 -9 23
l6 11q-5 0 -16 23.5t-11 29.5q0 43 -25 43l-32 18q-3 8 -3 19q0 33 34 33q3 0 16.5 -3t15.5 -3t10 1.5t11 1.5q5 0 15.5 -4t14.5 -4h53q15 0 31.5 3.5t17.5 3.5q23 0 23 -24q0 -5 -2.5 -13.5t-2.5 -12.5q0 -30 13 -61q2 -11 7 -29q1 -3 20 -34q17 -38 61 -120
q21 -33 45 -136q13 -54 60 -54q14 0 28 13t17 30q1 6 15 27q11 12 12 19q0 41 8 58q4 8 6 26.5t7 27.5q9 15 14 40q1 3 9 10t8 10q0 16 6 26q43 71 49 111q11 74 47 74q6 0 27 1t27 1t28 -5t33 -5q2 0 11.5 1.5t12.5 1.5q20 0 25 -2q10 -5 10 -22z" />
    <glyph glyph-name="N" unicode="N" horiz-adv-x="768" 
d="M744 705q0 -25 -37 -35q-26 -41 -37 -75v-58q0 -7 1 -43v-46q0 -57 -6 -69q0 4 3 -17q-3 -10 -3 -31q3 -16 3 -33q0 -6 -2.5 -22t-2.5 -22q0 -19 4 -71t4 -67q0 -11 -1.5 -31t-1.5 -23q0 -9 1 -23v-18q0 -15 -7.5 -27t-16.5 -12q-28 0 -39 12q-5 5 -18 36q-7 15 -28 41
q-110 133 -145 168q-18 18 -18 23q0 7 4 14q-10 24 -19 32q-1 1 -15 8q-6 3 -8 14q-8 0 -64 60q-12 19 -42 59q-27 30 -27 35t-13.5 16t-20.5 11q-17 0 -17 -27q0 -21 9 -35q-4 -8 -4 -33q0 -24 3 -35q-19 -33 -19 -78q0 -5 2.5 -18t2.5 -19q3 -34 3 -111q0 -29 4 -43
q9 -32 33 -45q8 -4 16.5 -17t14.5 -15q35 -11 36 -11q19 -9 19 -27q0 -6 -11.5 -10.5t-16.5 -4.5q-2 0 -24 8q-8 3 -21 3q-2 0 -25.5 -2t-26.5 -2q-6 0 -10 4q-7 5 -12 5h-32q-6 0 -17 -1t-13 -1q-36 0 -36 17q0 12 6 16q13 8 16 15q12 15 28 45q9 33 9 56q0 8 -3 20.5
t-3 16.5q0 7 4.5 50.5t4.5 70.5q0 5 -2 21.5t-2 26.5q0 3 1 10.5t1 11.5q0 3 -2.5 11.5t-2.5 9.5t1.5 5t1.5 6q0 34 3 53q9 58 4 79q4 6 8 14q-11 26 -11 42q0 50 -5 53q-67 49 -67 66q0 8 8 15t14 7q4 0 16 -4.5t17 -4.5q6 0 38 6q22 4 41 4h70q34 0 34 -26q0 -8 -7 -26
q-9 -22 -9 -54q19 -14 28 -30q24 -44 62 -78q25 -22 26 -31t8 -22q22 -17 27 -22q11 -11 15 -22q7 -20 18 -27q23 -15 29 -33q3 -10 22 -25q13 -10 16 -23.5t24 -32.5q46 -41 55 -41q3 0 9.5 9.5t6.5 15.5q0 4 -1.5 15.5t-1.5 17.5q0 2 7 26.5t7 42.5q0 4 -3.5 30.5
t-3.5 52.5q0 2 -2.5 6.5t-2.5 7.5q0 2 1.5 8t1.5 9v40q0 16 4 36q-12 22 -12 32q0 13 4 31q-5 5 -5 27q0 27 -28 35q-47 14 -47 30q0 9 5 20q17 8 92 8q7 0 32 -4t43 -4q15 0 30.5 -9.5t15.5 -19.5z" />
    <glyph glyph-name="O" unicode="O" horiz-adv-x="840" 
d="M802 410q0 -4 -3 -12t-4 -11q-2 -13 0 -38q2 -33 2 -39q0 -31 -3 -39q-6 -15 -14 -38q-35 -116 -164 -200q-39 -25 -92 -31q-70 -8 -172 -8q-22 0 -70 19t-58 29q-22 22 -51 41q-2 2 -8 14q-8 17 -35 43q-15 14 -29 39q-2 4 -36 49q-5 7 -12 27q-15 45 -15 78q0 3 5 13
t5 12q0 9 -5 26.5t-5 25.5q0 7 13 41q15 40 17.5 49.5t18 27t18.5 23.5q27 55 65 81q9 6 25 21q12 11 16 11q16 0 36 20q7 7 35 7q3 0 21 9.5t24 9.5q-5 0 58 3q7 0 12 3.5t34 3.5q123 0 181 -33q46 -26 76 -78q23 -40 64 -71q16 -12 20 -32t12 -35q18 -35 18 -61zM671 306
q0 6 -7 40.5t-7 57.5q0 2 3 20t3 22.5t3.5 14t3.5 14.5q0 16 -20 37t-38 28q-13 5 -17 25q-5 25 -54 61q-11 8 -27.5 31.5t-76.5 23.5t-120 -37q-23 -14 -77 -84q-9 -10 -11 -40q-2 -26 -21 -47t-19 -46q0 -16 6 -20q12 -9 12 -27q0 -4 -3 -19.5t-3 -18.5q0 -10 1 -31v-31
q0 -5 3 -21t3 -17q0 5 -3 -17q-2 -16 2 -26q14 -25 38 -74q10 -20 31 -27q14 -4 36 -14q30 -22 80 -22q8 0 26.5 -10.5t24.5 -10.5q28 0 43 9q31 11 73 33q12 13 38 34q33 21 34 30q2 21 14 44q-2 12 -2 17q0 10 9 40t17 43q2 3 2 15z" />
    <glyph glyph-name="P" unicode="P" horiz-adv-x="603" 
d="M574 480q0 -26 -18 -42q-9 -7 -22 -23q-16 -35 -42 -45q-4 -2 -13 -8q-19 -14 -66 -14q-2 0 -31.5 -3t-32.5 -3q-7 0 -24.5 2t-25.5 2q-29 0 -41 -6q-15 -15 -15 -33q0 -5 7 -27t7 -37q0 -21 -9.5 -40.5t-9.5 -18.5q0 -8 16 -15q11 -5 11 -25q0 -4 -6 -23.5t-6 -31.5
t19 -32.5t33.5 -28.5t14.5 -15q0 -10 -13 -18.5t-32 -8.5t-51.5 10.5t-45.5 10.5q-7 0 -22 -4.5t-24 -4.5q-14 0 -27.5 -5.5t-17.5 -5.5q-19 0 -19 26q0 7 20 22q39 29 39 50q0 12 -4.5 35.5t-4.5 36.5q0 16 3 42t3 34q0 15 -5.5 43t-5.5 46q0 4 4 12.5t4 11.5q0 1 -1.5 5.5
t-1.5 6.5q0 3 1.5 8.5t1.5 7.5q0 4 -4 15.5t-4 19.5q0 1 5 18t5 32l-3.5 34t-3.5 48q0 4 2 20t2 19t-1.5 15t-1.5 16q0 51 -39 67q-32 13 -32 27q0 20 5.5 28t24.5 8q29 0 54 -14q28 10 60 9q70 -3 92 -3q10 0 36 2.5t36 2.5q35 0 69 -9q31 -9 39.5 -18.5t21.5 -15
t23.5 -22.5t34.5 -39q32 -29 32 -101q0 -26 -1 -31q0 -4 1 -12v-10zM468 525q0 10 -12 21t-12 18.5t-10 16.5q-1 6 -1 21.5t-10 23.5t-13 15q-4 11 -21 21.5t-35 10.5q-5 0 -25 2t-27 2q-50 0 -50 -44q0 -3 4.5 -21t4.5 -29q0 -18 -10 -39.5t-10 -28.5q0 -4 9 -16t9 -21
q0 -6 -2.5 -19.5t-2.5 -19.5q0 -27 61 -39q51 -10 46 -10q3 0 11.5 5t11.5 6q21 4 34 22q16 23 21 52q3 15 16 29.5t13 20.5z" />
    <glyph glyph-name="Q" unicode="Q" horiz-adv-x="830" 
d="M792 33q0 -18 -2 -52q-17 -26 -21 -26t-19.5 1t-24.5 1q-2 0 -18 -2t-19 -2q2 0 -20 7q-29 9 -63 12q-5 0 -17 3.5t-18 3.5q-19 0 -44 -5t-30 -5q-20 0 -60 3.5t-60 3.5q-33 0 -47.5 4.5t-18 4.5t-18.5 10t-20 10q2 0 -31 21q-91 58 -141 170q-8 8 -19 28
q-1 7 -10.5 16.5t-11.5 16.5q-7 22 -21 57q6 0 6 19q0 5 -2 24t-2 26q0 67 21 139q6 20 16 31q14 13 16 18q9 18 35 41q13 12 23 27q3 5 17 11.5t19 12.5q18 19 77 37q12 5 22 15q42 13 114 13q7 0 27 3t22 3q3 0 15.5 -2.5t14.5 -2.5t6.5 1t7.5 1q21 0 47 -16
q34 -21 46 -21q19 0 53 -25q30 -21 53 -46q10 -11 34 -29q6 -22 15 -31q22 -22 22 -31v-25q0 -5 7.5 -17t7.5 -16t-1 -12t-1 -13q0 -2 1.5 -9t1.5 -11v-40q0 -4 1.5 -11.5t1.5 -9.5t-2.5 -9.5t-2.5 -11.5v-53q0 -7 -4.5 -24.5t-4.5 -22.5q0 -18 -19 -46.5t-19 -45.5
q0 -22 -50 -48q-7 -4 -19 -15t-12 -15q0 -15 45 -15q3 0 23 8.5t24 8.5q12 0 40 -21q11 -8 11 -25zM666 344q0 15 -5 27q-4 0 -9 22.5t-5 39.5q0 42 -11 64q-9 18 -33 76q-9 22 -23 22q-10 0 -15 13q-1 3 -15 17q-40 40 -63.5 53t-53.5 13q-84 0 -112 -28q-7 -7 -20.5 -13.5
t-26.5 -25.5q-5 -7 -18 -14q-3 -2 -4.5 -9.5t-6.5 -11.5q-11 -8 -25 -22q-10 -28 -10 -25q0 -8 -6 -14q-7 -15 -26 -39q-6 -6 -6 -28q0 -6 6.5 -19t6.5 -19q0 -5 -4.5 -28t-4.5 -39q0 -2 1 -8t1 -7q0 -6 -5.5 -20t-5.5 -27q0 -4 8.5 -14t8.5 -16q0 -27 9 -58q3 -9 12 -21
t12 -22q14 -44 53 -66q15 -8 41 -30.5t40 -30.5q40 -6 66 -6q3 0 21 1t20 1q19 0 49 14q38 18 62 45q16 18 26 43.5t50 90.5q0 5 -4.5 8.5t-4.5 5.5q0 5 4 12t4 11q1 10 6 28q16 31 16 54z" />
    <glyph glyph-name="R" unicode="R" horiz-adv-x="601" 
d="M560 74q0 -24 -25 -41.5t-52 -17.5q-29 0 -38.5 7.5t-15.5 26.5q-2 1 -8 1q-7 22 -21 55q-3 5 -3 19q-7 5 -8 12q-4 16 -11 47q0 76 -9 90q-17 27 -49 59q-20 6 -54 6q-56 0 -56 -29q0 -1 8 -20.5t8 -42.5q0 -20 -8 -38t-8 -25q21 -13 22 -43l2 -52q1 -23 58 -47
q14 -6 14 -19q0 -19 -31 -19q-11 0 -43.5 4.5t-50.5 4.5q-21 0 -56.5 -6.5t-45.5 -6.5q-25 0 -33 10v19q58 26 58 85q0 11 -3 21q5 20 5 32v22q-1 16 -1 22q0 41 8 55q1 4 -1 12t-2 11q0 2 2.5 9.5t2.5 10.5t-4.5 16t-4.5 23q0 6 3.5 19t3.5 17q0 7 -3 24t-3 26q0 4 2.5 24
t2.5 22q0 21 -5.5 61t-5.5 61q0 36 -3.5 48.5t-15.5 17.5q-23 9 -30.5 17.5t-7.5 30.5q12 15 47 15q5 0 26 -4t33 -4q-1 0 34.5 1.5t54.5 1.5q45 0 92 -4t43 -4q16 0 48 -14.5t50 -30.5q76 -68 76 -148v-20q0 -31 -12 -46q-15 -19 -43 -60q-18 -26 -47 -26q-21 0 -21 -13
t21 -22q14 -6 23 -35q8 -25 8 -48q0 -19 7.5 -70t13.5 -68q15 -24 40 -24q22 0 22 -18zM438 504q0 12 -7 24t-7 25q0 3 1 8.5t1 7.5q0 7 -12.5 23.5t-12.5 23.5q-19 14 -27 28q-5 9 -41 16t-75 6q-7 0 -17 -10t-10 -23q0 -27 -12 -58.5t-12 -27.5q0 -3 11 -12q13 -13 13 -27
q0 -6 -2.5 -15.5t-2.5 -13.5q0 -56 36 -70q17 -7 84 -7q26 0 58 27q7 6 11.5 20t6.5 16q16 21 16 39z" />
    <glyph glyph-name="S" unicode="S" horiz-adv-x="594" 
d="M541 183q0 -47 -47 -99.5t-88 -52.5q-2 0 -14 -8t-18 -8h-27q-40 0 -62 -6q-36 -10 -46 -10q-26 0 -107 27q-36 12 -50 12q-8 0 -11.5 2.5t-12.5 11.5q1 6 -1 15q-7 9 -7 15q0 3 2 7.5t2 8t1.5 17t1.5 15.5q0 9 -8 29t-8 39q0 8 9 14t17 6q19 0 22 -6q9 -20 31 -54
q2 -2 20 -15q22 -16 29 -28q26 -48 126 -48q16 0 35 6q31 9 33 9q7 1 8 9t4 10l19 15q4 3 14.5 25t10.5 29q0 18 -7 40q-8 27 -21 33t-30 15q-31 30 -88 54q-3 15 -6 20q-5 11 -16 12l-17 4q-11 3 -30 3q-2 0 -7 -1t-8 -1q-26 0 -36 14t-20 20q-13 6 -32 23l-22 38
q-15 25 -15 39q0 12 4 45.5t4 44.5q0 25 28.5 48.5t43.5 41.5q8 10 13 14q8 8 16 9q13 1 27.5 10t56.5 9q18 0 40 5q27 6 42 6q26 0 77 1q51 0 49 0q33 0 33 -10.5t13 -21.5q-1 -13 -3 -53q0 -7 13 -22.5t13 -48.5q0 -30 -24 -30q-22 0 -38 26q-15 22 -15 43q-24 8 -72 51
q-20 18 -59 18q-8 0 -27.5 -3.5t-32.5 -3.5q-40 0 -65 -25.5t-25 -69.5q0 -31 8 -45q11 -23 47 -37q46 -18 63 -29q42 -26 74 -42q8 -4 20 -4q3 0 6 1h5q10 0 33 -16q20 -14 32 -28q6 -7 11.5 -25t15.5 -26q37 -37 37 -56q0 -23 6.5 -47.5t6.5 -29.5z" />
    <glyph glyph-name="T" unicode="T" horiz-adv-x="536" 
d="M572 725q0 -8 -2 -22q0 -1 -2.5 -4t-2.5 -5q0 -20 -7 -26q-14 -12 -14 -37q0 -2 2 -13t2 -18q0 -11 -6 -21q-6 -13 -16 -13q-40 0 -45 34q-11 73 -41 72l-86 -4q-21 -1 -21 -56q0 -60 2 -131t2 -69q0 -21 -5 -48.5t-5 -33.5q0 -13 7 -36t7 -29q0 -1 -1.5 -9t-1.5 -13
q0 -3 1.5 -11t1.5 -13q0 -3 -2.5 -14.5t-2.5 -16.5q0 -23 5 -38q-9 -13 -9 -30q0 -44 81 -85q27 -14 27 -29q0 -18 -24 -18q-26 0 -93 6.5t-103 6.5q-28 0 -39 -5.5t-16 -5.5q-19 0 -29 10q0 15 7.5 24.5t39.5 28.5q25 15 25 47q0 3 -1.5 23.5t-1.5 36.5q0 12 1 43
q2 38 2 63q-6 36 -6 70q0 -2 2.5 37.5t2.5 59.5q0 6 2 18t2 15q0 1 -4.5 17.5t-4.5 30.5q0 34 6 44q-5 28 -5 51t-7.5 33.5t-22.5 10.5q-61 0 -107 -9q-9 -2 -35 -39t-32 -37q-12 0 -20.5 11t-8.5 21q0 4 9 26t9 30q0 19 -6 45q-4 4 -8 12.5t-4 24.5q0 22 30 22
q7 0 40 -11.5t63 -11.5q2 0 24.5 1.5t25.5 1.5q15 0 45 -5t45 -5q5 0 18.5 2t19.5 2q15 0 37 3q38 5 60 5q37 0 46 -11q21 1 62 16t54 15q32 0 32 -37z" />
    <glyph glyph-name="U" unicode="U" horiz-adv-x="766" 
d="M752 721q0 -12 -21 -35q-6 -6 -13 -10q-18 -9 -46 -52q-10 -15 -10 -35q0 -4 1.5 -12.5t1.5 -12.5t-2 -18.5t-2 -19.5q0 -27 -7 -52q4 -20 4 -32q0 -3 -2 -15.5t-2 -19.5q0 -14 4 -41t4 -41q0 -68 -6 -100t-6 -59q0 -56 -29 -75q-38 -25 -57 -50q-8 -5 -16 -7
q-9 -12 -33.5 -22.5t-47.5 -10.5h-126q-4 0 -14.5 -1t-12.5 -1t-7.5 2t-7.5 2h-21q-8 0 -13.5 3.5t-16.5 6.5q-30 8 -51 24q-10 4 -28 22q-9 15 -22 25t-18 36q0 3 -4 11t-4 13t1 15t1 12q0 25 -5 53q-1 39 -13 116q-9 30 -9 34t2.5 27t2.5 28q0 7 -3.5 30.5t-3.5 28.5
q0 9 6.5 32.5t6.5 38.5q0 44 -23 104q-3 3 -10 6q-28 11 -40 22q0 2 -1 7t-1 8q0 8 9 15t18 7q6 -2 9 -2q12 0 37.5 5.5t35.5 5.5q2 0 10 -1t11 -1t14 4t15 4q-1 0 49 -10.5t77 -10.5q8 0 14.5 -8.5t6.5 -16.5q0 -13 -12 -19q-3 -2 -37 -12q-22 -7 -25 -22q-1 -8 -12.5 -17
t-14.5 -14t-15 -44t-12 -46q0 -14 14 -35q2 -3 2 -33q0 -2 1 -7.5t1 -7.5q-6 -17 -6 -26q0 -24 3 -57.5t3 -40.5q0 -15 -5 -29t-5 -20q0 -22 7.5 -52.5t7.5 -35.5t4 -5q8 0 8 -19q0 -6 8.5 -17t15.5 -14.5t23 -17.5q27 -35 63 -35h107q38 0 73 28q30 24 30 37q0 5 10.5 23
t10.5 31q0 1 -3.5 10t-3.5 17q0 29 17 46q0 38 3 45q7 17 7 21t-3 8q0 22 -3 33q-14 49 -14 52l4.5 29t4.5 43q0 10 -5.5 31l-5.5 21q0 7 1 19v19q0 4 -10 40q-7 25 -17.5 36.5t-44.5 29.5q-20 11 -20 22q0 24 72 24q5 0 19 1.5t16 1.5q11 0 18 -3q13 -6 18 -6t30.5 7.5
t28.5 7.5q1 0 11.5 -1t17.5 -1t17.5 -7.5t10.5 -14.5z" />
    <glyph glyph-name="V" unicode="V" horiz-adv-x="614" 
d="M650 723q0 -19 -42 -41q-17 -9 -33.5 -31t-16.5 -38q0 -5 -8 -18t-8 -16q0 -6 -8.5 -13t-9.5 -12.5t-1 -10.5q0 -24 -19 -43q-7 -10 -14 -34q-9 -27 -9 -40q-23 -41 -25 -52q-11 -61 -21 -84q-2 -4 -31 -54q-19 -32 -19 -58q-10 -8 -27 -89q-21 -100 -56 -100
q-37 0 -50 64l-8 40q-8 27 -8 43q0 22 -4.5 26.5t-4.5 8.5q0 2 1.5 7.5t1.5 6.5q0 6 -14 28t-15 34q-10 16 -17 38q-15 13 -15 23l5 11t5 20q0 18 -33 55q-11 12 -11 26t-12 37.5t-17 23.5t-14 22q-7 19 -9 30q-1 7 -9 20t-8 15q1 20 -9 32q-18 22 -24 58q-15 4 -18 10
q-7 14 -17 14t-17 12q-19 10 -19 24q0 22 44 22q3 0 22 2t30 2t27 1h26q3 0 27 3.5t36 3.5q47 0 65 -22q3 -12 3 -24q0 -10 -32 -28q-4 -9 -17 -30q-6 -8 -6 -22q15 -57 41 -114q4 -9 6 -17q3 -14 10 -26q20 -35 20 -48q0 -46 53 -165q6 -14 17 -14q7 0 18 13.5t17 36.5
q4 9 13 32q14 31 33 95q4 25 22 64q6 23 27 64q7 9 7 30q0 11 6 23t6 36q0 25 -23 38q-33 19 -33 36q0 21 23 33q16 2 37 2q6 0 26 -1t24 -1q11 0 45 4.5t38 4.5q11 0 20.5 -9t9.5 -20z" />
    <glyph glyph-name="W" unicode="W" horiz-adv-x="872" 
d="M884 686q-4 -9 -24 -27q-66 -58 -66 -125q0 -14 -5 -26q-13 -31 -22 -68q-5 -22 -20 -45.5t-31 -77.5q-18 -61 -29 -84q-9 -18 -9 -32q-22 -37 -22 -83q0 -23 -18 -49q-15 -22 -15 -42q0 -46 -36 -46q-11 0 -21 11.5t-10 31.5q0 47 -18 62q-5 4 -12.5 17t-7.5 18
q0 10 -8 21t-8 16q0 12 -17 24q2 5 6 13q-21 13 -21 37q0 17 -10 31.5t-21 14.5q-22 0 -26 -26q-3 -11 -13 -27q-22 -35 -22 -84q0 -30 -27 -68q-16 -22 -25 -38q0 -52 -32 -52q-13 0 -22 9.5t-9 19.5q0 14 -8 29t-8 30t-12 32t-12 29q0 40 -35 98q-18 30 -20 48
q-1 5 -4 16.5t-3 16.5q0 35 -12 54q-45 73 -49 108q-1 11 -4 18q-19 50 -24 77q-4 20 -19 46t-20 40q-3 8 -24 18q-9 4 -18 9t-13 14q-1 3 -13 22q-8 14 -8 23q9 15 31 15q10 0 32.5 -5.5t32.5 -5.5q3 0 26 1t25 1t13 -2.5t14 -2.5q7 0 34.5 4.5t42.5 4.5q24 -27 24 -44
q0 -9 -6 -19.5t-15 -10.5q-12 0 -22 -14t-10 -29t13 -45q18 -42 36 -118q1 -1 3.5 -3t3.5 -3q0 -16 15 -38q-6 -10 -6 -27q0 -18 15 -44q17 0 22 -11q16 -33 16 -63q0 -7 -2.5 -21.5t-2.5 -19.5q4 -3 9 -8q28 4 45 10q6 13 20 31q10 6 13 20q31 21 31 26q0 3 -3 11.5
t-3 10.5q0 4 4.5 16.5t4.5 15.5q0 33 -21 68q-3 5 -3 11q0 10 -9 19t-14 52q-4 32 -32 67q-17 21 -20 38q-5 29 -26 46q-38 31 -38 45q0 28 37 28q5 0 19 -4t18 -4q17 0 27 8q38 5 45 5q27 0 66.5 -9t55.5 -9q2 0 11 1h12q2 0 12.5 -2.5t13.5 -2.5q7 0 27.5 5.5t25.5 5.5
q16 0 24 -13.5t8 -27.5q0 -13 -13 -21q-6 -4 -32 -13q-35 -13 -43 -51q-12 -54 -34 -90q-19 -31 -19 -58q0 -17 12 -39l21 -35q5 -10 5 -48q0 -51 26 -59q9 -43 30 -43q16 0 44 57q24 50 30 79q21 104 67 175q0 19 3.5 44.5t3.5 31.5q0 29 -17 44q-14 12 -51 23q-4 8 -4 16
q0 26 38 26q8 0 30 -5t31 -5q21 0 47.5 7t25.5 7q24 0 24 -33q0 -23 7 -24zM515 654q0 29 -29 29q-32 0 -51 -13q-3 -7 -3 -19q0 -13 11.5 -27.5t11.5 -42.5q0 -32 21 -32q14 0 18 19q8 37 14 42q0 10 3.5 24.5t3.5 19.5z" />
    <glyph glyph-name="X" unicode="X" horiz-adv-x="652" 
d="M659 5q0 -8 -12.5 -16.5t-21.5 -8.5q-6 0 -26.5 5t-31.5 5q-7 0 -20 -1.5t-15 -1.5q-9 0 -28 11t-40 11q-5 0 -28.5 -5t-29.5 -5q-9 0 -20 4q-15 6 -15 16q0 9 11.5 23t11.5 31q0 44 -23 74q-13 17 -13 23q0 12 -15 34q-22 33 -29 56q-4 3 -20 3q-19 0 -27 -5.5
t-15 -24.5q-8 -22 -39 -68q-19 -14 -23.5 -27t-4.5 -52q0 -7 16 -22q30 -28 30 -37q0 -24 -35 -24q-2 0 -12 2t-13 2q-8 0 -22 -4t-21 -4q-2 0 -22.5 3t-38.5 3q-12 0 -34.5 -6t-34.5 -6q-27 0 -27 20q14 12 19 20q37 4 77 43q37 36 100 127q28 6 28 22t48 71q15 17 15 27
q0 27 -13 42t-19 30q-18 26 -43 80q-5 20 -42 68q-6 12 -23 33q-7 5 -15 34q-5 20 -29 37q-72 52 -72 67q0 23 30 23q2 0 5.5 -1t4.5 -1q3 0 13 2.5t12 2.5h87q4 0 22 -1.5t20 -1.5t16 2t16 2q13 0 26.5 -6.5t13.5 -18.5q0 -10 -16.5 -28.5t-16.5 -45.5q0 -18 5.5 -27.5
t5.5 -16.5q0 -15 6.5 -24.5l13.5 -19.5q9 -23 30 -69q2 -5 15 -16t17 -11q3 0 14.5 10t15.5 18q6 12 20.5 27t17.5 22q13 29 24 33q3 1 3.5 9.5t6 14t5.5 15.5t5.5 22t5.5 17t-15 22q-21 23 -21 45q0 12 10 19t21 7q-3 0 43 -1.5t74 -1.5q4 0 20.5 1t24.5 1q48 0 48 -27
q0 -17 -8 -19q-24 -7 -40 -18t-63 -34q-2 -16 -18 -30t-39 -56q-4 -7 -19 -22q-11 -7 -12 -20q-2 -19 -13 -30q-22 -22 -22 -39q-11 -6 -22.5 -24.5t-11.5 -33.5q6 -20 27.5 -58t34.5 -54v-12l9 -4q13 -69 60 -108q11 -9 22 -32q6 -13 9 -17q6 -9 13 -11t13 -11t24 -23
t28 -17q36 -10 36 -33z" />
    <glyph glyph-name="Y" unicode="Y" horiz-adv-x="604" 
d="M609 687q0 -14 -19 -26q-23 -15 -31 -28q-41 -70 -91 -133q-3 -13 -15 -35q-12 -13 -36 -53q-12 -3 -21 -34q-1 -5 -9.5 -16t-8.5 -17q0 -108 -4 -145t-4 -30q0 -8 3 -17q14 -42 18 -84q1 -16 23 -34q32 -27 32 -35q0 -30 -40 -30q1 0 -39 8.5t-79 8.5q-12 0 -29 -4.5
t-25 -4.5q-27 0 -27 16q0 9 22 27q35 29 35 67q0 4 -4 14.5t-4 14.5q0 2 2 48.5t2 68.5q-3 0 -3 12q0 4 1.5 16t1.5 15q0 12 -3 25q4 10 4 12q-4 18 -23 42q-22 28 -22 49q0 16 -26 26q0 15 -7.5 15t-18.5 25q-6 15 -21 28q-7 6 -7 21q-14 11 -31 32.5t-17 31.5
q-14 8 -38 31.5t-29.5 38t-25.5 25.5q-39 21 -39 28q0 25 43 25q31 0 71.5 -4t49.5 -4q11 0 31.5 7.5t34.5 7.5q45 0 45 -39q0 -1 -11.5 -17.5t-11.5 -23.5q0 -9 10.5 -22.5t10.5 -50.5q0 -13 20 -31q16 -14 20 -37q3 -15 14 -15q7 0 18 -9.5t15 -23.5q11 -36 32 -36
q12 0 26 37q15 0 15 18q0 15 17 27q14 10 14 19t20 36q24 32 24 64q0 19 -18 30q-26 16 -26 39q0 10 12 25q56 4 94 4q48 0 63 -7q20 -9 20 -39z" />
    <glyph glyph-name="Z" unicode="Z" horiz-adv-x="592" 
d="M548 76q0 -24 -3 -44q-4 -27 -10 -34t-29 -7q-2 0 -24.5 3t-25.5 3q-2 0 -33.5 -1t-34.5 -1q-5 0 -17 6.5t-22 6.5q-6 0 -27 -5.5t-35.5 -5.5t-40.5 -4t-32 -4q-5 0 -21 3t-20 3q-5 0 -14 -1h-13.5h-10.5q-6 1 -9 1q-7 0 -24.5 -4.5t-22.5 -4.5q-38 0 -38 36q0 15 17 35
q12 15 26 37q5 8 5 18q24 26 24 51q40 36 40 50q0 9 6.5 20l6.5 11q0 5 -5 15q33 10 40 50q3 20 15 28q3 2 9 20q16 36 31 50t22.5 33.5t12.5 25.5q16 19 44 83.5t28 82.5q0 19 -16 19q-6 0 -23.5 -3.5t-22.5 -3.5q-3 0 -21.5 2.5t-32.5 2.5q-33 0 -49 -7q-23 -10 -42 -10
q-3 0 -13 1.5t-12 1.5q-13 0 -14 -8q-3 -20 -17 -36q-7 -6 -17 -18q-12 -20 -22 -20q-5 0 -24 7q-5 15 -5 27q0 3 4.5 24t4.5 32q0 8 -1.5 27t-1.5 20q0 27 27 27q8 0 23 -4.5t24 -4.5q4 0 23.5 2.5t25.5 2.5q2 0 39.5 -1t49.5 -1q31 0 61.5 1t35 1t17 2.5t14.5 2.5
q3 0 20 -2.5t19 -2.5t13.5 1.5t13.5 1.5q3 0 12 -1.5t11 -1.5q3 0 16 1.5t15 1.5q43 0 43 -38q0 -14 -16 -36q-10 -12 -20 -36q-3 -39 -14 -45q-30 -17 -56 -80q-14 -34 -34 -44q-7 -3 -7 -10v-34q0 -23 -22 -47q-13 -15 -37 -48q-28 -39 -28 -48q0 -3 4.5 -10t4.5 -9
q0 -13 -5 -18q-27 -29 -39 -71q-4 -14 -15 -27t-11 -22q0 -20 25 -34q32 -4 50 -4q2 0 17.5 1t18.5 1q2 0 12 -1.5t12 -1.5q1 0 46 5q7 1 22 13t20 23q30 59 47 59q32 0 32 -78z" />
    <glyph glyph-name="bracketleft" unicode="[" horiz-adv-x="389" 
d="M354 706q0 -28 -23 -28q-8 0 -25 2t-23 2q-81 0 -81 -38q0 -12 4 -40.5t4 -33.5q0 -4 -3.5 -31t-3.5 -40.5t-1.5 -47t-1.5 -44.5q0 -3 1 -13t1 -14q0 -13 -2 -32.5t-2 -21.5t2.5 -10t2.5 -11t-2 -19.5t-2 -25.5q-1 -38 -1 -65q0 -5 3 -13q-6 -18 -6 -33q0 -3 3 -57.5
t3 -92.5q0 -9 5.5 -25.5t5.5 -21.5q0 -44 24 -52q5 4 14 4q6 0 14.5 -2t9.5 -2q9 0 26 5.5t22 5.5q9 0 17.5 -12t8.5 -19v-19q0 -5 -13 -10.5t-23 -5.5q-73 0 -94 5t-54 5q-75 0 -75 61q0 7 4 22t4 19q0 1 -4 35t-4 63q0 7 6 25q2 6 2 24q0 3 -2.5 11.5t-2.5 10.5
q0 18 1.5 41.5t1.5 31.5q0 11 -3.5 53t-3.5 66q0 37 5 67q7 42 7 51t-2.5 58.5t-2.5 54.5q0 11 2.5 43t2.5 45q0 97 30 97q3 0 18.5 -1.5t23.5 -1.5q14 2 50 4l7 -5q27 6 83 6q19 0 32 -10q10 -9 10 -20z" />
    <glyph glyph-name="backslash" unicode="\" horiz-adv-x="500" 
d="M457 29q0 -27 -14 -27q-32 0 -36 4q-20 0 -32 17q-41 58 -41 80q0 37 -42 89q-17 21 -55 122q-6 15 -18 41q-5 11 -21 30q-1 7 -4 19q-7 30 -29 65q-33 50 -38 60q-1 2 -1 11t-2 14q-10 25 -31 58q-24 36 -33 55q-18 38 -15 56q1 5 11 12.5t14 7.5q47 0 48 -12
q1 -8 18.5 -28t15.5 -37q32 -65 36 -83t27 -44q8 -9 10.5 -26t12.5 -22q11 -37 32 -86q25 -60 41 -75q1 -9 14 -35.5t22.5 -32.5t9.5 -25q0 -27 30 -42q6 -45 30 -73q15 -17 16 -38t18 -34q6 -5 6 -21z" />
    <glyph glyph-name="bracketright" unicode="]" horiz-adv-x="389" 
d="M300 262q0 -37 -5 -67q-7 -42 -7 -51q0 -60 5 -113q-5 -28 -5 -88q0 -97 -31 -97q-4 0 -19 1.5t-23 1.5q-2 0 -19.5 -1.5t-30.5 -2.5l-7 5q-27 -6 -83 -6q-41 0 -41 29q0 25 23 25q8 0 25 3.5t23 3.5q81 0 81 31q0 12 -4.5 40.5t-4.5 33.5q0 6 3.5 24t3.5 26q0 13 2 57.5
t2 55.5q0 4 -1 14t-1 13q0 13 2 32.5t2 21.5t-3 10t-3 11t2.5 19.5t2.5 25.5q1 38 1 127q0 6 -3 13q6 18 6 33q0 7 -3 43t-3 53q0 9 -6 27t-6 24q0 40 -23 48q-9 0 -23.5 -1.5t-15.5 -1.5q-9 0 -30 1.5t-26 1.5q-17 0 -17 43q0 5 12.5 10.5t22.5 5.5q73 0 94 -5t54 -5
q76 0 76 -61q0 -7 -4 -22t-4 -19v-98q0 -7 -6 -25q-2 -6 -2 -36q0 -2 2.5 -10.5t2.5 -11.5q0 -17 2.5 -40.5t2.5 -33.5t3.5 -52t3.5 -66z" />
    <glyph glyph-name="underscore" unicode="_" horiz-adv-x="500" 
d="M-15 -102q0 7 5 18.5t9 11.5q2 0 14.5 -1.5t15.5 -1.5q14 0 37 2l23 2q7 0 32.5 -3.5t39.5 -3.5q22 5 47 5q24 0 30 -2q10 0 36.5 1.5t28.5 1.5q4 0 26 -2t27 -2q6 0 17 1t13 1q8 0 21 -1h18q8 0 19 1.5t14 1.5t7.5 -1.5t5.5 -1.5q3 0 10 1.5t9 1.5q4 0 19 -9q6 -4 6 -26
q0 -13 -11.5 -16.5t-45.5 -3.5q-20 0 -28 -2q5 0 -80 5q0 -3 -12 -3q-3 0 -20.5 -1.5t-24.5 -1.5q-18 0 -44 4t-29 4q-107 0 -112 -3l-6 5l-22.5 -3.5t-37.5 -3.5q-45 0 -53 9q-4 5 -4 16z" />
    <glyph glyph-name="grave" unicode="`" horiz-adv-x="333" 
d="M29 587q0 -25 19 -37v-2q6 0 10.5 -5.5t9.5 -6.5q17 -7 22 -12l2 1q2 -2 5 -4t12 -6q26 -4 37 -15q7 -7 23 -13q5 -1 13 -7q2 -2 16 -7q9 -9 24 -9q11 0 11 15q0 8 -15.5 22.5t-27.5 19.5q-4 2 -8 10t-11 10q-11 2 -11 10q0 5 -20 19q-5 5 -6 8q-18 7 -31 28
q-3 4 -16.5 9t-19.5 5q-38 0 -38 -33z" />
    <glyph glyph-name="a" unicode="a" horiz-adv-x="344" 
d="M320 50q0 -16 -22 -32t-40 -16q-19 0 -42 10t-25 10q-8 0 -22.5 -12.5t-41.5 -12.5q-33 0 -46 9t-21 13q-4 2 -12.5 31t-8.5 41q0 38 10 48q5 5 5 10.5t5 9.5t5 7q0 21 22 21q6 0 8 2q9 8 37 19q21 8 38 38t17 68q0 31 -19 31q-8 0 -22 -14q-19 -18 -56 -18t-37 19
q0 9 17 33l24 33q5 3 31 12t35 9t42 -10q42 -13 58 -46v-10q11 -43 11 -141q0 -6 -1.5 -44t-1.5 -50q0 -25 35 -38q18 -7 18 -30zM194 103q0 33 -4.5 33t-4.5 9q0 32 -1 48q-2 5 -8 5q-10 0 -28.5 -25t-18.5 -42q0 -59 34 -59q20 0 27 24q4 0 4 7z" />
    <glyph glyph-name="b" unicode="b" horiz-adv-x="446" 
d="M415 189q0 -6 -5 -26.5t-5 -31.5q0 -1 -8 -15.5t-8 -25.5q0 -17 -10.5 -24.5t-29 -27t-29.5 -27.5q-11 0 -19 -7q-20 -17 -63 -17q-27 0 -43 13.5t-31 13.5q-10 0 -24 -16q-7 -11 -20 -11h-14q-12 1 -20 1q-4 0 -18.5 -3t-16.5 -3q-7 0 -16.5 6t-9.5 12q0 10 16 29
q29 34 29 72q0 28 -7 65q8 14 8 25q0 8 -2.5 32.5t-2.5 29.5q0 9 2.5 35.5t2.5 33.5q0 13 -4 31t-4 20q0 4 4.5 19t4.5 22q0 31 -4.5 68t-4.5 40q0 10 2 37q2 29 -20.5 44.5t-22.5 25.5q0 1 1 9.5t1 13.5q4 11 31 20q31 10 60 35q11 9 18 9q10 0 21.5 -10t11.5 -18
q0 -2 -1.5 -26t-1.5 -38q0 -8 3.5 -24t3.5 -23q0 -23 -14 -67q-3 -9 -3 -27q0 -3 3 -10.5t3 -11.5q0 -6 -3 -18t-3 -17q0 -18 14 -18q7 0 33.5 10t43.5 10q14 0 32.5 -5t26.5 -5t21 -9.5t20 -10.5q0 -3 10.5 -8.5t23 -19.5t14.5 -23.5t11 -36.5q8 -21 8 -36v-26
q-1 -23 -1 -31q0 -5 2.5 -15.5t2.5 -12.5zM331 213q0 31 -52 104l-29.5 17t-30.5 9q-34 0 -60 -43q0 -18 -7 -40t-7 -23q0 -9 5 -18q12 -21 12 -77q0 -3 -2.5 -10.5t-2.5 -10.5q0 -29 31 -54t66 -25q21 0 42 20q33 31 33 94q0 8 -1.5 23t-1.5 18t2.5 8.5t2.5 7.5z" />
    <glyph glyph-name="c" unicode="c" horiz-adv-x="394" 
d="M377 69q0 -11 -22.5 -33.5t-46 -36.5t-60.5 -14q-14 0 -31.5 -5t-21.5 -5q-8 0 -29 8q-24 8 -34 17q-34 30 -54 44q-4 3 -10.5 14t-6.5 15q0 11 -7 23.5t-14 55.5t-7 72q0 26 8 57t15 40q11 14 16.5 32.5t35.5 38.5l50 29q15 9 35 9t92 3l38 -27q21 -36 21 -51
q0 -14 -11 -24.5t-26 -10.5q-2 0 -9 1h-9q-42 4 -57 17q-31 28 -45 28q-2 0 -32 -3q-19 -23 -25.5 -26.5t-6.5 -24.5q0 -4 1.5 -14t1.5 -13q0 -1 -3.5 -5.5t-3.5 -6.5q0 -3 2.5 -15t2.5 -14q0 -6 -4 -14q-1 -3 -1 -19q0 -29 9 -41q12 -16 13 -26q5 -41 41 -62
q22 -13 108 -13q13 0 29 13.5t33 13.5q25 0 25 -27z" />
    <glyph glyph-name="d" unicode="d" horiz-adv-x="453" 
d="M432 19q0 -30 -52 -30q-79 0 -79 16q0 34 1 27l-23 1q-10 -23 -40.5 -39.5t-52.5 -16.5q-23 0 -42.5 19.5t-27.5 22.5q-20 7 -23 14q-12 32 -32 54q-18 19 -18 29q0 4 -4.5 17t-4.5 19q0 10 1.5 29t1.5 22t-2.5 20.5t-2.5 22.5q0 7 3.5 18.5t4.5 15.5q0 24 19 43
q3 3 0 12q12 9 17.5 21t21.5 25q25 19 61 51q11 0 30 8q12 5 41 5q7 0 20 -4.5t20 -4.5q13 0 13 25q0 15 -3.5 36t-3.5 26q0 8 2 31t2 30q0 18 -23 46q-11 13 -11 22q0 6 10.5 19t13.5 13q38 0 74 36q16 16 31 16q31 0 31 -26q0 -16 -10 -27q-21 -23 -21 -57q0 -6 2.5 -22
t2.5 -21v-12q-1 -10 -1 -14q0 -5 5 -12l-5 -65q5 -10 5 -12q-7 -17 -7 -25q0 -17 6 -53q-6 -16 -6 -35q0 -3 2.5 -16.5t2.5 -17.5q0 -5 -1 -20.5t-1 -19.5q0 -19 2 -33q-2 -16 -2 -53q0 -5 -2 -22t-2 -22q0 -81 41 -108q15 -10 15 -24zM292 209q0 20 -9 38q0 20 -3 40
q-5 35 -17.5 49t-44.5 14q-40 0 -74 -46q0 -1 -6 -7t-6 -12q-13 -7 -13 -58q-9 -15 -9 -41q0 -65 25 -86q17 -16 55 -43q18 -3 39 -3q18 0 37.5 18.5t19.5 48.5q0 6 -2.5 15.5t-2.5 11.5q0 8 5.5 28.5t5.5 32.5z" />
    <glyph glyph-name="e" unicode="e" horiz-adv-x="386" 
d="M359 288q0 -22 -26 -22q-12 0 -18.5 5t-16.5 5h-49q-20 -6 -53 -6q-6 0 -26.5 1t-31.5 1q-28 0 -35 -19q-4 -10 -4 -55q0 -20 8 -20q-4 -7 -4 -14t16.5 -32t30 -29.5t26.5 -14.5q8 -6 33 -6h81q18 16 36 16t18 -29q0 -12 -5 -18t-5 -9q0 -21 -35 -35q-41 -16 -116 -16
t-102 45q-15 0 -20 18q-8 28 -21 50q0 15 -5 41q-4 21 -4 24q0 29 8 69q7 35 12 43.5t5 27.5q1 3 9.5 17t8.5 18q0 14 15 24q20 14 26.5 22.5t31.5 17t48 8.5q32 0 53 -11h13q25 0 57.5 -37.5t32.5 -59.5q0 -2 4 -9.5t4 -10.5zM231 333q0 7 -11.5 17t-21.5 13
q-6 -6 -21.5 -6t-28 -7t-12.5 -17q0 -14 26 -14q37 0 67 6q0 2 1 4.5t1 3.5z" />
    <glyph glyph-name="f" unicode="f" horiz-adv-x="285" 
d="M316 679q0 -2 -1 -8t-1 -9v-19q0 -38 -24 -38q-3 0 -8.5 -3.5t-6.5 -3.5q-18 0 -33 20q-9 12 -30 12q-29 0 -29 -53q0 -5 1 -21t1 -21t-2.5 -25t-2.5 -25q0 -14 8 -30t14 -16q3 0 7 2q4 -2 24 -2q33 0 33 -23q0 -15 -30 -24q-10 1 -24 1q-25 0 -25 -21v-33q0 -10 -12 -78
q4 -60 4 -49v-60q0 -13 -4 -24q2 -1 4 -5q0 -62 80 -88q4 -1 9 -10t5 -12q0 -17 -39 -17h-39q-10 9 -45 9q-10 0 -26 -3.5t-19 -3.5q-7 0 -20.5 2.5t-19.5 2.5t-17 -1.5t-13 -1.5q-15 0 -15 14q0 17 16 25q44 22 44 50q4 0 4 41q5 3 5 48q0 11 -2.5 47.5t-2.5 43.5q0 1 4 13
t4 24q0 3 -2 12.5t-2 12.5q0 8 2 26q-6 18 -20.5 20t-27 4.5t-12.5 16.5q0 2 4.5 9.5t4.5 16.5q19 11 29 11q6 0 12 8t6 17q0 2 -2.5 21.5t-2.5 22.5q0 16 8 49.5t14.5 38t6.5 13.5t7 14.5t14 19.5q13 24 50 45q17 10 32.5 23t42.5 13q23 0 41.5 -15t18.5 -26z" />
    <glyph glyph-name="g" unicode="g" horiz-adv-x="407" 
d="M405 -90q0 -28 -2 -32q-9 -17 -9 -29q0 -7 -15 -15q-10 -6 -16 -20.5t-13 -17.5q-13 -6 -27 -25.5t-31 -19.5q-10 0 -30.5 -10t-25.5 -10q-30 0 -69.5 8.5t-45.5 15.5q-19 0 -45 29q-8 9 -15.5 9t-11.5 11q-2 4 -9 11q-11 7 -11 22q0 3 1 9v9q0 11 -4 31q0 20 12.5 48
t21.5 33q0 19 27 38v26q-6 -1 -12 7t-6 15q0 3 1 9v11t-2 14t-2 10q0 14 8 26.5t8 26.5q0 8 -11 17q-21 18 -26 43q-1 8 -4 21q-7 17 -7 27q0 -5 5 28q1 16 7 47q8 23 35 45q23 17 45 25q2 1 18 10q13 7 19 7h20q15 -1 25 -1q11 0 24 1h15q5 0 27.5 -3.5t38.5 -3.5
q3 0 15.5 2.5t14.5 2.5q32 0 32 -26q0 -5 -8 -19t-8 -20q0 -14 13 -49q0 -2 -1 -6.5t-1 -7.5q0 -58 -14 -77q-2 -9 -11 -25l-50 -44q-20 -18 -37 -21.5t-48 -11.5q-20 9 -31 9q-41 0 -41 -13q21 -28 56 -28q12 0 33.5 4.5t31.5 4.5q6 0 19.5 -11t14.5 -11q34 -12 37 -13
q15 -7 23.5 -22t29.5 -29q11 -7 11 -16q0 -20 5.5 -48.5t5.5 -27.5zM291 284q0 17 -15 47.5t-30 38t-57 7.5q-2 0 -12 1h-15q-10 -3 -24 -21.5t-14 -27.5q0 -14 -4 -14q-5 -17 -5 -33q5 0 5 -6q0 -43 11 -58q17 -23 30 -31q18 -12 49 -12q42 0 62 28q14 19 14 31q0 2 -1.5 7
t-1.5 6q0 6 4 21t4 16zM330 -117l-1.5 17t-0.5 24q-3 6 -10 16q-32 32 -68 53q-7 4 -38 4q-3 0 -15 -3.5t-17 -4.5q-13 1 -28.5 -9t-19.5 -22q3 -30 4 -29q-14 -32 -14 -60q0 -21 11 -50q42 -22 61 -22q3 0 32.5 2t31.5 2q24 0 48 28.5t24 53.5z" />
    <glyph glyph-name="h" unicode="h" horiz-adv-x="448" 
d="M435 13q0 -31 -30 -31q3 0 -23.5 3t-57.5 3q-3 0 -16 -1h-19q-22 0 -22 22q0 16 14 28q29 24 29 64q0 1 -2 11t-2 17.5t-2 27.5t-2 27v33q-8 21 -9 34q-2 30 -7 49q-5 5 -14 15q0 10 -5 16q-14 17 -20.5 21t-21.5 4q-56 0 -75 -67q-4 -14 -4 -22t2.5 -22.5t2.5 -17.5
q0 -20 4 -44l4 -24q0 -8 -1.5 -32t-1.5 -33q0 -16 17.5 -35.5t26.5 -21.5q26 -6 26 -23q0 -20 -26 -20q-2 0 -28.5 5.5t-29.5 5.5q-11 0 -18 -7q-23 0 -47 -4.5l-24 -4.5q-10 0 -17.5 6t-7.5 10q0 5 5 12.5t5 14.5q12 13 30 35q4 7 4 19q0 2 -1.5 14.5t-1.5 19.5
q0 24 2.5 47.5t2.5 21.5q0 9 -4.5 32t-4.5 24q0 -1 3.5 26t3.5 42q0 184 -13 200q8 13 8 19q0 24 -30 50q-14 12 -14 16t6 12.5t6 17.5q41 27 56 42.5t24 44.5q4 14 30 14q34 0 34 -41q0 -13 -5.5 -31t-5.5 -20q0 -7 4 -23.5t4 -19.5q-4 -7 -4 -13q0 -10 4 -37t4 -36
q0 -3 -7 -17.5t-8 -24.5q-6 -50 -6 -68q0 -10 10 -10q8 0 22 14q45 15 46 15t14.5 -1.5t19.5 -1.5q31 0 46 -13.5l39 -35.5l16 -29q9 -11 9 -40q0 -7 1 -23v-25q0 -11 3.5 -28.5t3.5 -23.5q0 -1 -1.5 -20t-1.5 -27q0 -22 6 -40q0 -37 21.5 -60.5t21.5 -35.5z" />
    <glyph glyph-name="i" unicode="i" horiz-adv-x="259" 
d="M191 637q0 -4 -4 -22q-30 -30 -54 -30q-14 0 -27 6t-13 15q0 2 -3 3.5t-4.5 4.5t-1.5 31q0 2 -1 5.5t-1 4.5q0 36 54 36q23 0 39 -17t16 -37zM225 22q0 -9 -17 -15.5t-32 -6.5q-2 0 -13 1h-14q-18 0 -36 -3.5t-19 -3.5h-11q-9 1 -14 1t-12 -1l-7 -1q-25 0 -25 31
q0 10 16 23q3 3 16 8.5t17 15.5q4 17 14 43q-3 3 -3 6t3 6q-4 8 -4 16q0 6 1 8q-3 18 -3 62q0 3 1.5 22.5t1.5 35.5q0 26 -32 39q-14 6 -14 16q0 24 13 27q21 5 28.5 18.5t19.5 18.5q23 10 43 34q7 8 22 8q24 0 24 -35q0 -1 -5.5 -39.5t-5.5 -43.5q0 -2 2 -5.5t2 -6.5
q0 -2 -6 -20q0 -5 1.5 -24.5t1.5 -29.5q0 -14 -1.5 -33.5t-1.5 -26.5q3 -9 5 -18q-1 6 -1 -23l3.5 -7.5t3.5 -12.5v-12q-1 -7 -1 -10q0 -10 22 -27q17 -13 17 -35z" />
    <glyph glyph-name="j" unicode="j" horiz-adv-x="272" 
d="M180 650q0 -2 -1 -6.5t-1 -6.5q0 -14 -1 -16q-13 -29 -44 -29q-17 0 -35.5 20.5t-18.5 36.5q0 15 17.5 30t33.5 15t33 -12.5t17 -31.5zM233 378q0 -7 -11 -25q-23 -37 -23 -60q0 -3 1.5 -11t1.5 -12t-3 -12t-3 -12q0 -7 -4.5 -18.5t-4.5 -14.5q0 -15 2 -45.5t2 -41.5
q0 -15 -5 -27q7 -21 7 -25l-1.5 -23t-1.5 -33.5t-4.5 -31.5l-4.5 -21q0 -2 1 -13t1 -21q0 -15 -3 -33.5l-3 -18.5q0 -2 1 -5v-5q0 -16 -20 -36q-8 -8 -17 -39q-6 -20 -35.5 -53.5t-43.5 -33.5q-16 0 -16 13q0 15 13 46q39 92 39 137q0 15 -2.5 35t-2.5 24q0 8 3 24t3 22
q0 5 -2.5 14t-2.5 13q0 3 1.5 9t1.5 8q0 6 -1 13.5t-1 9.5q0 3 5.5 18.5t5.5 17.5t-4 19t-4 32q0 3 1.5 10t1.5 11q0 11 -7.5 29.5t-16.5 18.5q-2 0 -8.5 -1t-9.5 -1q-9 0 -21 4q-15 6 -15 13q0 14 10.5 29.5t24.5 20.5q34 12 48 19q24 11 35 22q7 8 22 18q11 8 23 37
q8 21 18 21q13 0 22 -16q7 -11 7 -19z" />
    <glyph glyph-name="k" unicode="k" horiz-adv-x="456" 
d="M461 15q0 -12 -26 -15q-2 0 -8.5 1.5t-9.5 1.5q-2 0 -7.5 -1t-8.5 -1q-4 0 -27.5 3.5t-34.5 3.5q-12 0 -27 -3.5t-20 -3.5t-15.5 6t-10.5 10q0 2 1.5 9.5t2.5 13.5q13 9 13 29q0 11 -26.5 54.5t-32 43.5t-12 8t-6.5 13q0 16 -22 16q-28 0 -33 -72q-1 -9 -2.5 -20.5
t-1.5 -13.5q0 -31 33 -64q14 -14 14 -20q0 -20 -37 -20q-9 0 -27 2.5t-27 2.5q-2 0 -18.5 -1.5t-19.5 -1.5q-35 0 -41 16q0 22 10 31q18 17 21 23q10 30 15 69l-3 6q0 7 1.5 36.5t1.5 35.5q0 3 9 10q-4 20 -4 28q0 2 1.5 9t1.5 12q-9 22 -9 38v33q0 3 -5 68q2 18 2 30
q0 2 -4 23t-4 33q0 11 4 27t4 17q0 43 -31 67q-15 12 -15 23q0 24 46 36q17 4 20 16q18 0 34 18l17.5 30t29.5 15q11 0 18 -8.5t7 -15.5q0 -13 -17 -47q-7 -14 -7 -23q0 -3 3 -12l-3 -12q0 -3 1.5 -7.5t1.5 -8.5q0 -8 -3 -21.5t-3 -20.5q0 -6 1 -24t1 -23q0 -9 -7 -37
q3 -12 3 -30q0 -15 -2.5 -43t-2.5 -41q0 -15 2.5 -29t2.5 -16q0 -5 -1.5 -17t-1.5 -21q0 -20 18 -20q13 0 40 31q25 28 25 36q8 1 24 21.5t16 33.5q0 12 -7 20.5t-7 10.5q0 20 17 20h46q19 1 14 1q9 0 34.5 -2t27.5 -2q20 0 20 -23q0 -9 -10 -21q-10 -4 -29 -15
q-5 -8 -25 -22q-50 -23 -70 -39q-29 -23 -29 -52q0 1 12 -26q9 -20 23 -34q19 -19 25 -30q14 -24 42 -57.5t34 -33.5t24 -25q5 -7 14 -12q22 -12 22 -34z" />
    <glyph glyph-name="l" unicode="l" horiz-adv-x="252" 
d="M215 21q0 -23 -21 -23q-2 0 -14 4t-16 4q-30 0 -79 -6t-51 -6q-5 0 -13 7.5t-8 12.5q0 13 19.5 26t25.5 20q10 12 10 33q0 4 4 13.5t4 13.5q1 9 1 31q7 32 7 62q0 8 -4 14q-3 3 -3 8q0 4 4.5 23t4.5 34q0 16 -4 33t-4 20q5 18 5 34q0 31 -3 41q0 55 -1.5 90.5t-1.5 33.5
q0 45 -34 59q-15 6 -15 11q0 2 4 20q51 58 88 79q11 22 34 22q33 0 33 -27q0 -1 -2 -8.5t-2 -15.5q0 -4 1 -15v-21q0 -3 -5 -22.5t-5 -26.5q0 -4 7 -39q-10 -12 -10 -77q0 -32 5 -47q-6 -18 -6 -89q0 -41 6 -77q-4 -6 -4 -9q0 -5 2.5 -15.5t2.5 -15.5q0 -10 -3 -28.5
t-3 -27.5l5.5 -31t5.5 -54q33 -51 33 -68z" />
    <glyph glyph-name="m" unicode="m" horiz-adv-x="692" 
d="M676 30q0 -31 -24 -31q-2 0 -11 2t-12 2q-4 0 -13.5 -3.5t-14.5 -3.5q-6 0 -18 5t-18 5q-5 0 -19.5 -5t-16.5 -5q-11 0 -19 8t-8 15q0 3 9 10q16 13 16 42q0 12 5.5 30.5t5.5 26.5t-3 16q6 10 6 30q0 3 -17 118q4 6 4 15q0 55 -63 55q-7 0 -24 -4q-21 -4 -24 -10
q-1 -2 -13 -17q-8 -11 -8 -23q0 -4 1.5 -18t0.5 -20q-3 -12 -6 -36q-3 -41 -3 -43l4 -21.5t4 -34.5l-3 -2q0 -3 1 -9t1 -8q0 -4 -3.5 -13t-3.5 -11q0 -21 15 -41q17 -23 20 -38q-11 -15 -32 -15q-10 2 -16 4q-6 -2 -24 -2q-7 0 -16.5 2.5t-14.5 2.5q-4 0 -13.5 -3.5
t-13.5 -3.5h-18q-5 0 -12 7t-7 14q2 5 12 17q30 37 30 65q0 7 -5 19.5t-5 15.5q0 4 3 14.5t3 18.5q0 1 -2.5 5t-2.5 6t1.5 25.5t1.5 41.5q-2 1 -2 36q0 3 1 11t1 12q0 2 -4 28q-1 5 -7.5 11.5t-6.5 11.5q-16 7 -42 7q-21 0 -33 -9t-31 -36q-10 -14 -10 -65q0 -4 -2 -12
t-2 -10q0 -4 2 -13t2 -11q0 -3 -2.5 -7t-2.5 -5q0 -23 7.5 -68t7.5 -67q7 -14 22 -25q6 -4 6 -9q0 -29 -22 -29q-4 0 -23 5t-30 5q-31 0 -52 -1l-21 -1q-11 0 -19 14q0 5 17 19.5t18 15.5q15 29 15 90q0 4 -1.5 17t-1.5 21q0 5 1 16t1 17q0 87 -23 103q-15 10 -15 17
q0 16 37 42.5t49 26.5q14 13 27 13q12 0 20 -12t12 -12q2 0 15.5 8t18.5 10q42 13 88 13q15 0 29.5 -9t19.5 -15.5t9 -12.5q9 -13 15 -13q17 0 22 5q21 44 72 44q22 0 60 -8q12 -8 36 -19q15 -5 30 -34q3 -4 3 -12q27 -39 27 -94v-52q-1 -37 -1 -46q5 -2 5 -8
q0 -8 -2.5 -30.5t-1.5 -27.5l17 -23q2 -7 8 -20q1 -1 10.5 -8.5t9.5 -11.5z" />
    <glyph glyph-name="n" unicode="n" horiz-adv-x="433" 
d="M399 31q0 -8 -8 -17q-24 0 -70.5 -5.5t-44.5 -5.5q-30 0 -30 30l17 15.5t16 36.5q5 5 5 16q0 8 -3 23l3 5q-1 -8 -1 27q0 2 1.5 5.5t1.5 4.5q0 2 -2 10.5t-2 12.5q0 5 1 18.5t1 21.5q-4 0 -4 38t-9 53q-13 21 -48 21q-18 0 -25.5 -3.5t-17.5 -18.5q-2 -9 -11 -31
q-4 -8 -2 -40q2 -3 2 -22q0 -3 -3 -21q-3 -9 -3 -31l2 -19.5t2 -29.5v-32q0 -8 15 -38q34 -20 34 -35q0 -26 -56 -26q8 0 -24 4q-4 1 -36 1q-55 0 -55 12v12q0 6 15 19.5t15 20.5t4 27.5t4 29.5v59l2 12q2 11 2 25q0 17 -4 46t-4 32.5t-5.5 17t-5.5 21.5q-26 15 -26 25
q0 5 7.5 15.5t10.5 12.5q7 3 28 3q10 0 41.5 24.5t38.5 24.5q18 0 29 -13q0 -23 9 -23q7 0 20 5.5t21 5.5q52 0 80 -22q13 -10 25 -44q2 -5 8 -13q0 -14 2 -30l2 -16q0 -7 -2.5 -21t-2.5 -21q0 -3 1.5 -8.5t1.5 -8.5q0 -5 -2.5 -10.5t-2.5 -6.5q0 -2 2.5 -8.5t2.5 -9.5
q0 -58 -1 -47q1 -8 7 -34q5 -22 4 -33q0 -5 3 -8q24 -23 24 -41z" />
    <glyph glyph-name="o" unicode="o" 
d="M445 165q0 -30 -7 -46q-5 -12 -26 -39q-16 -20 -25 -25q-42 -21 -57 -32q-27 -20 -88 -20q-24 0 -64 11q-63 17 -104 60.5t-41 95.5q0 40 4 46q-6 22 -6 44q8 25 29 63q2 10 12 29q11 11 51 35t53.5 27.5t48.5 3.5q27 0 44 -9q11 -6 27 -6t43.5 -11t38.5 -20q0 -3 10 -11
q40 -33 40 -58q0 -10 6 -34t6 -37q0 -5 2.5 -26.5t2.5 -40.5zM365 199q0 2 -4.5 7t-4.5 12q0 24 -16 51l1 6q-15 7 -17 26t-13 28t-36 18q-4 0 -9 1q-7 9 -13 10q-9 2 -38 2q-32 0 -41 -9q-25 -26 -42 -47q-23 -28 -23 -58q0 -6 6 -22t7 -23q3 -35 10 -49q12 -24 12 -52
q0 -15 26 -29q32 -17 83 -17q33 0 50 11.5t31 46.5q6 5 17 19q14 27 14 68z" />
    <glyph glyph-name="p" unicode="p" horiz-adv-x="441" 
d="M409 231l-3 -20.5t-3 -30.5q0 -25 -1 -29q-1 -22 -6 -22q-3 -22 -14 -40q-17 -25 -20 -33q-8 -19 -22 -19l-28 -33l-6 -1q-29 -23 -34 -23q-28 0 -44 -6q-48 25 -63 25q-31 0 -31 -44q0 -10 6 -50.5t6 -54.5q0 -4 -1.5 -11.5t-1.5 -8.5q0 -2 1 -11.5t1 -18.5
q0 -47 37 -67q12 -6 12 -16q0 -20 -31 -20l-20 2.5t-35 2.5q-12 0 -44 -2t-33 -2q-28 0 -28 15q0 13 36 43q0 10 10 35.5t10 38.5t-1.5 39.5t-1.5 40.5q0 76 12 109q-8 0 -8 73q0 29 2 43l-6 4q0 17 2 56t2 52q0 49 -22 79q-15 21 -15 22q0 7 24 20q18 9 36 19q5 4 17 20
q9 13 14 13q0 7 9 11.5t14 4.5q19 0 25 -16q9 -24 22 -24q2 0 11 5.5t13 6.5t16.5 4.5t14.5 3.5q5 0 30.5 -5t29.5 -5q18 -27 54 -35q0 -5 25.5 -41t25.5 -68q0 -2 2.5 -15t2.5 -16zM333 191q0 1 -2.5 10t-2.5 15q0 12 -9 19q0 15 -5 21q-14 17 -24 33q-25 38 -70 38
q-68 0 -68 -34q0 -3 -2.5 -8.5t-2.5 -6.5q0 -4 1 -11v-9q-1 -12 -5 -35q3 -30 3 -36q0 -3 -1.5 -13.5t-1.5 -17.5q6 -21 6 -33h-3q0 -21 5 -30q8 -13 10 -25q6 -31 66 -31q39 0 62 17q7 12 22 29q0 -1 6.5 15.5t6.5 30.5q0 4 3 10.5t3 9.5q0 23 1 24.5t2 8.5v9z" />
    <glyph glyph-name="q" unicode="q" horiz-adv-x="463" 
d="M434 -281q0 -9 -8.5 -15t-16.5 -6q-2 0 -12.5 3t-13.5 3q1 0 -13 -2t-26 -2q-3 0 -10.5 1t-11.5 1q-14 0 -31 -2t-15 -2q-33 0 -45 10q2 14 8 17q58 21 58 68q0 -1 -3 47l3 1q0 7 -2 19.5t-2 20.5q0 3 1.5 10.5t1.5 11.5q0 2 -2 13.5t-1 17.5q5 25 5 30t-4 14.5t-4 18.5
t-13 9q-2 0 -18.5 -3.5t-21.5 -3.5h-36q-10 0 -13 2.5t-5 2.5t-15 -1t-16 -1q-29 0 -51 24q-18 19 -58 86q0 11 -1 14.5t-4.5 10t-3.5 9.5q0 4 1 13t1 13q0 8 -2 23.5t-2 16.5q0 2 2 7t2 8q0 38 9 59q13 31 56 67q4 7 16 17q26 14 40 18q22 6 61 6q2 0 32 -1.5t33 -1.5
q2 0 4 16t6.5 16t15.5 5t20 5q30 0 44 -14q3 -3 32 -27q22 -18 22 -39q0 -2 -17 -29t-17 -39q0 -2 2 -17t2 -24q0 -1 -1.5 -23t-1.5 -36q0 -32 1.5 -52t1.5 -19q0 -14 -1.5 -41t-1.5 -43q0 -18 2 -37.5t2 -21.5q0 -5 -2.5 -12.5t-2.5 -13.5q0 -12 -1 -36t-1 -25l3 -5
q0 -2 -1 -7t-1 -8q0 -13 2.5 -24.5t2.5 -23.5v-23q-1 -15 -1 -20q0 -8 12 -18q16 -14 18 -16q8 -11 8 -20zM304 254q-5 13 -5 19q0 36 -7 39.5t-7 13.5t-32 10h-41q-28 0 -50 -24q-7 -6 -14 -11q-11 -10 -11 -21q0 -3 -5 -9.5t-5 -10.5q0 -7 -6 -33t-6 -29q0 -1 2 -14.5
t2 -23.5q0 -4 -2 -18q-1 -12 0 -17q8 -31 43 -59q32 -25 58 -25q38 0 57 23l25 42q0 6 -2 14t-2 12q0 14 7 16q0 14 -2 34.5t-2 26.5q0 35 5 45z" />
    <glyph glyph-name="r" unicode="r" horiz-adv-x="312" 
d="M302 360q0 -13 -13.5 -30t-28.5 -17q-23 0 -44 12q0 7 -6 15t-13 8q-13 0 -16 -14q-1 -7 -4.5 -23.5t-3.5 -18.5q0 -1 1.5 -19t1.5 -26q0 -2 1 -23t1 -42q0 -51 -1 -92q6 -9 7 -16q2 -10 16 -20t17.5 -16t3.5 -15q0 -6 -5.5 -15.5t-12.5 -9.5q-2 0 -36 3.5t-37 3.5
q-15 0 -47.5 -7l-32.5 -7q-22 0 -22 18q0 13 43 41q3 7 7 22q6 53 6 76q0 11 -2 21t-2 17q0 1 2.5 6.5t2.5 7.5q0 5 -1.5 11t-1.5 7q0 6 3 16t3 15q0 2 -4 10.5t-4 11.5q0 2 1 5t1 6q0 15 -17 37q-12 3 -23.5 6.5t-11.5 16.5q0 12 11 17l23.5 10.5l40.5 18.5q3 1 18.5 16.5
t27.5 15.5q4 0 15 -8t19 -8l23.5 10t43.5 10q50 0 50 -64z" />
    <glyph glyph-name="s" unicode="s" horiz-adv-x="354" 
d="M316 118q0 -47 -48 -84q-43 -34 -83 -34q-28 0 -39 2q-6 1 -20 7t-16 6t-26 -10.5t-27 -10.5q-20 0 -20 22q0 14 3.5 32t3.5 24t-2 13t-2 9t1.5 6t1.5 5q0 -2 -3 7q0 22 15 22q16 0 27 -22q17 -31 26 -40q35 -23 74 -23q21 0 39 11.5t18 27.5q0 2 2 7t2 7q0 15 -2 18
q-5 8 -5 11.5t-13 16.5q-19 19 -47 19q-9 9 -28 16q-64 23 -64 48q0 4 -8.5 4t-15.5 9.5t-7 15.5q0 15 -9 17q-2 5 -2 7q5 13 5 40.5t22 47.5q52 47 108 47q0 3 21 3q24 0 32 -4q20 -10 43 -12q11 -1 17.5 -3t9.5 -9q6 -16 6 -57q0 -5 1 -12t1 -8q0 -5 -7.5 -13.5
t-12.5 -8.5q-21 0 -26.5 27.5t-37.5 52.5q-8 6 -30 6q-65 0 -65 -41q0 -11 3.5 -12.5t4.5 -5.5q6 -22 12 -30.5t28.5 -19t46.5 -20.5q36 -16 62 -39q8 -7 19 -43.5t11 -51.5z" />
    <glyph glyph-name="t" unicode="t" horiz-adv-x="274" 
d="M261 391q0 -7 -11 -17.5t-16 -10.5h-25q-6 0 -25 -14q-14 -10 -14 -36q0 -17 1 -23q-4 -12 -4 -26q0 -16 2.5 -40.5t2.5 -29.5q0 -7 -3 -22t-3 -23q0 -45 40 -62q22 -9 22 -24q0 -14 -18 -27q-12 -9 -28 -25.5t-56 -16.5q-16 0 -33 18t-17 44q0 3 1 9v10q0 20 -3 29
q2 2 2 8l-3 15l5 3q-5 20 -5 23q0 1 5 14.5t5 28.5q0 3 -1.5 19t-1.5 28l4 3l-4 3q7 37 7 69q0 35 -23 35h-10q-7 -1 -10 -1q-37 0 -37 23q0 27 25 27h32q4 0 9 6.5t5 11.5q0 2 3 8q3 3 3 6q0 17 13 52q22 11 40 28q8 8 21 8q27 0 27 -32q0 -4 -4.5 -19t-4.5 -25
q0 -33 37 -33q2 0 9 1t10 1q8 0 18.5 -6.5t10.5 -17.5z" />
    <glyph glyph-name="u" unicode="u" horiz-adv-x="464" 
d="M406 50q-12 -13 -39 -22q-33 -11 -56 -55q-2 -3 -12 -3q-18 0 -24 24q-1 6 -16 6q-4 0 -13 -7q-14 -11 -39 -11q-47 0 -82 25q-47 35 -47 105q0 9 1 18t1 10q0 10 -2 32t-2 37q0 3 1.5 9.5t1.5 8.5t-3 13t-3 15q0 3 5 20v31q-6 17 -24 49q-26 30 -26 42q0 5 10 12.5
t28 7.5q4 0 14 -1t15 -1q6 0 16.5 2.5t14.5 2.5q24 0 30.5 -7t6.5 -32h2q0 -5 -2.5 -13t-2.5 -10q0 -11 3.5 -29t3.5 -25q0 -44 -8 -80q0 -1 5 -41q-6 0 -4 -79q5 -3 7 -22q4 -39 51 -39q25 0 49 18.5t24 34.5q0 3 -3.5 10.5t-3.5 10.5q0 4 2 13.5t2 13.5t-2 10q5 0 9 35
q4 31 4 51q0 36 -8 57q5 0 5 21q0 11 -11 33q-40 38 -40 49q0 8 11 14t21 6q6 0 56 -2q3 0 12.5 1t15.5 1q30 0 30 -32q0 -17 -1.5 -36.5t-1.5 -20.5q0 -3 2.5 -13.5t2.5 -12.5q0 -1 -3.5 -21t-3.5 -28q0 -9 5.5 -38.5t5.5 -42.5q0 -12 -3.5 -32t-3.5 -23q0 -1 8 -23.5
t8 -46.5z" />
    <glyph glyph-name="v" unicode="v" horiz-adv-x="367" 
d="M352 384q0 -11 -9 -20q-11 -12 -14 -18q-27 -59 -36 -123q0 -1 -3 -3t-3 -4q-8 -29 -17 -44q-19 -34 -26 -70q-1 -6 -6.5 -15.5t-5.5 -13.5q0 -16 -9 -46q-12 -41 -29 -41q-5 0 -16 4.5t-11 7.5q0 18 -16 49t-16 54q0 2 -4.5 6t-4.5 8q0 14 -5 22q-8 12 -19 43
q-1 8 -6 22q-18 31 -18 56q0 9 -12 24t-12 19q0 11 -22.5 42t-39.5 44q3 31 41 31q2 0 18.5 -1t18.5 -1q3 0 33 2.5t32 2.5q20 0 20 -15q0 -6 -7.5 -19.5t-7.5 -17.5q0 -2 3.5 -16t4.5 -19q0 -1 -2 -4t-2 -5q3 -21 13 -48q2 -7 8 -41q4 -26 16 -41q2 -2 8 -21q4 -13 18 -13
q16 0 20.5 14.5t12.5 34.5q6 10 9 33l13 36q1 5 7 28q6 20 6 29q0 14 -8.5 32t-8.5 31q0 7 11.5 12t21.5 5q7 0 22.5 -2.5t22.5 -2.5q1 -2 10 -13q6 -9 6 -14z" />
    <glyph glyph-name="w" unicode="w" horiz-adv-x="567" 
d="M579 393q0 -10 -13 -21q-20 -16 -21 -17q-11 -13 -11 -23q0 -14 -16 -37q-12 -17 -13 -34t-13 -37q-14 -23 -32 -67q-14 -34 -14 -37q0 -12 -14 -26q-6 -6 -15 -35q-10 -34 -16 -45q-7 -14 -20 -14q-16 0 -22 7q0 19 -13 49q-20 46 -20 73q-17 17 -22 24h-12
q-11 -15 -30 -47q-21 -10 -37 -97q-1 -7 -12.5 -13t-17.5 -6q-31 0 -31 57q-21 29 -21 45q-18 21 -27 64q-4 18 -23 31l-4 19q-3 5 -11 13q0 16 -15.5 35t-29.5 83q-7 2 -19 12.5t-12 15t-9.5 11.5t-9.5 16q0 8 8.5 15t17.5 7q3 0 8 -1t6 -1q9 3 15 3q5 0 18.5 -3t20.5 -3
q9 0 25 1h23q14 0 14 -16q0 -3 -7 -23t-7 -34q4 -1 15.5 -26.5t14.5 -36.5q1 -1 6.5 -9.5t5.5 -12.5q0 -10 11 -37t20 -36q0 -13 9 -25.5t17 -12.5q18 0 28 30q3 7 17 27q4 5 4 25q0 13 -15.5 42t-15.5 33q0 5 2 9q-14 8 -14 17t-8 31q-4 0 -10.5 7.5t-13.5 7.5t-17 7.5
t-10 17.5q0 15 21 15h78q12 2 20 2q5 0 13.5 -1.5t14.5 -1.5q7 0 29.5 3.5t40.5 3.5q41 0 41 -25q0 -11 -32 -29q-19 -10 -36 -39.5t-17 -43.5q0 -11 6 -18q17 -19 21 -51q5 -40 30 -40q13 0 21 16q4 4 13 16q14 19 24.5 58t10.5 70q0 20 -11 31q-20 20 -20 39q0 5 14.5 10
t32.5 5h55q38 0 38 -22zM331 350v15q-7 5 -13 5q-16 0 -16 -15q0 -5 5 -16.5t10 -13.5q5 2 8 11q5 13 6 14z" />
    <glyph glyph-name="x" unicode="x" horiz-adv-x="412" 
d="M412 22q0 -27 -28 -27q1 0 -11 1t-21 1q-18 0 -26 -3q-13 4 -47 4q-4 0 -19 -1h-16q-19 0 -19 7q0 13 19 29q10 9 10 23q0 24 -17 41q-11 11 -17 19q-10 14 -13 27t-21 13q-12 0 -21.5 -12l-18.5 -23q-7 -6 -18 -38q-6 -18 -17 -33q22 -26 22 -39q0 -15 -26 -15
q-3 0 -12 1t-12 1q-10 0 -25 -2t-19 -2q-37 0 -37 19q0 11 14.5 27t23.5 16q10 12 23 22q16 20 45 50q17 12 17 26q5 4 13 11q17 23 17 40q0 19 -37 65q-15 19 -15 30q-11 10 -32 45q-15 24 -50 42q-6 2 -6 14q0 15 7 20t25 5q45 0 54 1q54 6 56 6q9 0 17 -6.5t8 -13.5
q0 -9 -7 -17.5t-7 -18.5t15 -23t15 -22q0 -27 15 -27q7 0 31 23.5t26 28.5q-2 3 -2 6t4.5 11.5t4.5 10.5t-7 13t-7 14q0 4 4.5 11t9.5 7q10 0 24 1.5t19 1.5q14 0 32 3l18 3q25 0 25 -24q0 -2 -11 -9q-14 -9 -17 -12q-14 0 -39 -26q-21 -22 -28 -37q-16 -36 -35.5 -50.5
t-19.5 -35.5q0 -5 8 -14q10 -12 13 -17q13 -24 21 -30q12 -9 20 -34q7 -21 31 -38q11 -8 11 -20t17 -21q46 -24 46 -49z" />
    <glyph glyph-name="y" unicode="y" horiz-adv-x="391" 
d="M401 401q0 -5 -6 -13q-7 -11 -16 -14q-24 -8 -34 -43q-5 -18 -23 -48q-11 -18 -19 -60q-10 -50 -65 -166q-16 -34 -16 -57q0 -18 -12 -40q-4 -7 -4 -12t-9.5 -14.5t-9.5 -23.5q0 -22 -46 -114q-11 -33 -11 -30q0 -8 -8 -18q0 -9 -9 -15l-28 -29q-23 -23 -40 -23
q-11 0 -27.5 11.5t-16.5 20.5q0 3 7 20.5t11 22.5q12 16 39 33q40 26 53 69q5 16 21.5 37.5t16.5 50.5q0 34 10 47q-9 5 -9 30q0 1 -4.5 10.5t-4.5 18.5t-6 26t-6 24q0 4 -17.5 31.5t-17.5 36.5q0 46 -21 82q-24 41 -27 73q-10 2 -53 67l8 7q-4 1 -4 6q0 11 39 11
q20 0 60 -8q29 13 42 13q9 0 17.5 -6.5t8.5 -15.5q0 -8 -11 -22.5t-11 -16.5q6 -16 6 -33q11 -11 14 -24q4 -13 -1 -13q7 -25 20 -43q19 -25 19 -59q0 -11 5 -22.5t9 -11.5q16 0 16 23q0 19 10 32q17 23 20 39q3 20 12 43q6 18 6 28q0 27 -8 42q-16 29 -16 34q0 10 9.5 18
t15.5 8q7 0 21.5 -4.5t18.5 -4.5q3 0 23.5 4.5t33.5 4.5q7 0 16 -7t9 -13z" />
    <glyph glyph-name="z" unicode="z" horiz-adv-x="365" 
d="M348 393q0 -10 -10.5 -23.5t-10.5 -17.5q0 -19 -25 -44q-13 -13 -13 -24q0 -5 -25 -38q-53 -70 -53 -82q0 -6 -7.5 -14.5t-7.5 -20.5l-26 -26.5t-26 -46.5q0 -12 14 -12q20 0 23 2q9 -4 41 -4q34 0 54.5 21t31.5 21q28 0 28 -38q4 0 4 -11q0 -9 -9 -21q-11 -15 -22 -15
q-6 0 -17 -1h-21t-26 -1.5t-22 -1.5q-23 0 -72.5 1.5t-72.5 1.5q-6 0 -24.5 -6t-20.5 -6q-20 0 -20 14q0 24 44 76q14 16 14 31q0 11 31 55q1 2 21 34q12 19 16 19q14 36 36 65q7 8 15 24q1 9 12 25t11 22q0 7 -8.5 13t-14.5 6q-2 0 -14 -2.5t-15 -2.5q-2 0 -19 1.5t-20 1.5
q-27 0 -60 -44q-12 -16 -21 -16q-5 0 -10.5 7t-5.5 12q0 3 1 8v10q0 6 -1 14l-1 8q0 20 18 42q16 2 26 8q18 2 54 2q6 0 25.5 -1t27.5 -1q7 0 10 3h39q26 -1 40 -1q7 0 28.5 2.5t23.5 2.5q32 0 32 -31z" />
    <glyph glyph-name="braceleft" unicode="{" horiz-adv-x="389" 
d="M382 703q0 -15 -26 -15l-22.5 7t-36.5 7q-72 0 -72 -89q0 -20 6.5 -61t6.5 -61q0 -12 -2 -32.5t-2 -22.5q0 -25 -11 -50t-23 -31q-80 -37 -80 -54q0 -14 35 -23q8 0 13.5 -8l11.5 -17q8 -12 18 -21q19 -18 28 -69q0 -2 2.5 -21.5t2.5 -31.5q0 -21 -5.5 -89t-5.5 -89
q0 -27 23 -35q13 -5 47 -5q83 0 83 -34q0 -16 -67 -16q-10 0 -31.5 -2t-38.5 -2q-23 0 -63 34q-52 43 -67 104q7 27 7 70q0 80 10 92t10 54q-21 19 -26 47q-7 36 -43 36q-11 0 -33 5.5t-22 11.5q0 29 20 29q60 0 69 25q3 9 26 30q20 19 20 30q0 7 -3.5 27t-3.5 26
q0 10 -14 59t-14 76q0 40 20 73q18 28 42 41q38 20 49 29q18 14 46 14q32 0 96 -25q20 -8 20 -23z" />
    <glyph glyph-name="braceright" unicode="}" horiz-adv-x="389" 
d="M380 304q0 -21 -19.5 -21t-41.5 -12t-27 -26q-7 -18 -25 -29q-21 -12 -21 -31q0 -10 3.5 -28t3.5 -25q1 -14 14 -64t13 -78q0 -80 -65 -117q-20 -11 -46 -27q-19 -14 -46 -14q-47 0 -96 19q-20 8 -20 21q0 14 27 14l24.5 -4t38.5 -4q67 0 67 93q0 21 -6 70t-6 62
q0 118 42 137q77 34 77 56q0 7 -9.5 15t-23.5 8q-17 0 -26 24q-4 9 -17.5 21.5t-19.5 28.5q-12 31 -12 88q0 21 4.5 84.5t4.5 84.5q0 40 -44 40h-49q-63 0 -63 16q0 8 22 21t46 13q11 0 37.5 2t42.5 2q22 0 51 -22q41 -31 66 -93q-5 -25 -5 -93q0 -73 -10 -83t-10 -54
q16 -15 31 -54q10 -27 53 -27q40 0 40 -14z" />
    <glyph glyph-name="dagger" unicode="&#x2020;" horiz-adv-x="658" 
d="M645 391q0 -7 -11 -17.5t-16 -10.5h-25q-10 0 -24.5 -13.5t-14.5 -36.5q0 -17 1 -23q-4 -12 -4 -26q0 -16 2.5 -40.5t2.5 -29.5q0 -7 -3 -22t-3 -23q0 -45 40 -62q22 -9 22 -24q0 -14 -18 -27q-12 -9 -28 -25.5t-56 -16.5q-16 0 -33 18t-17 44q0 3 1 9v10q0 20 -3 29
q2 2 2 8l-3 15l5 3q-5 20 -5 23q0 1 5 14.5t5 28.5q0 3 -1.5 19t-1.5 28l4 3l-4 3q7 37 7 69q0 35 -23 35h-10q-7 -1 -10 -1q-37 0 -37 23q0 27 25 27h29q4 0 9 6.5t5 11.5q0 2 4 7.5t4 12.5v32l4 6l-8 48q0 4 1 25t1 36q0 20 -29 33q-13 6 -17 11.5t-20 5.5q-5 0 -23.5 6.5
t-25.5 6.5q-40 0 -49 -7.5t-28 -16.5q-30 -15 -32 -38q-1 -6 -18 -30q-5 -6 -7 -23q0 1 -3 -14t-3 -31q0 -23 11.5 -41t29.5 -18q24 0 34 2l38 -27q21 -36 21 -51q0 -14 -11 -24.5t-26 -10.5q-2 0 -9 1h-9q-42 4 -57 17q-31 28 -45 28q-2 0 -32 -3q-19 -23 -25.5 -26.5
t-6.5 -24.5q0 -4 1.5 -14t1.5 -13q0 -1 -3.5 -5.5t-3.5 -6.5q0 -3 2.5 -15t2.5 -14q0 -6 -4 -14q-1 -3 -1 -19q0 -29 9 -41q12 -16 13 -26q5 -41 41 -62q22 -13 108 -13q13 0 29 13.5t33 13.5q25 0 25 -27q0 -11 -22.5 -33.5t-46 -36.5t-60.5 -14q-9 0 -29 -5t-24 -5
q-8 0 -29 8q-24 8 -34 17q-34 30 -54 44q-4 3 -10.5 14t-6.5 15q0 11 -7 23.5t-14 55.5t-7 72q0 26 8 57t15 40q11 14 16 31q6 23 35 39q22 15 76 38q-49 49 -49 89q0 25 7 39q10 21 11 38.5t18.5 40.5t36.5 27t41 26l10 -3q19 15 70 15q18 0 45.5 -10.5t33.5 -10.5t12 -7.5
t28 -7.5q-5 0 51 -8q18 5 37 5q12 0 16 -32q3 -24 3 -92q0 -39 2 -55q4 -4 4 -8q0 -2 -4 -12.5t-4 -16.5q0 -33 45 -33q2 0 9 1t10 1q8 0 18.5 -6.5t10.5 -17.5z" />
    <glyph glyph-name="cent" unicode="&#xa2;" 
d="M398 239q0 -36 -48 -62q-3 -1 -14 -12.5t-15 -11.5q-5 0 -13.5 1t-12.5 1q-25 0 -25 -18q0 -67 -18 -67q-17 0 -17 15q0 4 -3 13t-3 15q0 30 -22 30q-7 0 -24 8q-20 9 -30 19q-26 25 -55 46q-17 13 -17 28t-5 24q-8 14 -16 52t-8 65q0 25 13 63q12 35 21.5 45.5t16.5 31
t38 35.5q15 8 27 21t27 13q31 0 31 16q0 5 1 19.5t1 18.5q0 10 15 10q16 0 33 -52q14 -1 45 -9q29 -11 38 -28q26 -28 26 -52q0 -18 -17 -33t-26 -15q-2 0 -11.5 5.5t-11.5 5.5q-18 3 -20 10q-2 12 -3.5 13.5t-1.5 6.5q0 3 1.5 11.5t1.5 13.5q0 9 -18 18q-11 -8 -11 -15
q0 -4 2.5 -12t2.5 -9q0 -6 -2.5 -19t-2.5 -20q0 -2 -1.5 -12t-1.5 -17t3 -57t3 -55q0 -6 -6 -12q0 -3 3.5 -10.5t3.5 -11.5q0 -2 -3 -32t-3 -31q0 -20 12 -34q15 -3 24 -3t38 30q24 25 44 25q14 0 14 -19zM236 389q0 6 -5 38t-5 40q6 10 6 41q0 33 -15 33q-26 0 -28 -10
q-11 -15 -28 -25q-6 -2 -6 -24q0 -4 1 -14.5t1 -13.5q0 -1 -4.5 -5t-4.5 -6q0 -3 3 -15.5t3 -14.5q0 -1 -6 -13q-2 -6 -2 -19q0 -29 9 -41q12 -16 12 -26q0 -59 32 -76q1 -1 8.5 -9.5t13.5 -8.5q13 0 13 16v12q-1 9 -1 12q0 7 1 23t1 22q0 12 -2 15q0 20 -2 30q5 3 5 39z
" />
    <glyph glyph-name="sterling" unicode="&#xa3;" 
d="M472 132q0 -37 -54 -95q-50 -53 -70 -53q-43 0 -52 8q-35 2 -57 23q-29 27 -83 27q-5 0 -31.5 -22t-66.5 -22q-49 0 -49 26q0 7 5 23q5 20 11 20q75 0 90 27q4 7 8.5 23.5t10.5 24.5q25 30 25 131q0 21 -11.5 38.5t-31.5 17.5q-86 0 -86 13q0 4 5 16t7 19q17 5 41 5
q4 0 15 -2.5t16 -2.5q13 0 13 15q0 20 -24 49q-37 44 -37 85q0 14 3.5 31t3.5 27t19 40t19 35.5t9.5 17t18.5 13.5q22 5 37 30q22 16 59 16q6 0 28 -2.5t39 -2.5q17 -6 30 -18q4 -3 24 -13q17 -7 20 -15q5 -11 23 -21q10 -5 10 -11.5t7.5 -29t7.5 -24.5q0 -3 -5.5 -16.5
t-6.5 -20.5q-2 -12 -16 -27t-24 -15q-7 0 -17 11t-19 12q-12 21 -12 41q0 5 2.5 15t2.5 14q0 20 -8 29q-45 52 -72 52q-10 0 -26.5 -5t-17.5 -11q-3 -13 -23 -17q-8 -2 -16.5 -21t-8.5 -43q0 -39 11 -51q18 -20 18 -38q0 -26 29 -46q10 -7 10 -26t18 -36q8 -10 28 -26l4 4
q15 0 30.5 1t22.5 1q1 0 8.5 4.5t12.5 4.5q7 0 17 -1.5t15 -1.5q30 0 30 -12q0 -38 -26 -45q-6 1 -32 1q-91 0 -91 -20q0 -66 -12 -91q-8 -14 -20 -44q-9 -34 -46 -57q-18 -11 -18 -27q0 -6 10 -6q5 0 15 3t16 3q15 0 27.5 9t28.5 9q25 0 75 -12l3 -4q42 -11 64 -11
q14 0 23 17q8 14 8 30.5t24 16.5q12 0 12 -14z" />
    <glyph glyph-name="section" unicode="&#xa7;" horiz-adv-x="500" 
d="M448 294q0 -67 -60 -105q-38 -24 -38 -35q0 -6 23 -28q43 -41 43 -115q0 -23 -27.5 -60t-52.5 -49q0 -9 -44.5 -30.5t-67.5 -21.5q-46 0 -73 13q-7 12 -28 26q-31 20 -39 57q-2 10 -2 13q0 7 9 18q1 1 3 12t8.5 14t15.5 10q2 4 12.5 7t16.5 2q4 -1 15.5 -5.5t16.5 -4.5
q17 -13 17 -47q0 -4 -5.5 -14t-5.5 -13q-24 -9 -24 -19q0 -9 26 -17q23 -7 41 -7q46 0 52 16t14 18q33 9 33 59q0 11 -4.5 24.5t-9 13.5t-5.5 6q-9 38 -61 71q-8 2 -26.5 13t-19.5 13q-16 28 -50 55q-11 6 -16 18q-7 17 -34 25q-9 11 -27 31q-15 14 -15 32q0 9 -4 28t-4 24
q33 88 107 120q0 14 -28 27q-23 10 -23 36q0 20 -11 22q2 22 2 54q16 50 30 61q22 18 36 33q31 34 76 35q0 5 32 5q39 0 79 -14q26 -17 48 -58q8 -15 8 -18t-2 -7t-2 -6q0 -3 1 -9v-9q0 -8 -7.5 -15t-7.5 -10q0 -18 -16 -20q-14 0 -24 2q-9 0 -10 -2q-8 3 -20 21t-12 27
q0 3 1.5 9.5t1.5 9.5q0 4 -1 5q17 17 17 26t-17.5 15.5t-34.5 6.5q-30 0 -58 -24l-1 -7q-20 -23 -20 -53q0 -41 31 -76q23 -26 50 -37q20 -8 34 -22q44 -44 97 -79q5 -4 23 -42q18 -41 18 -55zM378 256q-2 11 -16 27q-16 20 -17 22q-14 26 -46 34q-9 17 -25 24q-19 9 -52 45
q-20 22 -39 22q-47 0 -47 -50q0 -11 4 -22.5l4 -11.5q0 -22 24 -35q35 -19 40 -27t27.5 -31t26.5 -23.5t9 -2.5q21 -6 28 -23q16 -4 21 -4q24 0 41 16t17 40z" />
    <glyph glyph-name="bullet" unicode="&#x2022;" horiz-adv-x="500" 
d="M351 371q0 -31 -18.5 -62t-35.5 -31q-3 0 -15 -4q-15 -3 -40 -3q-29 0 -35.5 4t-11.5 9q-9 7 -17 7t-19 23t-11 43q0 3 3 9.5t3 9.5q0 6 -4 31q6 6 9 25q3 16 20 26.5t36 10.5t33 1q9 -3 11 -3q13 0 29 9q3 -6 22 -11q14 -4 27.5 -33.5t13.5 -60.5z" />
    <glyph glyph-name="paragraph" unicode="&#xb6;" horiz-adv-x="540" 
d="M513 705q0 -19 -30 -26q-25 -6 -33.5 -13t-8.5 -27q-4 -13 -4 -150q0 -4 2 -20.5t2 -18.5q0 -7 -1 -19t-1 -14q0 -5 1.5 -13.5t1.5 -12.5q0 -3 -3.5 -18.5t-3.5 -26.5q0 -12 4 -44t4 -40q0 -5 -1.5 -56.5t-1.5 -66.5q0 -4 1 -14.5t1 -16.5q0 -34 -25 -100
q-22 -57 -34 -62l-1 -8q-1 -1 -31 -24t-30 -27t-14 -14q-17 -11 -36 -11q-24 0 -32 -10q-11 -14 -21 -14q-77 0 -88 13t-34 18q-31 7 -40 63q-6 14 -6 20q0 3 2 7.5t2 6.5v20q0 8 7.5 18t8.5 12q5 17 30 17q5 0 13.5 -2t12.5 -2t6 2q17 -2 27 -40q-2 -4 -2 -6q0 -3 1.5 -8
t1.5 -7q0 -3 -2 -9.5t-2 -10.5q-6 -11 -17 -19.5t-11 -19.5q0 -10 30 -21.5t47 -11.5q29 0 49.5 30t20.5 78q0 11 11.5 28t11.5 36q0 12 -3 28t-3 20q0 21 9 41q6 13 6 23q-15 26 -15 52q0 15 2.5 33t2.5 23q0 39 -44 39q-8 0 -24 -1t-23 -1q-2 0 -6.5 3t-6.5 3
q-14 0 -40 5.5t-33 11t-13 8.5q-22 9 -39 48l-25 27q-13 15 -13 38q0 3 -2.5 16t-2.5 17q-6 12 -6 48q0 62 41 102q23 22 33 40q3 6 42 22q10 4 18.5 14t33.5 19q29 9 61 9q3 0 7 -2.5t6 -2.5q11 0 17 3q7 0 56.5 -4t54.5 -4q9 0 49.5 6.5t46.5 6.5q28 0 28 -36zM395 126
q0 51 -10 91v74q0 11 -3 45.5t-3 46.5q0 7 4.5 32t4.5 31q0 26 -5 64t-5 44q0 7 2 38t2 36q0 9 4 20.5t4 19.5q0 14 -18 14q-19 0 -19 -64q0 -4 -1.5 -14.5t-1.5 -13.5t1.5 -19t1.5 -20q0 -14 -3 -48l-3 -34q0 -15 4.5 -32t4.5 -18q0 -8 -3.5 -19.5t-3.5 -15.5
q0 -2 1.5 -7.5t1.5 -8.5q0 -2 -1.5 -6.5t-1.5 -5.5q0 -3 3.5 -16.5t3.5 -17.5q0 -26 -3 -39q-7 -30 -7 -50q0 -8 5.5 -40t5.5 -48q0 -6 -5.5 -21.5t-5.5 -19.5q0 -9 1 -20t1 -18q0 -11 -11.5 -35.5t-11.5 -42.5q0 -12 -9.5 -21.5t-9.5 -16.5q0 -20 8 -20q15 0 26 36
q2 6 10 13q19 16 19 21q0 16 8.5 24.5t8.5 14.5v14q-1 10 -1 14q0 9 5 33t5 26z" />
    <glyph glyph-name="germandbls" unicode="&#xdf;" horiz-adv-x="493" 
d="M459 241q0 -61 -1 -74q-4 -41 -19 -70v-13q-56 -77 -103 -77l-10.5 2t-17.5 2q-37 0 -41 11q-2 5 -17.5 11.5t-24.5 25.5q-7 16 -7 30q0 58 48 58q23 0 38 -13q11 -10 11 -19q0 -2 -4 -13t-4 -13l4 -3q0 -35 10 -35q26 0 27 27q23 12 23 102q0 29 -13 58q-6 13 -6 32
q0 26 -24 47q-8 7 -13 21q-12 35 -42 35q-41 0 -50 5l8 27q66 11 78 33q2 14 12 38q14 19 14 64q0 67 -9 67q0 13 -11.5 24.5l-22 23t-22.5 11.5t-30 -8q-25 -10 -31 -12q-29 -8 -29 -69q0 -5 1 -21t1 -21t-2.5 -25t-2.5 -25q0 -3 1 -22t1 -32q0 -14 -2 -33l-2 -19
q5 -14 5 -40q0 -33 -8 -78q4 -60 4 -49v-60q0 -13 -4 -24q2 -1 4 -5q0 -29 2 -48q3 -29 3 -44q0 -26 -34 -26q-10 0 -26 -3.5t-19 -3.5q-7 0 -20.5 2.5t-19.5 2.5t-17 -1.5t-13 -1.5q-15 0 -15 14q0 17 16 25q44 22 44 50q4 0 4 41q5 3 5 48q0 11 -2.5 47.5t-2.5 43.5
q0 1 4 13t4 24q0 3 -2 12.5t-2 12.5q0 8 2 26q-6 18 -20.5 20t-27 4.5t-12.5 16.5q0 2 4.5 9.5t4.5 16.5q19 11 29 11q6 0 12 8t6 17q0 2 -2.5 21.5t-2.5 22.5q0 16 8 49.5t14.5 38t6.5 13.5t7 14.5t14 19.5q13 24 50 45q17 10 32.5 23t40.5 13q3 0 35 -9t44 -9
q14 -11 29 -16t36 -51q7 -12 21 -30q16 -14 16 -43q0 -93 -24 -106q-77 -42 -77 -56q0 -10 46 -32q29 -14 55.5 -53.5t26.5 -73.5z" />
    <glyph glyph-name="acute" unicode="&#xb4;" horiz-adv-x="333" 
d="M304 587q0 -25 -19 -37v-2q-6 0 -10.5 -5.5t-9.5 -6.5q-17 -7 -22 -12l-2 1q-1 -2 -4.5 -4t-12.5 -6q-26 -4 -37 -15q-7 -7 -23 -13q-5 -1 -13 -7q-2 -2 -16 -7q-9 -9 -24 -9q-11 0 -11 15q0 8 15.5 22.5t27.5 19.5q4 2 8 10t11 10q11 2 11 10q0 5 20 19q5 5 6 8
q18 7 31 28q3 4 16.5 9t19.5 5q38 0 38 -33z" />
    <glyph glyph-name="dieresis" unicode="&#xa8;" horiz-adv-x="333" 
d="M298 508q0 -7 -5.5 -12t-13.5 -16t-32 -11q-1 0 -4 1.5t-4 1.5h-7q-5 0 -11 3.5t-10 3.5t-13.5 15t-9.5 32t11 31q9 11 14 11q10 0 10 4q6 0 14 1.5t10 1.5q23 0 34 -13q7 -9 15 -36v-9q0 -1 1 -4t1 -5zM143 523q0 -15 -2 -21q-10 -5 -10 -11.5t-12 -12t-23 -5.5
q-2 0 -6 1.5t-5 1.5q5 0 -17 -2q-5 3 -12 5q-18 4 -22 17q1 3 1 12v8q-1 6 -1 10q8 16 8 20q5 8 9 17q10 13 37 13q19 0 35 -7.5t16 -16.5q0 -2 2 -7t2 -22z" />
    <glyph glyph-name="AE" unicode="&#xc6;" horiz-adv-x="882" 
d="M852 624q0 -36 -22 -36q-13 0 -24 24q-10 21 -25 33q-32 25 -50 25q-14 0 -29 6q-18 7 -28 7q-8 0 -24 -6t-25 -6q-2 0 -11.5 1.5t-12.5 1.5q-56 0 -56 -30q0 -9 6 -29t6 -30q0 -6 -6 -17t-6 -12q0 -16 3.5 -62.5t3.5 -70.5q7 -14 33 -14q42 0 85 49q17 20 28 20
q10 0 19 -25q8 -20 8 -28q0 -7 -5 -26t-5 -20q0 -5 5.5 -17t5.5 -19q0 -2 -1.5 -7.5t-1.5 -8.5q0 -2 1.5 -10t1.5 -11q0 -33 -26 -33q-24 0 -32 18q-14 32 -37 32q-13 0 -20 7q-11 12 -40 12q-32 0 -32 -20q0 -2 3.5 -8.5t4.5 -9.5q8 -37 8 -49q0 -3 -10 -41q10 -22 10 -46
q0 -39 -4 -75q3 -8 11 -17q26 -27 107 -27q89 0 122 116q4 13 29 13q24 0 24 -38q0 -19 -6 -49q5 -27 5 -54q0 -38 -52 -38h-78q-5 0 -21.5 -2.5t-22.5 -2.5q-7 0 -41 3t-48 3q-2 0 -20 -1h-24q-5 0 -16 1t-14 1q-12 -6 -46 -6h-65q-33 0 -33 12q0 11 22 27q32 24 37 49
q8 41 8 53v22q-1 15 -1 22t1 20.5t1 19.5q0 4 -3.5 23t-3.5 37q0 44 -18 44q-6 0 -27 -3t-28 -3q-8 0 -37 3.5t-35 3.5q-26 0 -55 -36q-6 -15 -19 -39q-20 -23 -22 -36q-4 -21 -30 -55q-23 -30 -23 -51q0 -28 8 -36q32 -31 32 -39q0 -32 -50 -32q-2 0 -13 1t-13 1
q-7 0 -33 -8q-10 -3 -21 -3q-23 0 -54 9q-25 8 -25 30q0 16 50 39q55 26 74 93q8 28 54 78q15 17 39 58q10 17 31.5 43t28.5 29q0 1 -1.5 3t-0.5 4q13 15 23.5 41.5t24 37.5t11.5 25q23 26 25 43q14 8 19 28q14 15 32 43q3 12 14.5 28t11.5 27q0 15 -22 28q-28 17 -28 34
q0 9 8 18t17 9h27q2 0 20 -3.5t19 -3.5q26 0 67 11q62 -7 193 -7q38 0 75 4.5t35 4.5q37 0 37 -22q0 -4 -1 -17.5t-1 -19.5q0 -11 5 -32t5 -31zM432 506q-1 4 -3 25t-15 21q-10 0 -20.5 -10.5t-12.5 -20.5q-5 -19 -27 -53q-12 -16 -23.5 -34t-11.5 -36q0 -27 47 -27
q53 0 60 27q-4 20 -4 58q0 17 10 50z" />
    <glyph glyph-name="Oslash" unicode="&#xd8;" horiz-adv-x="840" 
d="M802 410q0 -13 -7 -23q0 -11 1 -38t1 -39q0 -31 -3 -39q-6 -15 -14 -38q-35 -116 -164 -200q-39 -25 -92 -31q-70 -8 -172 -8q-28 0 -72 18.5t-66 39.5q-11 -4 -18 -12q-3 -17 -26 -34.5t-27 -25t-38 -7.5q-4 0 -9.5 5.5t-4.5 11.5q3 20 32 55q6 7 24 20q13 9 13 30
q0 16 -30 45q-15 14 -29 39q-2 4 -36 49q-5 7 -12 27q-15 45 -15 78q0 3 5 13t5 12q0 9 -5 26.5t-5 25.5q0 7 13 41q15 40 17.5 49.5t18 27t18.5 23.5q27 55 65 81q9 6 25 21q12 11 16 11q16 0 36 20q7 7 35 7q3 0 21 9.5t24 9.5q-5 0 58 3q7 0 12 3.5t34 3.5q122 0 181 -33
q2 -1 16 -14q11 -9 19 -9q13 0 44 40q17 22 39 22q20 0 20 -21q0 -26 -11 -32q-22 -12 -28.5 -31.5t-21.5 -33.5q25 -41 63 -70q16 -12 20 -32t12 -35q18 -35 18 -61zM577 577q0 18 -44 50q-11 8 -27.5 31.5t-72.5 23.5t-116 -37q-21 -13 -77 -85q-9 -10 -11 -40
q-2 -26 -21 -47q-27 -30 -27 -46q0 -10 13 -19.5t13 -27.5q0 -4 -3 -19.5t-3 -18.5q0 -10 1 -31v-31q0 -5 5 -21t5 -17t-1.5 -16.5t-1.5 -26.5q8 -13 22 -38q1 7 37 48q33 37 44 46q39 33 59 71q3 7 10 19q19 13 30 27q25 30 30 40q92 120 112 136q24 20 24 29zM671 306
q0 6 -7 40.5t-7 57.5q0 2 3 20t3 22.5t3.5 14t3.5 14.5q0 13 -14 32t-30 30q-12 -2 -34 -22t-26 -35q-5 -18 -20 -25q-9 -4 -28 -31q-17 -23 -21 -33q-21 -14 -81 -88q-56 -69 -75 -100q-9 -4 -20 -24q-4 -9 -17 -22q-35 -18 -35 -35q0 -16 15 -21q24 -8 36 -17
q30 -22 80 -22q8 0 24.5 -10.5t22.5 -10.5q20 0 35 9q33 11 77 33q12 14 38 37q33 21 34 30q2 17 14 41q1 2 0 8q-2 8 -2 9q0 10 9 40t17 43q2 3 2 15z" />
    <glyph glyph-name="yen" unicode="&#xa5;" 
d="M500 686q0 -13 -21 -19q-15 -4 -28 -30q-21 -46 -71 -132q-2 -13 -13 -34q-27 -24 -27 -34q0 -7 24 -7q7 0 18 -1t15 -1q7 0 16.5 2t12.5 2t6.5 -2t4.5 -2q3 0 8.5 2t7.5 2q21 0 21 -46q0 -16 -9.5 -19.5t-38.5 -3.5q-17 0 -24 -3q-9 0 -38 3q-33 4 -36 4q0 -4 -10.5 -4
t-13.5 -8.5t-3 -35.5q0 -55 10 -55q26 0 58 5l6 -6l19 4t32 4q25 0 36.5 -6t11.5 -28q0 -8 -4 -21.5t-8 -13.5q-2 0 -12.5 1.5t-13.5 1.5q-12 0 -31 -2t-20 -2q-5 0 -27.5 4t-34.5 4q-27 0 -27 -19q0 -18 2 -25q13 -48 16 -80q2 -17 19 -34q28 -28 28 -36q0 -29 -34 -29
l-36.5 8t-62.5 8q-9 0 -23.5 -4t-22.5 -4q-23 0 -23 15q0 10 19 27q30 27 30 65q0 4 -3.5 14.5t-3.5 14.5q0 3 1 26q1 27 2 45q-17 7 -48 7q-5 0 -14.5 -1.5t-10.5 -1.5q-7 0 -18.5 1t-15.5 1q-7 0 -16 -2t-12 -2t-6.5 2t-4.5 2q-3 0 -9 -2t-8 -2q-21 0 -21 46q0 15 11 20
q8 3 38 3q17 0 24 3q7 0 63 -4q0 4 10 4q34 0 34 12q0 -3 -3 24q3 8 3 12q0 38 -23 48q-48 -2 -51 -5l-6 6l-19 -4t-32 -4q-49 0 -49 34q0 8 4 21.5t8 13.5q2 0 12.5 -1.5t13.5 -1.5q13 0 32 2l19 2q6 0 19 1.5t17 1.5q0 15 -7 15t-16 25q-5 14 -18 27q-6 6 -6 21
q-41 38 -41 62q-26 17 -42 64q-5 16 -23 27q-33 20 -33 30q0 24 37 24q26 0 52.5 -3.5t34.5 -3.5q10 0 24 7t26 7q38 0 38 -41q0 1 -11 -19q-9 -16 -9 -21q0 -6 9 -19t9 -50q0 -13 17 -30q13 -10 18 -36q3 -15 12 -15q6 0 15.5 -9t12.5 -22t13 -26t17 -13q10 0 22 39
q13 0 13 16t13 27t13 19.5t17 35.5q21 33 21 69q0 18 -16 29q-22 16 -22 31q0 11 10 26q36 3 81 3q41 0 55 -8q19 -10 19 -39z" />
    <glyph glyph-name="ordfeminine" unicode="&#xaa;" horiz-adv-x="420" 
d="M414 388q0 -23 -18 -45q-13 -15 -25 -42q-16 -35 -16 -45.5t-23.5 -46t-23.5 -45t-12 -39t-24 -49.5q-19 -31 -25 -56q-13 -55 -43 -124q-14 -32 -38 -102q-9 -36 -18 -46q-16 -17 -21 -49q-6 -37 -44 -37q-1 0 -11.5 3t-18 3t-13.5 4q-10 2 -20.5 4.5t-10.5 14.5
q0 4 4 16.5t4 17.5q10 10 15.5 25t9.5 20q15 16 28 48q15 36 65 122v6q35 42 45 106q21 15 24 31q4 25 21 45t18 35q1 25 26 43q0 9 13.5 37t13.5 44q0 23 -28 23q-16 0 -53 -2t-53 -2h-30q-36 0 -50.5 -20t-31.5 -20q-19 0 -19 23q0 13 4 19q12 18 14.5 36.5t7 25.5t4.5 39
q0 27 29 27q23 0 54.5 -19t45.5 -19q9 0 25.5 2.5t24.5 2.5q10 0 18 -1l7 -3q6 3 34 3q22 0 59.5 3.5t41.5 3.5q3 0 8.5 -8.5t5.5 -12.5z" />
    <glyph glyph-name="ordmasculine" unicode="&#xba;" horiz-adv-x="496" 
d="M459 216q0 -30 -14 -70q-16 -46 -35 -69t-69 -54q-37 -23 -69 -23q-10 0 -27.5 -2t-26 -2t-21 -1t-13.5 -1q-39 0 -56 17q-11 11 -34 20t-38 47.5t-15 89.5q0 81 31 117q1 2 1 7q12 6 29 29q3 4 25 19q19 13 19 17q0 20 -16 20q-6 0 -11 14q-6 18 -20 25.5t-21 34.5
q-2 9 -14 19q0 5 -2.5 23t-2.5 26q0 63 17 86q39 52 78 92q6 6 25 6q9 0 38 14q17 8 50 8q14 0 53 -11.5t42 -11.5q0 -10 24 -29q49 -39 49 -93q0 -3 -1.5 -11.5t-1.5 -12.5q0 -7 2.5 -21t2.5 -22q0 -30 -19 -60q-15 -24 -28 -29q-37 -15 -37 -33q0 -10 10 -14q19 -7 31 -19
q15 -15 25 -37q12 -25 20 -32q12 -11 12 -35q0 -7 4 -21.5t4 -16.5zM372 538q0 3 -3.5 18t-3.5 24q0 23 -29 59q-11 0 -17 12q-9 17 -64 17q-115 0 -115 -112q0 -35 10.5 -56.5t37.5 -36.5q31 -18 38 -27q17 0 32 -8.5t30 -8.5q18 0 36.5 16.5t24.5 35.5q2 7 12.5 25.5
t10.5 41.5zM376 168q0 22 -16 46q-23 36 -25 41q-13 0 -20 12q-4 6 -11 9q-10 4 -26 22q-10 12 -28 12q-3 0 -22.5 7.5t-26.5 7.5q-39 0 -69 -30q-47 -46 -47 -104q0 -108 61 -127q54 -17 65 -17q105 0 154 81q1 5 7 21q4 12 4 19z" />
    <glyph glyph-name="ae" unicode="&#xe6;" horiz-adv-x="545" 
d="M518 288q0 -22 -26 -22q-12 0 -18.5 5t-16.5 5h-49q-20 -6 -53 -6q-6 0 -26.5 1t-31.5 1q-28 0 -35 -19q-4 -10 -4 -55q0 -20 8 -20q-4 -7 -4 -14t16.5 -32t30 -29.5t26.5 -14.5q8 -6 33 -6h81q18 16 36 16t18 -29q0 -12 -5 -18t-5 -9q0 -21 -35 -35q-41 -16 -116 -16
q-43 0 -63 16q-7 8 -24 19q-25 7 -34 24q-17 0 -54 -42q-10 -11 -40 -11q-33 0 -46 9t-21 13q-4 2 -12.5 31t-8.5 41q0 38 10 48q5 5 5 10.5t5 9.5t5 7q0 21 22 21q6 0 8 2q7 7 37 19q55 23 55 106q0 31 -19 31q-8 0 -22 -14q-19 -18 -56 -18t-37 19q0 9 17 33l24 33
q5 3 31 12t35 9q8 0 43 -10.5t53 -38.5q19 14 23 21.5t28 16t48 8.5q32 0 53 -11h13q25 0 57.5 -37.5t32.5 -59.5q0 -2 4 -9.5t4 -10.5zM390 333q0 7 -11.5 17t-21.5 13q-6 -6 -21.5 -6t-28 -7t-12.5 -17q0 -14 26 -14q37 0 67 6q0 2 1 4.5t1 3.5zM194 103q0 33 -4.5 33
t-4.5 9q0 32 -1 48q-2 5 -8 5q-10 0 -28.5 -25t-18.5 -42q0 -59 34 -59q20 0 27 24q4 0 4 7z" />
    <glyph glyph-name="oslash" unicode="&#xf8;" 
d="M459 390q0 -22 -16 -30q-30 -3 -30 -22q0 -3 7.5 -15.5t7.5 -19.5q0 -10 6 -34t6 -37q0 -5 2.5 -26.5t2.5 -40.5q0 -30 -7 -46q-5 -12 -26 -39q-16 -20 -25 -25q-42 -21 -57 -32q-27 -20 -88 -20q-24 0 -63 10.5t-73 33.5l-3 4q-26 -18 -32.5 -32.5t-41.5 -14.5
q-3 0 -7 10.5t-4 17.5q0 6 14.5 17.5t18.5 18.5l8 6q8 5 8 9l-17 32t-17 55q0 40 4 46q-6 22 -6 44q8 25 29 63q2 10 12 29q11 11 51 35t53.5 27.5t48.5 3.5q27 0 44 -9q11 -6 28 -6t45.5 -11t37.5 -23q13 11 20 15q4 3 16 18q8 10 22 10q21 0 21 -22zM321 316q-3 7 -10 13
q-12 9 -36 18q-4 0 -9 1q-8 12 -51 12q-32 0 -41 -9q-20 -20 -42.5 -47.5t-22.5 -57.5q0 -6 6 -22t7 -23q3 -32 12 -54l8 -3q32 24 53 60q35 20 69 58q27 30 57 54zM365 199q0 2 -4.5 7t-4.5 12q0 5 1 13.5t1 11.5q0 26 -14 26q-7 0 -17.5 -12.5t-13.5 -19.5
q-41 -21 -119 -105l-4 1q-19 -15 -42 -43q25 -36 105 -36q33 0 50 11.5t31 46.5q6 5 17 19q14 27 14 68z" />
    <glyph glyph-name="questiondown" unicode="&#xbf;" horiz-adv-x="336" 
d="M238 399l-2 -8.5t-2 -14.5q0 -2 1.5 -5.5t1.5 -6.5q0 -6 -8 -12q-11 -8 -26 -8q-27 0 -43 24q0 13 -4 17q0 21 12.5 39t32.5 18q16 0 26.5 -13.5t10.5 -29.5zM312 -169q0 -36 -27 -69q0 -17 -10 -21q-17 -7 -26 -18q-19 -23 -69 -23q-65 0 -91 16q-13 8 -22 8
q-1 4 -18 20q-44 41 -44 74v67q0 8 -1.5 22t-1.5 21q0 13 26 57q4 7 8 25t26 35q36 28 46.5 49.5t32.5 40.5q32 28 32 59q8 3 8 26v20q-1 14 -1 21q0 4 7 9.5t12 5.5q30 0 30 -41q0 -40 -12 -74q0 -30 -7 -40q-28 -40 -40 -67q-19 -22 -25 -41q-33 -43 -42.5 -72.5
t-9.5 -81.5q0 -17 23 -59q25 -45 43 -45q4 0 22 -1h27q17 0 27 15t10 33q0 3 -7 19q0 18 -3.5 38t-3.5 21q0 24 39 24q41 0 41 -54q0 -2 1 -8v-11z" />
    <glyph glyph-name="exclamdown" unicode="&#xa1;" horiz-adv-x="228" 
d="M163 367q0 -22 -55 -22q-22 9 -40 9q-10 6 -10 30q0 21 3.5 22t3.5 12q5 3 5 8q0 12 26 12q22 0 30 -4.5l18 -10.5q6 -3 12.5 -16.5t6.5 -18.5v-5q-1 -3 -1 -5t1 -6v-5zM167 -206q0 -5 -3 -18t-3 -20q0 -11 -6 -25.5t-6 -16.5q-12 -8 -17 -14q-17 0 -34 2t-21 2
q-8 0 -16 11t-8 31q0 10 4 20l-4 4q4 11 4 26q0 2 -1.5 9.5t-1.5 8.5q0 2 3 10.5t3 12.5l-3 21l3 5q0 3 -1.5 8t-1.5 6q0 2 2.5 12.5t2.5 18.5q15 42 15 122q0 11 -1.5 21.5t-1.5 11.5q0 2 1.5 7t1.5 6q0 9 -2 29t-2 31q0 17 15 34q1 19 3 65q10 6 22 6q16 0 28 -19
q0 -41 5 -54q-2 -8 -2 -44q0 -2 3 -8.5t3 -8.5q0 -12 -2 -23q-4 -21 -4 -27q0 -5 6.5 -61.5t6.5 -86.5l5 -22q-3 -15 -3 -12q0 -6 2.5 -17t2.5 -12q0 -2 -1 -7t-1 -6q0 -2 2.5 -14t2.5 -25z" />
    <glyph glyph-name="florin" unicode="&#x192;" 
d="M453 653q0 -18 -9.5 -34t-19.5 -16q-3 0 -8.5 -3.5t-6.5 -3.5q-8 0 -26.5 14.5t-18.5 21.5q0 3 1.5 8t1.5 7q0 24 -9 24q-24 0 -38 -27q-11 -21 -11 -46q0 -5 1 -26.5t1 -26.5t-2.5 -30t-2.5 -30q0 -97 13 -97q6 0 16 4q4 -2 35.5 -2t31.5 -9q0 -27 -19 -41h-45
q-25 0 -25 -21v-21q0 -27 1 -50q0 -7 -3.5 -23.5t-3.5 -26.5v-61q0 -13 -4 -24q2 -1 4 -5q0 -92 -18 -118q-6 -9 -6 -13q0 -10 -7 -15.5t-14 -19.5q-13 -23 -53 -46q-19 -11 -33 -23q-23 -20 -58 -20q-21 0 -35 22t-14 44q0 25 13 48q0 10 17 19q14 7 25 7q13 0 24 -14
t12 -29t25 -15q26 0 26 66q0 5 -1.5 23t-1.5 23q0 90 2.5 96.5t2.5 9.5t-1 8.5t-1 7.5q0 5 3 16.5t3 17.5q0 11 -1 31.5t-1 30.5q0 3 -2 12.5t-2 12.5t1 10t1 9q-10 27 -42 27t-32 12q-7 6 -7 14q0 4 5 9.5t5 8.5q10 6 49 6q5 0 11.5 15.5t6.5 25.5q0 2 -2.5 38t-2.5 39
q0 17 8 55.5t14 43t7 14.5t7.5 15t13.5 19q17 32 53 46q25 10 41.5 23.5t41.5 13.5q20 0 41.5 -15t21.5 -23v-43z" />
    <glyph glyph-name="guillemotleft" unicode="&#xab;" horiz-adv-x="549" 
d="M493 61q-2 -25 -17 -25q-32 0 -41.5 17.5t-41.5 33.5q-27 13 -46 39q-21 20 -67 35q-22 7 -22 43q0 23 16 30q20 9 35 37q8 0 34 20q5 11 22 23q37 26 66 59q4 5 17 12t17 7q6 0 14 -5t8 -13q0 -21 -12 -30q-21 -15 -40 -41l-1 -9q-15 -6 -33 -43q-6 -12 -29 -28
q-10 -7 -10 -13q0 -17 27 -27q8 -3 15.5 -16t16.5 -17q15 -7 23 -31q6 -18 29 -28q19 -9 20 -30zM280 367q-1 -21 -23 -31q-17 -8 -26 -27q-12 -26 -23 -31q-20 -8 -32 -33q-5 -11 -16 -14t-11 -13q0 -7 10 -13q23 -15 29 -28q18 -39 33 -43l1 -9q24 -29 40 -41
q12 -9 12 -30q0 -8 -8 -13t-14 -5q-5 0 -18 7.5t-16 11.5q-23 31 -43 43q-37 21 -45 39q-26 20 -34 20q-15 28 -35 37q-16 7 -16 30q0 36 22 43q51 17 67 35q27 30 45 38.5t46 38.5q12 13 38 13q8 0 8 -13q0 -3 9 -12z" />
    <glyph glyph-name="guillemotright" unicode="&#xbb;" horiz-adv-x="549" 
d="M504 204q0 -36 -22 -43q-51 -17 -67 -35q-27 -30 -45 -38.5t-46 -38.5q-12 -13 -38 -13q-8 0 -8 13q0 3 -9 12q1 21 23 31q17 8 26 27q12 26 23 31q20 8 32 33q5 11 16 14t11 13q0 7 -10 13q-23 15 -29 28q-18 39 -33 43l-1 9q-24 29 -40 41q-12 9 -12 30q0 8 8 13t14 5
q5 0 18 -7.5t16 -11.5q23 -31 43 -43q37 -21 45 -39q26 -20 34 -20q15 -28 35 -37q16 -7 16 -30zM291 224q0 -23 -16 -30q-20 -9 -35 -37q-8 0 -34 -20q-5 -11 -22 -23q-37 -26 -66 -59q-4 -5 -17 -12t-17 -7q-6 0 -14 5t-8 13q0 21 12 30q21 15 40 41l1 9q15 6 33 43
q6 12 29 28q10 7 10 13q0 17 -27 27q-8 3 -15.5 16t-16.5 17q-15 7 -23 31q-6 18 -29 28q-19 9 -20 30q2 25 17 25q32 0 41.5 -17.5t41.5 -33.5q27 -13 46 -39q8 -8 67 -35q22 -10 22 -43z" />
    <glyph glyph-name="OE" unicode="&#x152;" horiz-adv-x="1111" 
d="M1080 624q0 -36 -22 -36q-13 0 -24 24q-8 17 -25 30q-37 28 -50.5 28t-28.5 6q-18 7 -28 7q-8 0 -24 -6t-25 -6q-2 0 -11.5 1.5t-12.5 1.5q-56 0 -56 -33q0 -1 9 -37q3 -12 3 -19q0 -6 -6 -17t-6 -12q0 -16 3.5 -62.5t3.5 -70.5q7 -14 31 -14q44 0 87 49q16 18 28 18
q10 0 19 -22q8 -18 8 -26t-5 -25t-5 -24q0 -5 5.5 -17t5.5 -19q0 -2 -1.5 -7.5t-1.5 -8.5q0 -2 1.5 -10t1.5 -11q0 -34 -26 -34q-22 0 -29 16q-15 35 -37 35q-16 0 -23 7q-11 12 -40 12q-32 0 -32 -17q0 -2 3.5 -8.5t4.5 -9.5q8 -37 8 -52q0 -3 -10 -41q10 -22 10 -46
q0 -39 -4 -75q3 -8 11 -17q26 -27 107 -27q89 0 122 116q4 13 29 13q24 0 24 -38q0 -19 -6 -49q5 -27 5 -54q0 -38 -52 -38h-78q-5 0 -21.5 -2.5t-22.5 -2.5q-7 0 -41 3t-48 3q-2 0 -20 -1h-24q-5 0 -16 1t-14 1q-12 -6 -36 -6q-31 0 -31 47q0 24 -14 24q-8 0 -51 -34
q-34 -27 -78 -32q-70 -8 -172 -8q-22 0 -70 19.5t-58 30.5q-20 20 -51 42q-2 2 -8 14q-8 19 -35 44q-13 12 -29 41l-36 50q-5 7 -12 28q-15 46 -15 80q0 3 5 13.5t5 12.5q0 9 -5 27.5t-5 26.5q0 7 13 42q14 40 17 50.5t18.5 28.5t18.5 24q27 56 65 83q9 6 25 22q12 11 16 11
q15 0 36 21q7 7 35 7q3 0 21 10t24 10q-5 0 58 3q7 0 12 3.5t34 3.5q105 0 154.5 -36t58.5 -36q15 0 20 29t30 40q17 7 54 7q62 -7 177 -7q38 0 75 4.5t35 4.5q37 0 37 -22q0 -4 -1 -17.5t-1 -19.5q0 -11 5 -32t5 -31zM663 313q0 7 -7 42.5t-7 58.5q0 2 3 21t3 24t3.5 15
t3.5 14q0 17 -20.5 46t-37.5 36q-21 8 -17 26q-7 11 -54 45q-10 8 -27.5 32.5t-72.5 24.5q-53 0 -114 -38q-19 -12 -41 -39q-31 -38 -37 -44q-10 -10 -12 -43q-2 -28 -21 -49t-19 -47q0 -16 6 -21q12 -10 12 -27q0 -4 -3 -20t-3 -19q0 -10 1 -32v-32q0 -5 3 -21.5t3 -17.5
v-17q-1 -17 -1 -28q22 -40 38 -76q10 -21 33 -28q14 -4 36 -14q31 -23 82 -23q8 0 22.5 -10.5t20.5 -10.5q24 0 39 9q31 11 73 34q12 13 38 35q32 21 34 34q2 18 14 42q1 2 0 9q-2 8 -2 9q0 11 9 41t17 44q2 3 2 15z" />
    <glyph glyph-name="oe" unicode="&#x153;" horiz-adv-x="721" 
d="M694 288q0 -22 -26 -22q-12 0 -18.5 5t-16.5 5h-49q-20 -6 -53 -6q-6 0 -26.5 1t-31.5 1q-28 0 -35 -19q-4 -10 -4 -55q0 -20 8 -20q-4 -7 -4 -14t16.5 -32t30 -29.5t26.5 -14.5q8 -6 33 -6h81q18 16 36 16t18 -29q0 -12 -5 -18t-5 -9q0 -21 -35 -35q-41 -16 -116 -16
t-102 45q-5 0 -9 13t-13 13q-6 0 -48 -39q-21 -20 -104 -20q-24 0 -64 11q-63 17 -104 60.5t-41 95.5q0 40 4 46q-6 22 -6 44q8 25 29 63q2 10 12 29q11 11 51 35t53.5 27.5t48.5 3.5q27 0 44 -9q11 -6 28 -6q36 0 75 -31q2 -5 12 -14.5t14 -9.5q2 0 8 8t12 12q14 8 32 22
q7 9 32 17.5t48 8.5q32 0 53 -11h13q25 0 57.5 -37.5t32.5 -59.5q0 -2 4 -9.5t4 -10.5zM566 333q0 7 -11.5 17t-21.5 13q-6 -6 -21.5 -6t-28 -7t-12.5 -17q0 -14 26 -14q37 0 67 6q0 2 1 4.5t1 3.5zM365 199q0 2 -4.5 7t-4.5 12q0 24 -16 51l1 6q-15 7 -17 26t-13 28t-36 18
q-4 0 -9 1q-7 9 -13 10q-9 2 -38 2q-32 0 -41 -9q-25 -26 -42 -47q-23 -28 -23 -58q0 -6 6 -22t7 -23q3 -35 10 -49q12 -24 12 -52q0 -15 26 -29q32 -17 83 -17q33 0 50 11.5t31 46.5q6 5 17 19q14 27 14 68z" />
    <glyph glyph-name="endash" unicode="&#x2013;" horiz-adv-x="500" 
d="M515 210q0 -7 -5 -18.5t-9 -11.5q-2 0 -14.5 1.5t-15.5 1.5q-14 0 -37 -2l-23 -2q-7 0 -32.5 3.5t-39.5 3.5q-49 -11 -77 -2q-10 0 -36.5 -2.5t-28.5 -2.5q-4 0 -26 3t-27 3q-6 0 -17 -1t-13 -1q-8 0 -21 1h-18q-8 0 -19 -1.5t-14 -1.5t-7.5 1.5t-5.5 1.5q-3 0 -10 -1.5
t-9 -1.5q-4 0 -19 9q-6 4 -6 31q0 13 13 17q10 3 44 3q20 0 28 2q29 0 80 -3q0 3 12 3q3 0 20.5 2t24.5 2q18 0 44 -7t29 -7q105 0 112 5l6 -5l22.5 3.5t37.5 3.5q57 0 57 -30z" />
    <glyph glyph-name="emdash" unicode="&#x2014;" horiz-adv-x="1000" 
d="M1015 203q0 -23 -47 -23q-16 0 -23 -2q-54 0 -96 3q0 -3 -10 -3q-3 0 -24 -2t-27 -2q-15 0 -37 7t-24 7q-86 0 -94 -5l-5 5l-25.5 -5t-38.5 -5q-12 0 -41.5 2.5t-42.5 2.5q-12 0 -30.5 -2t-19.5 -2q-5 0 -27 3.5t-34 3.5q-14 -4 -50 -4q-36 -1 -44 2q-9 0 -30.5 -2.5
t-23.5 -2.5q-3 0 -21.5 3t-22.5 3q-5 0 -14.5 -1t-10.5 -1q-6 0 -46 1h-44q-6 0 -15 -1.5t-12 -1.5t-8 1.5t-6 1.5q-3 0 -8.5 -1.5t-7.5 -1.5q-13 0 -18 14q-2 6 -2 23t18 22q6 1 32 1q16 0 23 2q82 0 124 -3q0 3 10 3q3 0 17 2t20 2q15 0 37 -7t24 -7q88 0 95 5l5 -5
l18.5 3.5t30.5 3.5t36.5 1.5t30.5 1.5q8 0 27 -2.5t20 -2.5q12 0 30.5 2t19.5 2q6 0 28 -3.5t33 -3.5q14 4 42 4q28 1 36 -2q9 0 30.5 2.5t23.5 2.5q3 0 28.5 -3t29.5 -3q5 0 28.5 1t24.5 1h18q12 -1 16 -1q6 0 15 1.5t12 1.5t6.5 -1.5t4.5 -1.5q3 0 8.5 1.5t7.5 1.5
q20 0 20 -37z" />
    <glyph glyph-name="quotedblleft" unicode="&#x201c;" horiz-adv-x="355" 
d="M321 627q0 -2 -2 -6t-2 -6q0 -37 -48 -37q-20 0 -40 8q-24 10 -24 24q0 4 -3.5 14.5t-3.5 13.5q0 6 4 19t4 19q0 38 36 55q15 5 35 15q27 0 27 -5q0 -20 -12 -23q-5 -1 -11 -10.5t-6 -15.5q0 -11 8 -14q12 -4 26 -16q8 -7 8 -16q0 -2 2 -9t2 -10zM159 625q0 -2 -2 -6
t-2 -6q0 -16 -23 -27q-19 -10 -37 -10q-2 0 -7.5 2t-9.5 2h-5q-3 -1 -5 -1q-13 4 -22.5 14t-9.5 16t-5 8q0 2 1 3t1 2q0 21 7.5 48t17.5 31q0 14 25 30q6 2 15.5 5.5t13.5 4.5q29 0 29 -13q0 -3 -6 -9t-8 -6q-5 0 -11 -8t-6 -14q0 -11 8 -14q12 -4 26 -16q11 -9 11 -15
t2 -12t2 -9z" />
    <glyph glyph-name="quotedblright" unicode="&#x201d;" horiz-adv-x="355" 
d="M322 686q0 -6 -4 -19t-4 -19q0 -38 -36 -55q-14 -5 -35 -15q-27 0 -27 5q0 20 12 23q5 1 11 10.5t6 15.5q0 11 -8 14q-12 4 -26 16q-8 7 -8 16q0 3 -2 9.5t-2 9.5q0 2 2 6t2 6q0 37 48 37q20 0 40 -8q24 -10 24 -24q0 -3 3.5 -13.5t3.5 -14.5zM159 700l-2 -5
q0 -21 -7.5 -48t-17.5 -31q0 -14 -25 -30q-6 -2 -15.5 -5.5t-13.5 -4.5q-29 0 -29 13q0 3 6 9t9.5 6t9.5 8t6 14q0 10 -13 17q-19 11 -21 13q-11 11 -11 15t-2 11t-2 10q0 2 2 6t2 6q0 16 23 27q19 10 37 10q2 0 7.5 -2t9.5 -2q1 0 5 1h5q13 -4 22.5 -14t9.5 -16t5 -8z" />
    <glyph glyph-name="quoteleft" unicode="&#x2018;" horiz-adv-x="190" 
d="M156 627q0 -2 -2 -6t-2 -6q0 -37 -48 -37q-20 0 -40 8q-24 10 -24 24q0 4 -3.5 14.5t-3.5 13.5q0 6 4 19t4 19q0 38 36 55q15 5 35 15q27 0 27 -5q0 -20 -12 -23q-5 -1 -11 -10.5t-6 -15.5q0 -11 8 -14q13 -5 26 -16q8 -7 8 -16q0 -4 2 -10t2 -9z" />
    <glyph glyph-name="quoteright" unicode="&#x2019;" horiz-adv-x="190" 
d="M159 700l-2 -5q0 -21 -7.5 -48t-17.5 -31q0 -14 -25 -30q-6 -2 -15.5 -5.5t-13.5 -4.5q-29 0 -29 13q0 3 6 9t9.5 6t9.5 8t6 14q0 11 -8 14q-12 4 -26 16q-11 9 -11 16q0 4 -2 10.5t-2 9.5q0 2 2 6t2 6q0 16 23 27q19 10 37 10q2 0 7.5 -2t9.5 -2q1 0 5 1h5
q13 -4 22.5 -14t9.5 -15.5t5 -8.5z" />
    <glyph glyph-name="fraction" unicode="&#x2044;" horiz-adv-x="276" 
d="M383 710q0 -23 -9 -29q-19 -13 -22.5 -33.5t-20.5 -38.5q-28 -29 -40 -73q-32 -14 -36 -42q-3 -19 -15 -26q-8 -5 -21.5 -30.5t-16.5 -36.5q-19 -16 -55 -75q-32 -54 -46 -86q-8 -4 -16 -25q-3 -8 -13 -23q-25 -24 -33 -43.5t-48 -83.5q-2 -18 -21 -37l-22 -27t-32 -13
q-4 0 -13.5 7.5t-9.5 12.5q0 19 23 56q28 35 79 113q5 10 5 16t2 9q7 12 46 59q27 35 38 66q2 7 7 19q16 16 25 30q19 30 23 41q57 105 72 122q50 58 54 89q3 22 52 80q14 17 34 17q5 4 20 4q10 0 10 -19z" />
    <glyph glyph-name="guilsinglleft" unicode="&#x2039;" horiz-adv-x="336" 
d="M280 61q-2 -25 -17 -25q-32 0 -41.5 17.5t-41.5 33.5q-27 13 -46 39q-21 20 -67 35q-22 7 -22 43q0 23 16 30q20 9 35 37q8 0 34 20q5 11 22 23q37 26 66 59q4 5 17 12t17 7q6 0 14 -5t8 -13q0 -21 -12 -30q-21 -15 -40 -41l-1 -9q-15 -6 -33 -43q-6 -12 -29 -28
q-10 -7 -10 -13q0 -17 27 -27q8 -3 15.5 -16t16.5 -17q15 -7 23 -31q6 -18 29 -28q19 -9 20 -30z" />
    <glyph glyph-name="guilsinglright" unicode="&#x203a;" horiz-adv-x="336" 
d="M291 224q0 -23 -16 -30q-20 -9 -35 -37q-8 0 -34 -20q-5 -11 -22 -23q-37 -26 -66 -59q-4 -5 -17 -12t-17 -7q-6 0 -14 5t-8 13q0 21 12 30q21 15 40 41l1 9q15 6 33 43q6 12 29 28q10 7 10 13q0 17 -27 27q-8 3 -15.5 16t-16.5 17q-15 7 -23 31q-6 18 -29 28
q-19 9 -20 30q2 25 17 25q32 0 41.5 -17.5t41.5 -33.5q27 -13 46 -39q21 -20 67 -35q22 -7 22 -43z" />
    <glyph glyph-name="fi" unicode="&#xf001;" horiz-adv-x="486" 
d="M452 22q0 -9 -17 -15.5t-32 -6.5q-2 0 -13 1h-14q-18 0 -33.5 -3.5t-16.5 -3.5h-11q-9 1 -14 1t-9 -1l-4 -1q-25 0 -25 31q0 6 16 19q3 3 15 7.5t16 16.5q0 24 5 57q-3 3 -3 6t3 6q-4 8 -4 16q0 6 1 8q-3 18 -3 80q0 3 1.5 47t1.5 60q0 20 -39 20q-22 0 -24 2q0 -2 -3 -5
q-40 4 -34 4q-25 0 -25 -21v-28q0 10 -12 -58q4 -60 4 -49v-60q0 -13 -4 -24q2 -1 4 -5q0 -76 38 -88q4 -1 9 -10t5 -12q0 -17 -29 -17h-15q-9 9 -37 9q-10 0 -26 -3.5t-19 -3.5q-7 0 -20.5 2.5t-19.5 2.5t-17 -1.5t-13 -1.5q-15 0 -15 14q0 17 16 25q44 22 44 50q4 0 4 41
q5 3 5 48q0 11 -2.5 47.5t-2.5 43.5q0 1 4 13t4 24q0 3 -2 2.5t-2 2.5q0 16 2 34q-6 18 -20.5 20t-27 4.5t-12.5 16.5q0 2 4.5 9.5t4.5 16.5q19 11 29 11q6 0 12 8t6 17q0 2 -2.5 22.5t-2.5 23.5q0 44 16 55q6 4 6 13v6q-1 4 -1 7q0 4 4 10.5t4 10.5q5 37 32.5 52.5
t52.5 39.5q33 32 64 32q13 0 44.5 -9.5t33.5 -14.5q32 -7 53 -28q16 -18 16 -31q0 -2 -1 -8t-1 -9v-15q0 -9 -7 -18.5t-12 -9.5t-14.5 -5.5t-17.5 -5.5q-11 0 -25.5 9.5t-20 20t-23.5 21.5q-21 12 -27 19q-13 15 -25 15q-19 0 -35 -27q-18 -31 -18 -47q0 -5 3 -23.5t3 -23.5
t-2.5 -27.5t-2.5 -27.5q0 -14 8 -35t14 -21q3 0 25 6q12 -6 24 -6h29q33 0 47 6q8 4 22 3q26 -2 21 -2q4 0 11.5 2.5t10.5 2.5q24 0 24 -35q0 -1 -5.5 -39.5t-5.5 -43.5q0 -2 2 -5.5t2 -6.5q0 -2 -6 -20q0 -5 1.5 -24.5t1.5 -29.5q0 -14 -1.5 -33.5t-1.5 -26.5q3 -9 5 -18
q-1 6 -1 -23l3.5 -7.5t3.5 -12.5v-12q-1 -7 -1 -10q0 -10 22 -27q17 -13 17 -35z" />
    <glyph glyph-name="fl" unicode="&#xf002;" horiz-adv-x="484" 
d="M447 21q0 -23 -21 -23q-2 0 -14 4t-16 4q-30 0 -72 -6t-44 -6q-5 0 -12.5 7.5t-7.5 12.5q0 13 17 25q29 20 29 54q0 4 3 13.5t3 13.5q0 13 1 31q3 32 3 62q0 8 -4 14q-3 3 -3 8q0 4 4.5 23t4.5 34q0 16 -4 33t-4 20q5 18 5 34q0 31 -3 41q0 55 -1.5 90.5t-1.5 33.5
q0 49 -18 67q-7 -6 -16 -13q-18 0 -33 20q-9 12 -30 12q-29 0 -29 -53q0 -5 1 -21t1 -21t-2.5 -25t-2.5 -25q0 -14 8 -30t14 -16q3 0 7 2q4 -2 24 -2q33 0 33 -23q0 -15 -30 -24q-10 1 -24 1q-25 0 -25 -21v-33q0 -10 -12 -78q4 -60 4 -49v-60q0 -13 -4 -24l4 -5
q0 -76 38 -88q4 -1 9 -10t5 -12q0 -17 -29 -17h-15q-10 9 -37 9q-10 0 -26 -3.5t-19 -3.5q-7 0 -20.5 2.5t-19.5 2.5t-17 -1.5t-13 -1.5q-15 0 -15 14q0 17 16 25q44 22 44 50q4 0 4 41q5 3 5 48q0 11 -2.5 47.5t-2.5 43.5q0 1 4 13t4 24q0 3 -2 12.5t-2 12.5q0 8 2 26
q-6 18 -20.5 20t-27 4.5t-12.5 16.5q0 2 4.5 9.5t4.5 16.5q19 11 29 11q6 0 12 8t6 17q0 2 -2.5 21.5t-2.5 22.5q0 16 8 49.5t14.5 38t6.5 13.5t7 14.5t14 19.5q13 24 50 45q17 10 32.5 23t42.5 13q4 0 24.5 -18t27.5 -18q6 0 20 13q18 16 19 16q3 8 15.5 15t23.5 7
q33 0 33 -27q0 -1 -2 -8.5t-2 -15.5q0 -4 1 -15v-21q0 -3 -5 -22.5t-5 -26.5q0 -4 7 -39q-10 -12 -10 -77q0 -32 5 -47q-6 -18 -6 -89q0 -41 6 -77q-4 -6 -4 -9q0 -5 2.5 -15.5t2.5 -15.5q0 -10 -3 -28.5t-3 -27.5l5.5 -31t5.5 -54q33 -51 33 -68z" />
    <glyph glyph-name="daggerdbl" unicode="&#x2021;" horiz-adv-x="916" 
d="M476 626q4 -16 29 -26q20 -7 39 -7q-5 -20 -5 -37q0 -2 3.5 -19t3.5 -26q0 -31 -10 -48q13 -16 13 -150q0 -15 -3.5 -42t-3.5 -26q0 -1 4.5 -24t4.5 -32q0 2 -2.5 -21.5t-2.5 -47.5q0 -7 1.5 -19.5t1.5 -14.5q0 -12 -4 -19q-11 -12 -30 -35q0 -7 -5 -14.5t-5 -12.5
q0 -4 7.5 -10t17.5 -6l24 4.5t47 4.5q7 7 18 7q3 0 29.5 -5.5t28.5 -5.5q26 0 26 20q0 17 -26 23q-9 2 -26.5 21.5t-17.5 35.5q0 9 1.5 33t1.5 32l-4 24t-4 44q0 3 -2.5 17.5t-2.5 22.5t4 22q19 67 75 67q15 0 21.5 -4t20.5 -21q5 -6 5 -16q7 -5 14 -15q5 -19 7 -49
q1 -13 9 -34v-33q0 -7 2 -27t2 -27.5t2 -17.5t2 -11q0 -40 -29 -64q-14 -12 -14 -28q0 -22 22 -22h19q13 1 16 1q31 0 57.5 -3t23.5 -3q30 0 30 31q0 12 -21.5 35.5t-21.5 60.5q-6 18 -6 40q0 8 1.5 27t1.5 20q0 6 -3.5 23.5t-3.5 28.5v25q-1 16 -1 23q0 29 -9 40
q-4 12 -16 29q-11 12 -38 36q-16 13 -47 13q-6 0 -19.5 1.5t-14.5 1.5t-46 -15q-8 -14 -22 -14q-10 0 -10 10q0 18 6 68q1 10 8 24.5t7 17.5q0 9 -4 49t-4 50q0 6 4 13q0 3 -4 19.5t-4 23.5q0 2 5.5 20t5.5 31q0 41 -34 41q-26 0 -30 -14t-76 -11q-25 1 -62.5 6.5t-64.5 5.5
q-33 0 -71 -5q-22 -3 -37 -3q-6 0 -19.5 -2t-18.5 -2q-15 0 -45 5t-45 5q-3 0 -25.5 -1.5t-24.5 -1.5q-30 0 -63 11.5t-40 11.5q-30 0 -30 -22q0 -16 3 -26q1 -3 9 -11q6 -26 6 -45q0 -8 -9 -30t-9 -26q0 -10 8.5 -21t20.5 -11q6 0 32 37t35 39q46 9 107 9q15 0 22.5 -10.5
t7.5 -33.5t5 -51q-6 -10 -6 -44q0 -14 4.5 -30.5t4.5 -17.5q0 -3 -2 -15t-2 -18q0 -20 -2.5 -59.5t-2.5 -37.5q0 -34 6 -70q0 -25 -2 -63q-1 -31 -1 -43q0 -16 1.5 -36.5t1.5 -23.5q0 -32 -25 -47q-32 -19 -39.5 -28.5t-7.5 -24.5q10 -10 29 -10q4 0 14.5 4.5t17 5.5t23.5 1
q36 0 103 -6.5t93 -6.5q24 0 24 18q0 15 -27 29q-81 41 -81 85q0 17 9 30q-5 15 -5 38q0 5 2.5 16.5t2.5 14.5q0 5 -1.5 13t-1.5 11q0 5 1.5 13t1.5 9q0 6 -7 29t-7 36q0 6 5 33.5t5 48.5q0 -2 -2 69t-2 131q0 56 21 56q10 0 44 2t42 2q25 0 36 -46z" />
    <glyph glyph-name="periodcentered" unicode="&#xb7;" 
d="M307 379q0 -2 -2 -5.5t-2 -5.5q0 -1 1 -6.5t2 -12.5q-2 -2 -8 -18q-4 -12 -20 -17q-4 1 -14 1h-9q-8 -1 -13 -1q-20 8 -22.5 9.5t-15.5 5.5q-29 8 -29 42q0 19 12 36t23 17q3 0 10 2t26 2q17 0 24 -2q10 -10 16.5 -10t13.5 -12.5t7 -24.5z" />
    <glyph glyph-name="periodcentered" unicode="&#x2219;" 
d="M307 379q0 -2 -2 -5.5t-2 -5.5q0 -1 1 -6.5t2 -12.5q-2 -2 -8 -18q-4 -12 -20 -17q-4 1 -14 1h-9q-8 -1 -13 -1q-20 8 -22.5 9.5t-15.5 5.5q-29 8 -29 42q0 19 12 36t23 17q3 0 10 2t26 2q17 0 24 -2q10 -10 16.5 -10t13.5 -12.5t7 -24.5z" />
    <glyph glyph-name="quotesinglbase" unicode="&#x201a;" horiz-adv-x="190" 
d="M159 56l-2 -5q0 -21 -7.5 -48t-17.5 -31q0 -14 -25 -30q-6 -2 -15.5 -5.5t-13.5 -4.5q-29 0 -29 13q0 3 6 9t9.5 6t9.5 8t6 14q0 11 -8 14q-12 4 -26 16q-11 9 -11 16q0 4 -2 10.5t-2 9.5q0 2 2 6t2 6q0 16 23 27q19 10 37 10q2 0 7.5 -2t9.5 -2q1 0 5 1h5
q13 -4 22.5 -14t9.5 -15.5t5 -8.5z" />
    <glyph glyph-name="quotedblbase" unicode="&#x201e;" horiz-adv-x="355" 
d="M329 31q0 -6 -4 -19t-4 -19q0 -38 -36 -55q-14 -5 -35 -15q-27 0 -27 5q0 20 12 23q5 1 11 10.5t6 15.5q0 11 -8 14q-12 4 -26 16q-8 7 -8 16q0 3 -2 9.5t-2 9.5q0 2 2 6t2 6q0 37 48 37q20 0 40 -8q24 -10 24 -24q0 -3 3.5 -13.5t3.5 -14.5zM166 45l-2 -5
q0 -21 -7.5 -48t-17.5 -31q0 -14 -25 -30q-6 -2 -15.5 -5.5t-13.5 -4.5q-29 0 -29 13q0 3 6 9t9.5 6t9.5 8t6 14q0 10 -13 17q-19 11 -21 13q-11 11 -11 15t-2 11t-2 10q0 2 2 6t2 6q0 16 23 27q19 10 37 10q2 0 7.5 -2t9.5 -2q1 0 5 1h5q13 -4 22.5 -14t9.5 -16t5 -8z" />
    <glyph glyph-name="perthousand" unicode="&#x2030;" horiz-adv-x="720" 
d="M707 13q0 -31 -30 -31q3 0 -23.5 3t-57.5 3q-3 0 -16 -1h-19q-22 0 -22 22q0 16 14 28q29 24 29 64q0 1 -2 11t-2 17.5t-2 27.5t-2 27v33q-8 21 -9 34q-2 30 -7 49q-5 5 -14 15q0 10 -5 16q-14 17 -20.5 21t-21.5 4q-56 0 -75 -67q-4 -14 -4 -22t2.5 -22.5t2.5 -17.5
q0 -20 4 -44l4 -24q0 -8 -1.5 -32t-1.5 -33q0 -16 17.5 -35.5t26.5 -21.5q26 -6 26 -23q0 -20 -26 -20q-2 0 -28.5 5.5t-29.5 5.5q-11 0 -18 -7q-23 0 -47 -4.5l-24 -4.5q-10 0 -23 6t-13 10q0 3 8 8t9 6q4 6 4 13q12 13 30 35q4 7 4 19q0 2 -1.5 14.5t-1.5 19.5
q0 24 2.5 47.5t2.5 21.5q0 9 -4.5 32t-4.5 24q0 -1 3.5 26t3.5 42q0 167 -11 181q3 5 3 30q0 11 -10 26t-27 15q-11 0 -23 6.5t-12 9.5q0 -6 12 30q93 44 111 104q4 14 30 14q34 0 34 -41q0 -13 -5.5 -31t-5.5 -20q0 -7 4 -23.5t4 -19.5q-4 -7 -4 -13q0 -10 4 -37t4 -36
q0 -3 -7 -17.5t-8 -24.5q-6 -50 -6 -68q0 -10 10 -10q8 0 22 14q45 15 46 15t14.5 -1.5t19.5 -1.5q31 0 46 -13.5l39 -35.5l16 -29q9 -11 9 -40q0 -7 1 -23v-25q0 -11 3.5 -28.5t3.5 -23.5q0 -1 -1.5 -20t-1.5 -27q0 -22 6 -40q0 -37 21.5 -60.5t21.5 -35.5zM286 391
q0 -7 -11 -17.5t-16 -10.5h-50q-6 0 -25 -14q-14 -10 -14 -36q0 -17 1 -23q-4 -12 -4 -26q0 -16 2.5 -40.5t2.5 -29.5q0 -7 -3 -22t-3 -23q0 -56 58 -56q22 0 22 -24q0 -18 -18 -27q-30 -14 -46 -31t-56 -17q-16 0 -33 18t-17 44q0 3 1 9v10q0 20 -3 29q2 2 2 8l-3 15l5 3
q-5 20 -5 23q0 1 5 14.5t5 28.5q0 3 -1.5 19t-1.5 28l4 3l-4 3q7 37 7 69q0 35 -23 35h-10q-7 -1 -10 -1q-37 0 -37 23q0 27 25 27h32q4 0 9 6.5t5 11.5q0 2 3 8q3 3 3 13q0 4 8 31t8 38q24 11 59 34q8 8 21 8q27 0 27 -32q0 -11 -7.5 -23l-13.5 -21.5t-6 -22.5
q0 -19 11 -29.5t22 -10.5q2 0 21.5 1t22.5 1q8 0 18.5 -6.5t10.5 -17.5z" />
    <glyph glyph-name="dotlessi" unicode="&#x131;" horiz-adv-x="259" 
d="M225 22q0 -9 -17 -15.5t-32 -6.5q-2 0 -13 1h-14q-18 0 -36 -3.5t-19 -3.5h-11q-9 1 -14 1t-12 -1l-7 -1q-25 0 -25 31q0 10 16 23q3 3 16 8.5t17 15.5q4 17 14 43q-3 3 -3 6t3 6q-4 8 -4 16q0 6 1 8q-3 18 -3 62q0 3 1.5 22.5t1.5 35.5q0 26 -32 39q-14 6 -14 16
q0 24 13 27q21 5 28.5 18.5t19.5 18.5q23 10 43 34q7 8 22 8q24 0 24 -35q0 -1 -5.5 -39.5t-5.5 -43.5q0 -2 2 -5.5t2 -6.5q0 -2 -6 -20q0 -5 1.5 -24.5t1.5 -29.5q0 -14 -1.5 -33.5t-1.5 -26.5q3 -9 5 -18q-1 6 -1 -23l3.5 -7.5t3.5 -12.5v-12q-1 -7 -1 -10q0 -10 22 -27
q17 -13 17 -35z" />
    <glyph glyph-name="circumflex" unicode="&#x2c6;" horiz-adv-x="333" 
d="M306 480q0 -15 -11 -15t-19 10q-11 2 -16 7q-4 2 -11 6q-10 4 -19 15q-12 15 -27 15q-1 2 -3 4h-3q-38 19 -35 19q-16 0 -16 -5t-7 -8q-3 -1 -9 -9q-21 -4 -32 -16q-4 -8 -16 -20q-9 -6 -17.5 -14.5t-25.5 -8.5q-11 0 -11 15q0 8 10.5 25t19 23.5t8.5 10.5t9 7.5t9 9.5
q0 3 6.5 7t10.5 13q9 19 39 46q12 11 22 11q2 0 7 1.5t8 1.5q8 0 17 -24q8 -20 27 -28q0 -2 6 -8q16 -13 16 -19.5t9 -10t9 -7.5t9 -11t22.5 -21t13.5 -22z" />
    <glyph glyph-name="tilde" unicode="&#x2dc;" horiz-adv-x="333" 
d="M312 564q0 -7 -6.5 -21t-13.5 -17l-1 -6q-8 -4 -14 -15q-6 -14 -8 -16q-20 -20 -63 -20q-10 0 -21.5 8.5t-12.5 12.5q-1 1 -11 5t-12 4q-5 0 -10 7q-11 15 -45 30q-2 1 -6 4q-26 0 -26 -39q0 -16 -32 -16q-8 0 -8 28q0 24 24 54q42 30 56 30q31 0 43 -12q9 -9 36 -18
q9 -3 27 -17q15 -13 22 -13q19 0 28 9q7 6 16 26q7 15 33 15q5 0 5 -23z" />
    <glyph glyph-name="macron" unicode="&#xaf;" horiz-adv-x="333" 
d="M301 526q0 -15 -14 -28t-33 -13q-5 0 -16 1h-17q-7 0 -15 -1.5t-10 -1.5q-10 0 -25.5 1t-21.5 1q-9 0 -22.5 -1.5t-17.5 -1.5t-9.5 1.5t-6.5 1.5q-4 0 -12.5 -1.5t-11.5 -1.5q-2 0 -24 11q-13 7 -13 37q0 28 77 28q24 0 34 3q2 0 86 -4q0 4 15 4q2 0 15 -2.5t19 -2.5
q10 0 16.5 -10t6.5 -20z" />
    <glyph glyph-name="macron" unicode="&#x2c9;" horiz-adv-x="333" 
d="M301 526q0 -15 -14 -28t-33 -13q-5 0 -16 1h-17q-7 0 -15 -1.5t-10 -1.5q-10 0 -25.5 1t-21.5 1q-9 0 -22.5 -1.5t-17.5 -1.5t-9.5 1.5t-6.5 1.5q-4 0 -12.5 -1.5t-11.5 -1.5q-2 0 -24 11q-13 7 -13 37q0 28 77 28q24 0 34 3q2 0 86 -4q0 4 15 4q2 0 15 -2.5t19 -2.5
q10 0 16.5 -10t6.5 -20z" />
    <glyph glyph-name="breve" unicode="&#x2d8;" horiz-adv-x="333" 
d="M287 621q18 0 18 -20q0 -11 -3 -28t-3 -16.5t-12 -21.5q-8 -15 -30 -28q-8 -10 -24 -23q-49 -17 -42 -17q-4 0 -12 2t-12 2q-1 0 -6 -2t-6 -2q-22 0 -42 11.5t-22 11.5q-11 0 -18 16q-6 13 -23 23l-3 -1q-19 28 -19 45q0 4 2.5 13t2.5 14.5t5 12.5t10 7q21 0 21 -40
q0 -9 16 -9q10 0 25 -14q11 -4 29 -4q8 3 16 3q7 0 22 -3t21 -3t11.5 3t10.5 3q24 0 29 4q3 1 12 19q0 5 4.5 9t4.5 9.5t5.5 14.5t11.5 9z" />
    <glyph glyph-name="dotaccent" unicode="&#x2d9;" horiz-adv-x="333" 
d="M221 525q-9 -18 -9 -20q-5 -8 -9 -17q-10 -13 -37 -13q-19 0 -34.5 7.5t-15.5 16.5q0 2 -2 7t-2 22q0 15 2 21q10 5 10 13q0 5 12 10.5t23 5.5q2 0 5.5 -1.5t4.5 -1.5q-4 0 18 2q6 -4 11 -5q19 -4 23 -17q-1 -3 -1 -12q0 -2 1 -8v-10z" />
    <glyph glyph-name="ring" unicode="&#x2da;" horiz-adv-x="334" 
d="M252 527q0 -27 -27 -42q-23 -13 -57 -13q-36 0 -60.5 26t-24.5 57q0 6 6 34q47 47 84 47q22 0 42 -9.5t20 -23.5q0 -3 5 -5.5t6 -5.5q3 -6 3 -49q0 -3 1.5 -8.5t1.5 -7.5zM213 560q0 10 -4.5 19.5t-9.5 9.5t-11 9q-2 1 -18 1q-15 0 -17 -1q-6 -2 -7 -2q-8 0 -16.5 -13.5
t-8.5 -28.5q0 -29 21 -34q4 -1 9 -5q7 0 17 -7q3 0 8 1h7q7 0 10 -1q10 4 14 15.5t5 12.5q-2 20 -2 15q0 2 1.5 5t1.5 4z" />
    <glyph glyph-name="cedilla" unicode="&#xb8;" horiz-adv-x="333" 
d="M287 -121q0 -23 -15 -41q-4 -6 -4 -9q0 -7 -9 -10q-18 -8 -34.5 -18t-34.5 -10q-1 0 -14 1.5t-21 1.5q-24 0 -49 11.5t-25 25.5q0 19 13 19q8 0 19 -5q17 -8 37 -8q27 0 27 11q17 0 17 12q0 2 4.5 12.5t4.5 12.5q0 22 -8 23q-3 1 -11.5 8.5t-18.5 7.5l-6.5 1.5t-10.5 1.5
q-1 0 -12 -2q-10 -1 -15 0q-7 1 -7 7q0 -7 10 23l3 1q0 16 11 43q0 18 5 18q29 0 36 -3q2 -6 2 -11q0 -9 -5 -22.5t-5 -19.5q0 -5 11 -1q12 4 16 4q16 0 45.5 -15.5t32.5 -28.5l6 -18q5 -15 5 -23z" />
    <glyph glyph-name="hungarumlaut" unicode="&#x2dd;" horiz-adv-x="333" 
d="M222 621q0 -24 -10 -34l1 -2q-10 -2 -10 -7t-7 -9q-11 -6 -19 -17l-2 1q-2 -6 -5.5 -7t-8.5 -7q-17 -5 -29 -18q-17 -19 -23 -22.5t-12 -9.5q-1 -3 -14 -11q-7 -14 -21 -14t-14 12q0 8 11.5 26t20.5 25q7 4 7 12t8 12t8 11.5t9.5 17.5t9.5 15q18 12 24 34q2 6 14.5 14.5
t21.5 8.5q40 0 40 -31zM370 621q0 -24 -10 -34l1 -2q-10 -2 -10 -7t-7 -9q-11 -6 -19 -17l-2 1q-2 -6 -5.5 -7t-8.5 -7q-15 -5 -28 -18q-20 -19 -26 -23.5t-8.5 -8t-15.5 -11.5q-7 -14 -21 -14t-14 12q0 8 11.5 26t20.5 25q6 3 6 13q0 5 8.5 10t8.5 12.5t9.5 17.5t9.5 15
q18 12 24 34q2 6 14.5 14.5t21.5 8.5q40 0 40 -31z" />
    <glyph glyph-name="ogonek" unicode="&#x2db;" horiz-adv-x="333" 
d="M131.5 -22q-4.5 -7 -13.5 -12.5t-19.5 -28t-10.5 -34.5q0 -49 27 -70q5 -4 6 -7q4 -7 11 -7q14 -8 39 -19q13 -3 34 2q10 -1 31 2q57 19 57 44q0 16 -15 16q-8 0 -12 -4l-4 1q-1 -4 -14 -9.5t-21 -5.5q-14 0 -27.5 5t-16 11.5t-14.5 10.5q-8 3 -8 10t2.5 16t2.5 11v7
q-1 5 -1 7q0 12 8.5 25t8.5 24q0 5 4.5 19.5t4.5 18.5q0 9 -5 9t-12 1h-11q-7 -3 -13.5 -19.5t-10 -16.5t-8 -7z" />
    <glyph glyph-name="caron" unicode="&#x2c7;" horiz-adv-x="333" 
d="M24 616q0 15 11 15q12 0 20 -10q11 -2 15.5 -5.5t11.5 -7.5q12 -5 20 -15q12 -15 27 -15q1 -1 3 -4h3q3 -2 20 -11q14 -8 16 -8q16 0 16 4.5t8 8.5q3 1 9 9q21 4 32 16q5 9 17 20q9 6 19 16q7 7 25 7q11 0 11 -15q0 -8 -11 -25t-20 -22q-8 -8 -8 -12t-9 -7.5t-9 -8
t-7 -8.5t-11 -13q-10 -20 -39 -46q-12 -11 -23 -11q-2 0 -7 -1.5t-8 -1.5q-9 0 -18 24q-8 20 -27 28q0 2 -6 8q-17 13 -17 19.5t-9 10t-9 7.5t-8 12q-11 6 -23 20q-15 14 -15 22z" />
    <glyph glyph-name="Scaron" unicode="&#x160;" horiz-adv-x="594" 
d="M142 955q0 17 13 17q14 0 23 -11q13 -3 18 -8t13 -7q14 -7 23 -18q14 -17 31 -17q1 -1 3 -4h4q44 -22 41 -22q19 0 19 5t9 10q5 3 10 10q24 3 37 18q6 10 20 23q4 2 21 19q10 8 29 8q13 0 13 -17q0 -10 -13 -29.5t-23 -24.5q-5 -10 -18 -22q-12 -4 -12 -12
q0 -3 -7.5 -7.5t-12.5 -15.5q-11 -23 -45 -53q-14 -12 -27 -12q-2 0 -7.5 -2t-9.5 -2q-11 0 -21 28q-8 22 -31 32q0 4 -7 9q-19 15 -19 23t-12 12q-6 8 -18 22q-12 6 -28 22.5t-16 25.5zM541 183q0 5 -6.5 29.5t-6.5 47.5q0 19 -37 56q-10 8 -15.5 26t-11.5 25
q-12 14 -32 28q-23 16 -33 16h-5q-3 -1 -6 -1q-12 0 -20 4q-32 16 -74 42q-17 11 -63 29q-36 14 -47 37q-8 14 -8 45q0 44 25 69.5t65 25.5q13 0 32.5 3.5t27.5 3.5q39 0 59 -18q48 -43 72 -51q0 -21 15 -43q16 -26 38 -26q24 0 24 30q0 33 -13 48.5t-13 22.5q2 40 3 53
q-13 11 -13 21.5t-33 10.5q2 0 -49 0q-51 -1 -77 -1q-15 0 -42 -6q-22 -5 -40 -5q-42 0 -56.5 -9t-26.5 -10t-30 -23q-15 -18 -43.5 -41.5t-28.5 -48.5q0 -11 -4 -44.5t-4 -45.5q0 -14 15 -39l22 -38q3 -7 32 -23q10 -6 20 -20t36 -14q3 0 8 1t7 1q19 0 30 -3l17 -4
q16 -2 22 -32q57 -24 88 -54q3 -3 30 -15q13 -6 21 -33q7 -22 7 -40q0 -7 -10.5 -29t-14.5 -25q-23 -19 -23 -25.5t-8 -8.5q-2 0 -33 -9q-19 -6 -35 -6q-100 0 -126 48q-7 12 -29 28q-8 5 -20 15q-5 6 -31 54q-3 6 -22 6q-8 0 -17 -6t-9 -14q0 -19 8 -39t8 -29
q0 -2 -1.5 -15.5t-1.5 -17t-2 -8t-2 -7.5q0 -6 7 -15q-1 -6 1 -15q4 -5 13 -12q3 -2 11 -2q14 0 50 -12q81 -27 107 -27q10 0 46 10q22 6 62 6h27q6 0 18 8t14 8q41 0 88 52.5t47 99.5z" />
    <glyph glyph-name="scaron" unicode="&#x161;" horiz-adv-x="354" 
d="M39 616q0 15 11 15q12 0 20 -10q11 -2 15.5 -5.5t11.5 -7.5q12 -5 20 -15q12 -15 27 -15q1 -1 3 -4h3q3 -2 20 -11q14 -8 16 -8q16 0 16 4.5t8 8.5q3 1 9 9q21 4 32 16q5 9 17 20q9 6 19 16q7 7 25 7q11 0 11 -15q0 -8 -11 -25t-20 -22q-8 -8 -8 -12t-9 -7.5t-9 -8
t-7 -8.5t-11 -13q-10 -20 -39 -46q-12 -11 -23 -11q-2 0 -7 -1.5t-8 -1.5q-9 0 -18 24q-8 20 -27 28q0 2 -6 8q-17 13 -17 19.5t-9 10t-9 7.5t-8 12q-11 6 -23 20q-15 14 -15 22zM316 118q0 15 -11 51.5t-19 43.5q-26 23 -62 39q-24 10 -46.5 20.5t-28.5 19t-12 30.5
q-1 4 -4.5 5.5t-3.5 12.5q0 41 65 41q22 0 30 -6q32 -25 37.5 -52.5t26.5 -27.5q5 0 12.5 8.5t7.5 13.5q0 1 -1 8t-1 12q0 41 -6 57q-4 10 -27 12t-43 12q-8 4 -32 4q-21 0 -21 -3q-56 0 -108 -47q-18 -16 -20 -34.5t-3 -37.5q-2 -10 -4 -16q0 -1 2 -7q9 -2 9 -17
q0 -6 7 -15.5t15.5 -9.5t8.5 -4q0 -25 64 -48q19 -7 28 -16q28 0 47 -19q13 -13 13 -16.5t5 -11.5q2 -3 2 -18q0 -2 -2 -7t-2 -7q0 -16 -18 -27.5t-39 -11.5q-39 0 -74 23q-9 9 -26 40q-11 22 -27 22q-15 0 -15 -22q3 -9 3 -7q0 -1 -1.5 -5t-1.5 -6t2 -9t2 -13t-3.5 -24
t-3.5 -32q0 -22 20 -22q3 0 27 10.5t26 10.5t16 -6t20 -7q11 -2 39 -2q40 0 83 34q48 37 48 84z" />
    <glyph glyph-name="Yacute" unicode="&#xdd;" horiz-adv-x="604" 
d="M476 923q0 -29 -22 -43v-2q-8 0 -12 -5.5t-11 -8.5q-15 -5 -25 -14l-2 1l-5 -5q-4 -1 -15 -6q-30 -4 -42 -17q-6 -7 -21.5 -13t-19 -9.5t-19.5 -8.5q-11 -11 -28 -11q-12 0 -12 18q0 9 18 25.5t31 22.5q5 2 10 11.5t12 11.5q13 4 13 11t23 22q6 4 7 9q21 8 35 33
q3 5 19 10.5t23 5.5q43 0 43 -38zM609 687q0 30 -20 39q-15 7 -63 7q-38 0 -94 -4q-12 -15 -12 -25q0 -23 26 -39q18 -11 18 -30q0 -32 -24 -64q-20 -27 -20 -36t-14 -19q-17 -12 -17 -27q0 -18 -15 -18q-14 -37 -26 -37q-21 0 -32 36q-4 14 -15 23.5t-18 9.5q-11 0 -14 15
q-4 23 -20 37q-20 18 -20 31q0 37 -10.5 50.5t-10.5 22.5q0 7 11.5 23.5t11.5 17.5q0 39 -45 39q-14 0 -34.5 -7.5t-31.5 -7.5q-9 0 -49.5 4t-71.5 4q-43 0 -43 -25q0 -7 39 -28q20 -11 25.5 -25.5t29.5 -38t38 -31.5q0 -10 17 -31.5t31 -32.5q0 -15 7 -21q15 -13 21 -28
q11 -25 18.5 -25t7.5 -15q26 -10 26 -26q0 -21 22 -49q12 -15 16 -22t7 -20q0 -2 -4 -12q3 -13 3 -25q0 -3 -1.5 -15t-1.5 -16q0 -12 3 -12q0 -22 -2 -68.5t-2 -48.5q0 -4 4 -14.5t4 -14.5q0 -38 -35 -67q-22 -18 -22 -27q0 -16 27 -16q8 0 25 4.5t29 4.5q39 0 79 -8.5
t39 -8.5q40 0 40 30q0 8 -32 35q-22 18 -23 34q-4 42 -18 84q-3 9 -3 17q0 -7 4 30t4 145q0 6 8.5 17t9.5 16q9 31 21 34q24 40 36 53q5 5 8 17.5t7 17.5q50 63 91 133q15 25 32.5 30t17.5 24z" />
    <glyph glyph-name="yacute" unicode="&#xfd;" horiz-adv-x="391" 
d="M401 401q0 -5 -6 -13q-7 -11 -16 -14q-24 -8 -34 -43q-5 -18 -23 -48q-11 -18 -19 -60q-10 -50 -65 -166q-16 -34 -16 -57q0 -18 -12 -40q-4 -7 -4 -12t-9.5 -14.5t-9.5 -23.5q0 -22 -46 -114q-11 -33 -11 -30q0 -8 -8 -18q0 -9 -9 -15l-28 -29q-23 -23 -40 -23
q-11 0 -27.5 11.5t-16.5 20.5q0 3 7 20.5t11 22.5q12 16 39 33q40 26 53 69q5 16 21.5 37.5t16.5 50.5q0 34 10 47q-9 5 -9 30q0 1 -4.5 10.5t-4.5 18.5t-6 26t-6 24q0 4 -17.5 31.5t-17.5 36.5q0 46 -21 82q-24 41 -27 73q-10 2 -53 67l8 7q-4 1 -4 6q0 11 39 11
q20 0 60 -8q29 13 42 13q9 0 17.5 -6.5t8.5 -15.5q0 -8 -11 -22.5t-11 -16.5q6 -16 6 -33q11 -11 14 -24q4 -13 -1 -13q7 -25 20 -43q19 -25 19 -59q0 -11 5 -22.5t9 -11.5q16 0 16 23q0 19 10 32q17 23 20 39q3 20 12 43q6 18 6 28q0 27 -8 42q-16 29 -16 34q0 10 9.5 18
t15.5 8q7 0 21.5 -4.5t18.5 -4.5q3 0 23.5 4.5t33.5 4.5q7 0 16 -7t9 -13zM322 587q0 -25 -19 -37v-2q-6 0 -10.5 -5.5t-9.5 -6.5q-17 -7 -22 -12l-2 1q-1 -2 -4.5 -4t-12.5 -6q-26 -4 -37 -15q-7 -7 -23 -13q-5 -1 -13 -7q-2 -2 -16 -7q-9 -9 -24 -9q-11 0 -11 15
q0 8 15.5 22.5t27.5 19.5q4 2 8 10t11 10q11 2 11 10q0 5 20 19q5 5 6 8q18 7 31 28q3 4 16.5 9t19.5 5q38 0 38 -33z" />
    <glyph glyph-name="Zcaron" unicode="&#x17d;" horiz-adv-x="592" 
d="M128 955q0 17 13 17q14 0 23 -11q13 -3 18 -8t13 -7q14 -7 23 -18q14 -17 31 -17q1 -1 3 -4h4q44 -22 41 -22q19 0 19 5t9 10q5 3 10 10q24 3 37 18q6 10 20 23q4 2 21 19q10 8 29 8q13 0 13 -17q0 -10 -13 -29.5t-23 -24.5q-5 -10 -18 -22q-12 -4 -12 -12
q0 -3 -7.5 -7.5t-12.5 -15.5q-11 -23 -45 -53q-14 -12 -27 -12q-2 0 -7.5 -2t-9.5 -2q-11 0 -21 28q-8 22 -31 32q0 4 -7 9q-19 15 -19 23t-12 12q-6 8 -18 22q-12 6 -28 22.5t-16 25.5zM548 76q0 78 -32 78q-17 0 -47 -59q-5 -11 -20 -23t-22 -13q-45 -5 -46 -5
q-2 0 -12 1.5t-12 1.5q-3 0 -18.5 -1t-17.5 -1q-18 0 -50 4q-25 14 -25 34q0 9 11 22t15 27q12 42 39 71q5 5 5 18q0 2 -4.5 9t-4.5 10q0 9 28 48q24 33 37 48q22 24 22 47v34q0 7 7 10q20 10 34 44q26 63 56 80q11 6 14 45q1 10 20 36q16 22 16 36q0 38 -43 38
q-2 0 -15 -1.5t-16 -1.5q-2 0 -11 1.5t-12 1.5q-2 0 -13.5 -1.5t-13.5 -1.5t-19 2.5t-20 2.5q-2 0 -14.5 -2.5t-17 -2.5t-35 -1t-61.5 -1q-12 0 -49.5 1t-39.5 1q-6 0 -25.5 -2.5t-23.5 -2.5q-9 0 -24 4.5t-23 4.5q-27 0 -27 -27q0 -1 1.5 -20t1.5 -27q0 -11 -4.5 -32
t-4.5 -24q0 -12 5 -27q19 -7 24 -7q10 0 22 20q5 6 17 18q14 16 17 36q1 8 14 8q2 0 12 -1.5t13 -1.5q19 0 42 10q16 7 49 7q14 0 32.5 -2.5t21.5 -2.5q5 0 22.5 3.5t23.5 3.5q16 0 16 -19q0 -18 -28 -82.5t-44 -83.5q-5 -6 -12.5 -25.5t-22.5 -33.5t-31 -50q0 -7 -9 -20
q-12 -8 -15 -28q-7 -40 -40 -50q5 -10 5 -15l-6.5 -11t-6.5 -20q0 -14 -40 -50q0 -25 -24 -51q0 -10 -5 -18q-14 -22 -26 -37q-17 -20 -17 -35q0 -36 38 -36q5 0 22.5 4.5t24.5 4.5q3 0 9 -1h10.5h13.5q9 1 14 1q4 0 20 -3t21 -3q6 0 32 4t40.5 4t35.5 5.5t27 5.5
q10 0 22 -6.5t17 -6.5q3 0 34.5 1t33.5 1q3 0 25.5 -3t24.5 -3q23 0 29 7t10 34q3 20 3 44z" />
    <glyph glyph-name="zcaron" unicode="&#x17e;" horiz-adv-x="365" 
d="M46 616q0 15 11 15q12 0 20 -10q11 -2 15.5 -5.5t11.5 -7.5q12 -5 20 -15q12 -15 27 -15q1 -1 3 -4h3q3 -2 20 -11q14 -8 16 -8q16 0 16 4.5t8 8.5q3 1 9 9q21 4 32 16q5 9 17 20q9 6 19 16q7 7 25 7q11 0 11 -15q0 -8 -11 -25t-20 -22q-8 -8 -8 -12t-9 -7.5t-9 -8
t-7 -8.5t-11 -13q-10 -20 -39 -46q-12 -11 -23 -11q-2 0 -7 -1.5t-8 -1.5q-9 0 -18 24q-8 20 -27 28q0 2 -6 8q-17 13 -17 19.5t-9 10t-9 7.5t-8 12q-11 6 -23 20q-15 14 -15 22zM348 393q0 31 -32 31q-2 0 -23.5 -2.5t-28.5 -2.5q-14 0 -40 1h-39q-3 -3 -10 -3
q-8 0 -27.5 1t-25.5 1q-36 0 -54 -2q-10 -6 -26 -8q-18 -22 -18 -42l1 -8t1 -14v-10q-1 -5 -1 -8q0 -5 5.5 -12t10.5 -7q9 0 21 16q33 44 60 44q3 0 20 -1.5t19 -1.5q3 0 15 2.5t14 2.5q6 0 14.5 -6t8.5 -13q0 -6 -11 -22t-12 -25q-1 -5 -15 -24q-22 -29 -36 -65
q-4 0 -16 -19q-20 -32 -21 -34q-31 -44 -31 -55q0 -15 -14 -31q-44 -52 -44 -76q0 -14 20 -14q2 0 20.5 6t24.5 6q23 0 72.5 -1.5t72.5 -1.5q5 0 22 1.5t26 1.5h21q11 1 17 1q11 0 22 15q9 12 9 21q0 11 -4 11q0 38 -28 38q-11 0 -31.5 -21t-54.5 -21q-32 0 -41 4
q-3 -2 -23 -2q-14 0 -14 12q0 20 26 46.5l26 26.5q0 12 7.5 20.5t7.5 14.5q0 12 53 82q25 33 25 38q0 11 13 24q25 25 25 44q0 4 10.5 17.5t10.5 23.5z" />
    <glyph glyph-name="onehalf" unicode="&#xbd;" horiz-adv-x="786" 
d="M727 336q-3 -13 -3 -35l-3 -4q-1 -34 -23.5 -55.5t-39.5 -47t-67 -68.5v-4q-8 -5 -12 -15q-6 -15 -14 -22q-11 -8 -11 -11q0 -12 51 -12q2 0 18 1t17 1q2 0 8 -2q14 0 33 8t19 13.5t14 5.5q11 0 11 -22q0 -1 -5 -19q-3 -7 -3 -17.5t-6.5 -22.5t-16.5 -12q-6 0 -27 1
t-22 1q-8 0 -20.5 -1l-12.5 -1q-6 0 -24 2.5t-25 2.5q-10 0 -31.5 -2t-24.5 -2q-8 0 -17.5 5.5t-9.5 10.5l5 10q8 16 20 37q9 13 13 20q8 17 28 40q2 4 2 7q18 27 41 54q14 32 26 48q14 20 16 34l4 6q7 21 7 52q0 1 -1 3.5t-1 3.5q0 31 -32 42q-24 8 -22 8q-55 0 -72 -39
q-8 -4 -11 -4q-13 0 -13 13q0 10 13 26q4 4 5 6q15 24 30 35q9 1 14 10q62 12 70 12q70 0 83 -41q3 -11 12 -16q6 -5 6 -11q0 -3 -1 -9.5t-1 -11.5zM608 710q0 -23 -9 -29q-19 -13 -22.5 -33.5t-20.5 -38.5q-28 -29 -40 -73q-32 -14 -36 -42q-3 -19 -15 -26
q-8 -5 -21.5 -30.5t-16.5 -36.5q-19 -16 -55 -75q-32 -54 -46 -86q-8 -4 -16 -25q-3 -8 -13 -23q-25 -24 -33 -43.5t-48 -83.5q-2 -18 -21 -37l-22 -27t-32 -13q-4 0 -13.5 7.5t-9.5 12.5q0 19 23 56q28 35 79 113q5 10 5 16t2 9q7 12 46 59q27 35 38 66q2 7 7 19
q16 16 25 30q19 30 23 41q60 108 72 122q50 58 54 89q3 22 52 80q14 17 34 17q5 4 20 4q10 0 10 -19zM214 316q0 -14 -23 -14q-1 0 -10.5 1t-11.5 1q-1 0 -15 -1.5t-16 -1.5q-1 0 -6 1.5t-8 1.5h-8q-5 -1 -6 -1t-10 1t-11.5 1t-7.5 5t-5 6q0 6 10 14q23 18 23 40t2 25
q-2 8 -2 24q0 9 2.5 26.5t2.5 20.5q0 2 -2 19.5t-2 26.5t5 9q-8 16 -8 34q0 6 1 22t1 32q0 7 -5.5 24t-5.5 30q0 7 -9 11q-33 13 -33 22q0 8 4 11t15 14q2 -4 6 -4q1 0 36.5 15.5t45.5 15.5q24 0 24 -22q0 -6 -2.5 -18t-2.5 -16v-33l3 -5q-5 -27 -5 -37q0 -7 3 -18.5
l3 -11.5q0 -1 -2 -14t-2 -21q0 -6 2 -17t2 -15t-2 -13q-3 -12 -4 -19q0 -4 2 -9t2 -9q0 -3 -2 -15.5t-2 -17.5q0 -23 4 -44.5l4 -21.5q0 -24 19 -38q7 -5 7 -17z" />
    <glyph glyph-name="onequarter" unicode="&#xbc;" horiz-adv-x="786" 
d="M703 201q0 -16 -25 -25q-6 -12 -6 -54q0 -11 2 -22.5t2 -14.5q0 -5 -1 -17.5t-1 -13.5q5 -32 5 -34q0 -14 -14 -14q-2 0 -19.5 -3.5t-23.5 -3.5q-21 0 -21 22v26q-1 21 -1 25t-2.5 18.5t-2.5 26.5q0 5 1 14v14q0 34 -40 34q-5 0 -15.5 -2t-11.5 -2l-8 1.5t-15 1.5
q2 0 -30.5 -1.5t-47.5 -1.5q-3 2 -13 2q-1 0 -4.5 4t-3.5 6q6 12 18.5 23.5t12.5 17.5q0 10 15 22q12 10 21 25q14 24 37.5 39.5t34.5 31.5q3 4 29 30q23 22 23 27q0 16 9.5 23t13.5 18q2 6 15 13t22 7q20 0 20 -19q0 -1 -4 -13t-4 -23q0 -4 1 -27t1 -40q0 -15 -1 -46.5
t-1 -39.5q0 -3 2 -13.5t2 -18.5q6 -2 15 -6q14 -7 14 -17zM616 710q0 -23 -9 -29q-19 -13 -22.5 -33.5t-20.5 -38.5q-28 -29 -40 -73q-32 -14 -36 -42q-3 -19 -15 -26q-8 -5 -21.5 -30.5t-16.5 -36.5q-19 -16 -55 -75q-32 -54 -46 -86q-8 -4 -16 -25q-3 -8 -13 -23
q-25 -24 -33 -43.5t-48 -83.5q-2 -18 -21 -37l-22 -27t-32 -13q-4 0 -13.5 7.5t-9.5 12.5q0 19 23 56q28 35 79 113q5 10 5 16t2 9q7 12 46 59q27 35 38 66q2 7 7 19q16 16 25 30q19 30 23 41q60 108 72 122q50 58 54 89q3 22 52 80q14 17 34 17q5 4 20 4q10 0 10 -19z
M222 316q0 -14 -23 -14q-1 0 -10.5 1t-11.5 1q-1 0 -15 -1.5t-16 -1.5q-1 0 -6 1.5t-8 1.5h-8q-5 -1 -6 -1t-10 1t-11.5 1t-7.5 5t-5 6q0 6 10 14q23 18 23 40t2 25q-2 8 -2 24q0 9 2.5 26.5t2.5 20.5q0 2 -2 19.5t-2 26.5t5 9q-8 16 -8 34q0 6 1 22t1 32q0 7 -5.5 24
t-5.5 30q0 7 -9 11q-33 13 -33 22q0 8 4 11t15 14q2 -4 6 -4q1 0 36.5 15.5t45.5 15.5q24 0 24 -22q0 -6 -2.5 -18t-2.5 -16v-33l3 -5q-5 -27 -5 -37q0 -7 3 -18.5l3 -11.5q0 -1 -2 -14t-2 -21q0 -6 2 -17t2 -15t-2 -13q-3 -12 -4 -19q0 -4 2 -9t2 -9q0 -3 -2 -15.5
t-2 -17.5q0 -23 4 -44.5l4 -21.5q0 -24 19 -38q7 -5 7 -17zM599 280q-2 8 -2 26q0 7 2 33q-4 6 -9 6q-6 0 -19 -24q-7 -12 -26 -25q-28 -18 -47 -45q-4 -6 -4 -10.5t-10 -8.5q-4 -2 -4 -4q0 -10 37 -10q5 0 6 1q2 0 19 -3t18 -3q38 0 38 29q0 8 -2 20l2 3q-2 3 -2 8q0 4 3 7
z" />
    <glyph glyph-name="onesuperior" unicode="&#xb9;" horiz-adv-x="340" 
d="M249 316q0 -14 -23 -14q-1 0 -10.5 1t-11.5 1q-1 0 -15 -1.5t-16 -1.5q-1 0 -6 1.5t-8 1.5h-8q-5 -1 -6 -1t-10 1t-11.5 1t-7.5 5t-5 6q0 6 10 14q23 18 23 40t2 25q-2 8 -2 24q0 9 2.5 26.5t2.5 20.5q0 2 -2 19.5t-2 26.5t5 9q-8 16 -8 34q0 6 1 22t1 32q0 7 -5.5 24
t-5.5 30q0 7 -9 11q-33 13 -33 22q0 8 4 11t15 14q2 -4 6 -4q1 0 36.5 15.5t45.5 15.5q24 0 24 -22q0 -6 -2.5 -18t-2.5 -16v-33l3 -5q-5 -27 -5 -37q0 -7 3 -18.5l3 -11.5q0 -1 -2 -14t-2 -21q0 -6 2 -17t2 -15t-2 -13q-3 -12 -4 -19q0 -4 2 -9t2 -9q0 -3 -2 -15.5
t-2 -17.5q0 -23 4 -44.5l4 -21.5q0 -24 19 -38q7 -5 7 -17z" />
    <glyph glyph-name="threequarters" unicode="&#xbe;" horiz-adv-x="786" 
d="M743 201q0 -16 -25 -25q-6 -12 -6 -54q0 -11 2 -22.5t2 -14.5q0 -5 -1 -17.5t-1 -13.5q5 -32 5 -34q0 -14 -14 -14q-2 0 -19.5 -3.5t-23.5 -3.5q-21 0 -21 22v26q-1 21 -1 25t-2.5 18.5t-2.5 26.5q0 5 1 14v14q0 34 -40 34q-5 0 -15.5 -2t-11.5 -2l-8 1.5t-15 1.5
q2 0 -30.5 -1.5t-47.5 -1.5q-3 2 -13 2q-1 0 -4.5 4t-3.5 6q6 12 18.5 23.5t12.5 17.5q0 10 15 22q12 10 21 25q14 24 37.5 39.5t34.5 31.5q3 4 29 30q23 22 23 27q0 16 9.5 23t13.5 18q2 6 15 13t22 7q20 0 20 -19q0 -1 -4 -13t-4 -23q0 -4 1 -27t1 -40q0 -15 -1 -46.5
t-1 -39.5q0 -3 2 -13.5t2 -18.5q6 -2 15 -6q14 -7 14 -17zM656 710q0 -23 -9 -29q-19 -13 -22.5 -33.5t-20.5 -38.5q-28 -29 -40 -73q-32 -14 -36 -42q-3 -19 -15 -26q-8 -5 -21.5 -30.5t-16.5 -36.5q-19 -16 -55 -75q-32 -54 -46 -86q-8 -4 -16 -25q-3 -8 -13 -23
q-25 -24 -33 -43.5t-48 -83.5q-2 -18 -21 -37l-22 -27t-32 -13q-4 0 -13.5 7.5t-9.5 12.5q0 19 23 56q28 35 79 113q5 10 5 16t2 9q7 12 46 59q27 35 38 66q2 7 7 19q16 16 25 30q19 30 23 41q60 108 72 122q50 58 54 89q3 22 52 80q14 17 34 17q5 4 20 4q10 0 10 -19z
M296 426q0 -20 -5 -58q0 -6 -12 -15v-8q-40 -49 -83 -49l-9.5 1t-14.5 1q-3 0 -9.5 -1t-11.5 -1q-1 0 -7 3q-2 -2 -5 -2q-25 0 -47 11q-39 19 -40 19q-10 4 -18.5 20t-8.5 25q0 21 23 38q5 4 18 4q17 0 28 -8t11 -13q0 -1 -3.5 -12t-3.5 -12t1.5 -3t1.5 -3q0 -34 68 -34
q41 0 41 17q19 8 19 46q0 1 -4 12.5t-4 19.5q0 1 -2.5 8.5t-2.5 11.5q0 20 -15 34q-3 3 -20 25q-11 13 -25 19q-8 2 -22 8l-2 15q45 7 51.5 24t13.5 25q10 12 10 37q0 5 -8.5 21.5t-13.5 16.5q0 5 -7 10q-11 10 -24 19q-23 0 -33 5q-5 0 -28.5 -6.5t-24.5 -6.5
q-4 0 -10.5 4.5t-6.5 9.5q0 9 13 14q7 5 26 14q70 5 57 5q3 -2 67 -14q8 -6 21 -10t23 -19.5t16 -20.5q11 -9 11 -28q0 -54 -17 -64q-32 -20 -32 -35q0 -3 19 -20t23 -23q18 -28 18 -77zM639 280q-2 8 -2 26q0 7 2 33q-4 6 -9 6q-6 0 -19 -24q-7 -12 -26 -25
q-28 -18 -47 -45q-4 -6 -4 -10.5t-10 -8.5q-4 -2 -4 -4q0 -10 37 -10q5 0 6 1q2 0 19 -3t18 -3q38 0 38 29q0 8 -2 20l2 3q-2 3 -2 8q0 4 3 7z" />
    <glyph glyph-name="threesuperior" unicode="&#xb3;" horiz-adv-x="340" 
d="M299 426q0 -20 -5 -58q0 -6 -12 -15v-8q-40 -49 -83 -49l-9.5 1t-14.5 1q-3 0 -9.5 -1t-11.5 -1q-1 0 -7 3q-2 -2 -5 -2q-25 0 -47 11q-39 19 -40 19q-10 4 -18.5 20t-8.5 25q0 21 23 38q5 4 18 4q17 0 28 -8t11 -13q0 -1 -3.5 -12t-3.5 -12t1.5 -3t1.5 -3q0 -34 68 -34
q41 0 41 17q19 8 19 46q0 1 -4 12.5t-4 19.5q0 1 -2.5 7.5t-2.5 12.5q0 20 -15 34q-3 3 -20 25q-11 13 -25 19q-8 2 -22 8l-2 15q41 6 52 25q3 9 13 24q10 12 10 37q0 5 -8.5 21.5t-13.5 16.5q0 5 -7 10q-11 10 -24 19q-23 0 -33 5q-5 0 -28.5 -6.5t-24.5 -6.5
q-4 0 -10.5 4.5t-6.5 9.5q0 9 13 14q7 5 26 14q70 5 57 5q3 -2 67 -14q8 -6 21 -10t23 -19.5t16 -20.5q11 -9 11 -28q0 -54 -17 -64q-32 -20 -32 -35q0 -3 19 -20t23 -23q18 -28 18 -77z" />
    <glyph glyph-name="twosuperior" unicode="&#xb2;" horiz-adv-x="340" 
d="M288 642q-3 -13 -3 -35l-3 -4q-1 -34 -23.5 -55.5t-39.5 -47t-67 -68.5v-4q-8 -5 -12 -15q-6 -15 -14 -22q-11 -8 -11 -11q0 -12 51 -12q2 0 18 1t17 1q2 0 8 -2q14 0 33 8t19 13.5t14 5.5q11 0 11 -22q0 -1 -5 -19q-3 -7 -3 -17.5t-6.5 -22.5t-16.5 -12q-6 0 -27 1
t-22 1q-8 0 -20.5 -1l-12.5 -1q-6 0 -24 2.5t-25 2.5q-10 0 -31.5 -2t-24.5 -2q-8 0 -17.5 5.5t-9.5 10.5l5 10q8 16 20 37q9 13 13 20q8 17 28 40q2 4 2 7q18 27 41 54q14 32 26 48q14 20 16 34l4 6q7 21 7 52q0 1 -1 3.5t-1 3.5q0 31 -32 42q-24 8 -22 8q-55 0 -72 -39
q-8 -4 -11 -4q-13 0 -13 13q0 10 13 26q4 4 5 6q15 24 30 35q9 1 14 10q62 12 70 12q70 0 83 -41q3 -11 12 -16q6 -5 6 -11q0 -3 -1 -9.5t-1 -11.5z" />
    <glyph glyph-name="minus" unicode="&#xad;" horiz-adv-x="600" 
d="M543 372q0 -8 -4.5 -21.5t-8.5 -13.5q-2 0 -13.5 1.5t-14.5 1.5q-13 0 -34 -2l-21 -2q-6 0 -29.5 4t-36.5 4q-41 -12 -70 -2q-10 0 -34 -3t-26 -3q-3 0 -23 3.5t-25 3.5q-6 0 -16.5 -1.5t-11.5 -1.5q-7 0 -19 1t-17 1q-7 0 -17 -2t-13 -2t-7 2t-5 2q-2 0 -8 -2t-9 -2
q-4 0 -13.5 6.5t-9.5 39.5q0 16 10 19.5t42 3.5q18 0 26 3q13 0 73 -4q0 4 11 4q3 0 18.5 2t22.5 2q17 0 40.5 -8t26.5 -8q97 0 103 6l6 -6l20.5 4t34.5 4q26 0 37 -5q15 -7 15 -29z" />
    <glyph glyph-name="minus" unicode="&#x2212;" horiz-adv-x="600" 
d="M543 372q0 -8 -4.5 -21.5t-8.5 -13.5q-2 0 -13.5 1.5t-14.5 1.5q-13 0 -34 -2l-21 -2q-6 0 -29.5 4t-36.5 4q-41 -12 -70 -2q-10 0 -34 -3t-26 -3q-3 0 -23 3.5t-25 3.5q-6 0 -16.5 -1.5t-11.5 -1.5q-7 0 -19 1t-17 1q-7 0 -17 -2t-13 -2t-7 2t-5 2q-2 0 -8 -2t-9 -2
q-4 0 -13.5 6.5t-9.5 39.5q0 16 10 19.5t42 3.5q18 0 26 3q13 0 73 -4q0 4 11 4q3 0 18.5 2t22.5 2q17 0 40.5 -8t26.5 -8q97 0 103 6l6 -6l20.5 4t34.5 4q26 0 37 -5q15 -7 15 -29z" />
    <glyph glyph-name="multiply" unicode="&#xd7;" horiz-adv-x="600" 
d="M511 544q0 -7 -23 -30q-31 -31 -42 -48q-13 -21 -59 -47q-2 -3 -19 -18t-17 -24q0 -6 12 -19.5t20 -18.5q19 -11 13 -17q39 -33 62 -56q4 -8 19 -23q33 -33 33 -46q0 -18 -37 -34q-17 4 -20.5 9t-11.5 15l-12.5 6.5t-21.5 27.5q-8 14 -31 28q-8 6 -20 25q-6 10 -26 21.5
t-26 21.5q-18 0 -31 -11q-22 -19 -29 -32q-9 -16 -20 -25q-35 -29 -52 -55q-5 -2 -13 -7q-2 -2 -5.5 -8t-5.5 -8q-8 -8 -21 -8q-9 0 -20 12.5t-11 25.5q0 15 22 36q17 16 24 29q33 29 40 46q2 1 28 22q11 16 38 43q-21 20 -35 42q-10 10 -32 26t-27 21q-10 17 -42 48
q-27 18 -27 29q0 15 11 24q4 3 25 13q26 0 46 -29q22 -32 37 -40q10 -6 22 -24q9 -14 37.5 -44t35.5 -30q15 0 34 24q8 10 23 22q23 19 29 42h9l38 49q23 28 51 28q7 0 17.5 -14t10.5 -20z" />
    <glyph glyph-name="Adieresis" unicode="&#xc4;" horiz-adv-x="644" 
d="M498 835q0 -9 -6.5 -14.5t-16 -18t-36.5 -12.5q-2 0 -5 1.5t-4 1.5h-8q-6 0 -13 4t-11 4t-15 16q-12 20 -12 39t13 35q10 13 16 13q12 0 12 4q6 0 15 2t12 2q26 0 38 -14q8 -10 18 -42v-11q0 -1 1.5 -4.5t1.5 -5.5zM310 852q0 -15 -3 -24q-11 -7 -11 -14t-13.5 -13
t-26.5 -6q-3 0 -7.5 1.5t-5.5 1.5q6 0 -20 -2q-4 3 -13 5q-22 4 -26 20q1 4 1 14v9q-1 7 -1 12q9 23 10 23.5t6 11.5q7 22 46 22q21 0 40 -9t19 -19q0 -5 1 -9t2.5 -12t1.5 -12zM641 22q0 13 -26.5 40.5t-45.5 67.5q-18 36 -18 54q0 13 -13 33q-4 7 -22 56.5t-21 65.5
q-4 26 -17 49q-10 18 -12 35q-4 31 -10 44q-13 27 -17 52q-3 16 -9 29q-5 8 -12 27q-9 30 -22 57q-5 10 -13 44q-4 15 -16 30t-28 15q-14 0 -25 -11t-11 -24q0 -39 -14 -50q-5 -4 -7.5 -17t-11.5 -34q-10 -15 -12 -32q-3 -22 -13 -28q2 -18 -16 -43q5 -14 -6 -25t-16 -38
t-15 -41q0 -1 3 -7q-6 0 -22.5 -27t-22.5 -45q-13 -35 -27 -58q-26 -41 -40 -78q-9 -23 -33 -57q-28 -37 -45 -43q-29 -10 -29 -32q0 -24 41 -32q34 -7 46 -7q18 0 27 3q25 8 38 8q2 0 13 -1t13 -1q14 0 27.5 6t13.5 13v13q0 5 -38 35q-15 12 -15 28q0 21 7 48q8 32 20 42
q0 6 2 14.5t2 13.5q0 18 12 36q2 14 10 39q20 33 52 33q6 0 25.5 -3.5t27.5 -3.5q7 0 25.5 3.5t24.5 3.5q27 0 32 -6q36 -47 54 -120q3 -12 17 -26q9 -9 7 -17q-5 -19 8 -36q6 -8 6 -39q0 -33 -39 -48q-19 -7 -19 -20q0 -14 27 -14q20 0 51.5 2t41.5 2q11 0 32.5 -2.5
t32.5 -2.5q40 0 40 27zM366 422q0 -53 -37 -53q-62 0 -62 44q0 21 12 36q1 2 10 19q3 6 15 12t18 6q19 0 33 -22q11 -20 11 -42z" />
    <glyph glyph-name="Aring" unicode="&#xc5;" horiz-adv-x="644" 
d="M435 852q0 -31 -31 -48q-26 -15 -66 -15q-41 0 -69.5 30t-28.5 65q0 2 7 39q29 29 43 38q25 16 54 16q25 0 48 -11.5t23 -26.5q0 -4 6 -6.5t7 -5.5q3 -7 3 -57q0 -4 2 -10t2 -8zM390 890q0 11 -5.5 22t-11.5 11t-12 11q-2 1 -21 1q-17 0 -19 -1q-9 -3 -8 -3
q-9 0 -19 -15.5t-10 -32.5q0 -31 24 -39q10 -3 12 -4.5t18 -9.5q4 0 10 1h7q9 0 12 -1q13 4 17 22q1 4 5 10l-2 11.5t-1 6.5q0 2 2 5.5t2 4.5zM641 22q0 13 -26.5 40.5t-45.5 67.5q-18 36 -18 54q0 13 -13 33q-4 7 -22 56.5t-21 65.5q-4 26 -17 49q-10 18 -12 35
q-4 31 -10 44q-13 27 -17 52q-3 16 -9 29q-5 8 -12 27q-9 30 -22 57q-5 10 -13 44q-4 15 -16 30t-28 15q-14 0 -25 -11t-11 -24q0 -39 -14 -50q-5 -4 -7.5 -17t-11.5 -34q-10 -15 -12 -32q-3 -22 -13 -28q2 -18 -16 -43q5 -14 -6 -25t-16 -38t-15 -41q0 -1 3 -7
q-6 0 -22.5 -27t-22.5 -45q-13 -35 -27 -58q-26 -41 -40 -78q-9 -23 -33 -57q-28 -37 -45 -43q-29 -10 -29 -32q0 -24 41 -32q34 -7 46 -7q18 0 27 3q25 8 38 8q2 0 13 -1t13 -1q14 0 27.5 6t13.5 13v13q0 5 -38 35q-15 12 -15 28q0 21 7 48q8 32 20 42q0 6 2 14.5t2 13.5
q0 18 12 36q2 14 10 39q20 33 52 33q6 0 25.5 -3.5t27.5 -3.5q7 0 25.5 3.5t24.5 3.5q27 0 32 -6q36 -47 54 -120q3 -12 17 -26q9 -9 7 -17q-5 -19 8 -36q6 -8 6 -39q0 -33 -39 -48q-19 -7 -19 -20q0 -14 27 -14q20 0 51.5 2t41.5 2q11 0 32.5 -2.5t32.5 -2.5q40 0 40 27z
M366 422q0 -53 -37 -53q-62 0 -62 44q0 21 12 36q1 2 10 19q3 6 15 12t18 6q19 0 33 -22q11 -20 11 -42z" />
    <glyph glyph-name="Ccedilla" unicode="&#xc7;" horiz-adv-x="714" 
d="M521 -124q0 -28 -17 -47q-4 -4 -4 -9.5t-11 -12.5q-20 -10 -41 -22q-17 -10 -38 -10q-1 0 -16 2t-24 2q-27 0 -56 13t-29 29q0 22 15 22l31 -10q14 -5 33 -5q31 0 31 13q19 0 19 13q0 2 5.5 14.5t5.5 14.5q0 25 -9 27q-5 1 -15 11q-6 7 -20 7l-7 1.5t-12 1.5q-1 0 -14 -2
q-11 -1 -17 0q-8 2 -8 8q0 2 5 13t6 14l3 1l4 22q-29 2 -62.5 26.5t-70.5 35.5q-18 5 -28 18q-16 19 -36 36q-55 46 -82 108q-20 45 -20 81q0 6 1 29t1 28q0 13 -1.5 40t-1.5 41q0 40 24 80q31 51 37 71q19 60 58 60q22 0 26 12q8 22 30 42q42 37 103 37h119q8 0 24 4t20 4
q26 -10 80 -10q10 0 27 -9q8 -4 27 -8t39 -21.5t20 -27.5v-74q0 -6 1.5 -24.5t1.5 -26.5q0 -37 -21 -37q-13 0 -26 20q-12 17 -12 26q0 14 -17 23q-3 2 -47 55q-23 28 -51 35q-23 6 -59 17q-13 6 -41 6q-46 0 -58.5 -10t-29.5 -12q-26 -3 -49 -20.5t-48 -51t-25 -43.5
q0 -18 -20 -82q-11 -35 -11 -84q0 -30 3 -37q8 -20 8 -28q0 -4 -2.5 -33.5t-2.5 -38.5q0 -70 70 -123q47 -35 78 -47t73 -12q32 0 39 6q28 -5 62 -5q25 0 55 16.5t46 38.5q21 29 34 70q10 32 28 32q29 0 29 -23q0 -2 -2.5 -16.5t-2.5 -17.5q0 -4 3 -24t3 -27q0 -27 -14 -50
t-35 -29l-105 -32q-35 -10 -56 -10q-9 0 -34.5 2t-33.5 2q-18 0 -18 -24q0 -8 13 -2q12 5 18 5q19 0 53 -18t37 -33q0 -1 6 -19.5t6 -27.5z" />
    <glyph glyph-name="Eacute" unicode="&#xc9;" horiz-adv-x="562" 
d="M437 923q0 -29 -22 -43v-2q-8 0 -12 -5.5t-11 -8.5q-15 -5 -25 -14l-2 1l-5 -5q-4 -1 -15 -6q-30 -4 -42 -17q-6 -7 -21.5 -13t-19 -9.5t-19.5 -8.5q-11 -11 -28 -11q-12 0 -12 18q0 9 18 25.5t31 22.5q5 2 10 11.5t12 11.5q13 4 13 11t23 22q6 4 7 9q21 8 35 33
q3 5 19 10.5t23 5.5q43 0 43 -38zM532 624q0 10 -5 31t-5 32q0 6 1 19.5t1 17.5q0 22 -37 22q2 0 -35 -4.5t-75 -4.5q-131 0 -193 7q-41 -11 -67 -11q-1 0 -19 3.5t-20 3.5h-27q-9 0 -17 -9t-8 -18q0 -15 56 -61q20 -16 20 -88q0 -17 7 -45q-7 -49 -7 -63q0 -7 4.5 -46.5
t4.5 -66.5q0 -7 -4 -27.5t-4 -35.5q0 -18 3.5 -37t3.5 -23q0 -6 -1 -19.5t-1 -20.5t1 -22v-22q0 -12 -8 -53q-5 -25 -37 -49q-22 -16 -22 -27q0 -12 33 -12h65q34 0 46 6q3 0 14 -1t16 -1h24q18 1 20 1q14 0 48 -3t41 -3q6 0 22.5 2.5t21.5 2.5h78q52 0 52 38q0 27 -5 54
q6 30 6 49q0 38 -24 38q-22 0 -26 -13q-33 -116 -125 -116q-81 0 -107 27q-8 9 -11 17q4 36 4 75q0 24 -10 46q10 38 10 41q0 12 -8 49q-1 3 -4.5 11t-3.5 10q0 17 36 17q25 0 36 -12q7 -7 20 -7q23 0 37 -31q9 -20 32 -20q26 0 26 34q0 3 -1.5 11t-1.5 10q0 3 1.5 8.5
t1.5 7.5q0 7 -5.5 19t-5.5 17q0 7 5 24t5 25t-8 26q-9 22 -19 22q-11 0 -28 -19q-42 -48 -81 -48q-30 0 -37 14q0 24 -3.5 70.5t-3.5 62.5q0 1 6 12t6 17q0 7 -3 19q-9 36 -9 37q0 33 52 33q3 0 12.5 -1.5t11.5 -1.5q12 0 32 7q14 5 21 5q10 0 28 -7q15 -6 32 -6
q13 0 50 -28q17 -13 25 -30q11 -24 21 -24q22 0 22 36z" />
    <glyph glyph-name="Ntilde" unicode="&#xd1;" horiz-adv-x="768" 
d="M579 898q0 -8 -7 -24t-16 -20l-1 -7q-9 -4 -16 -17q-8 -17 -10 -19q-21 -23 -72 -23q-12 0 -25 10t-14 15q-1 2 -12.5 6t-15.5 4t-10 8q-11 16 -52 34q-3 1 -7 5q-14 0 -22 -14.5t-8 -31.5t-37 -17q-9 0 -9 32q0 27 28 62q49 35 64 35q36 0 49 -13t42 -22q11 -3 30 -18.5
t26 -15.5q21 0 32 10q8 7 19 30q8 17 38 17q6 0 6 -26zM744 705q0 10 -15.5 19.5t-30.5 9.5q-18 0 -43 4t-32 4q-75 0 -92 -8q-5 -11 -5 -20q0 -16 47 -30q28 -8 28 -35q0 -22 5 -27q-4 -18 -4 -31q0 -10 12 -32q-4 -20 -4 -36v-40q0 -3 -1.5 -9t-1.5 -8q0 -3 2.5 -7.5
t2.5 -6.5q0 -26 3.5 -52.5t3.5 -30.5q0 -18 -7 -42.5t-7 -26.5q0 -6 1.5 -17.5t1.5 -15.5q0 -6 -6.5 -15.5t-9.5 -9.5q-9 0 -55 41q-21 19 -24 32.5t-16 23.5q-19 15 -22 25q-6 18 -29 33q-11 7 -18 27q-5 15 -42 44q-5 4 -8 22q-1 9 -26 31q-38 34 -62 78q-9 16 -28 30
q0 32 9 54q7 18 7 26q0 26 -34 26h-70q-19 0 -41 -4q-32 -6 -38 -6q-5 0 -17 4.5t-16 4.5q-6 0 -14 -7t-8 -15q0 -17 67 -66q5 -3 5 -53q0 -16 11 -42q-4 -8 -8 -14q5 -21 -4 -79q-3 -19 -3 -53q0 -2 -1.5 -6t-1.5 -5t2.5 -9.5t2.5 -11.5q0 -4 -1 -11.5t-1 -10.5
q0 -10 2 -26.5t2 -21.5q0 -27 -4.5 -70.5t-4.5 -50.5q0 -4 3 -16.5t3 -20.5q0 -23 -9 -56q-10 -13 -28 -45q-3 -7 -16 -15q-6 -4 -6 -16q0 -17 36 -17q2 0 13 1t17 1h32q5 0 12 -5q4 -4 10 -4q3 0 26.5 2t25.5 2q13 0 21 -3q22 -8 24 -8q5 0 16.5 4.5t11.5 10.5q0 22 -29 30
q-34 10 -40.5 22t-16.5 18q-28 15 -34 50q-3 15 -3 38q0 77 -3 111q0 6 -2.5 19t-2.5 18q0 45 19 78q-3 11 -3 35q0 25 4 33q-9 14 -9 35q0 27 17 27q7 0 20.5 -11t13.5 -16t27 -35q13 -20 42 -59q56 -60 64 -60q2 -11 8 -14q14 -7 15 -8q9 -8 19 -32q-4 -7 -4 -14
q0 -5 18 -23q35 -35 145 -168q10 -12 28 -41q13 -31 18 -36q11 -12 39 -12q9 0 16.5 12t7.5 27v18q-1 14 -1 23q0 3 1.5 23t1.5 31q0 15 -4 67t-4 71q0 6 2.5 22t2.5 22q0 17 -3 33q2 11 3 31q-3 21 -3 17q6 12 6 69v46q-1 36 -1 43v58q11 34 37 75q37 10 37 35z" />
    <glyph glyph-name="Odieresis" unicode="&#xd6;" horiz-adv-x="840" 
d="M588 835q0 -9 -6.5 -14.5t-16 -18t-36.5 -12.5q-1 0 -4 1.5t-5 1.5h-8q-4 0 -14 5q-4 3 -9 3t-16 16q-12 20 -12 39t13 35q10 13 16 13q12 0 12 4q6 0 15 2t12 2q26 0 39 -14q8 -11 17 -42v-11q0 -1 1.5 -4.5t1.5 -5.5zM400 852q0 -18 -3 -24q-11 -8 -11 -14.5
t-13.5 -12.5t-26.5 -6q-2 0 -6.5 1.5t-6.5 1.5q6 0 -20 -2q-2 2 -18 6.5t-21 18.5q1 4 1 14v9q-1 7 -1 12q9 15 9 23q4 1 7 12q6 22 46 22q21 0 40 -9t19 -19q0 2 3 -15q2 -7 2 -18zM802 410q0 26 -18 61q-8 15 -12 35t-20 32q-41 31 -64 71q-30 52 -76 78q-58 33 -181 33
q-29 0 -34 -3.5t-12 -3.5q-63 -3 -58 -3q-6 0 -24 -9.5t-21 -9.5q-28 0 -35 -7q-20 -20 -36 -20q-4 0 -16 -11q-16 -15 -25 -21q-38 -26 -65 -81q-16 -16 -37 -51q-2 -9 -17 -49q-13 -34 -13 -41q0 -8 5 -25.5t5 -26.5q0 -2 -5 -12t-5 -13q0 -33 15 -78q7 -20 12 -27
q15 -18 36 -49q14 -25 29 -39q27 -26 35 -43q2 -6 8 -14q29 -19 51 -41q10 -10 58 -29t70 -19q102 0 172 8q53 6 92 31q129 84 164 200l14 38q3 8 3 39q0 6 -2 39q-2 25 0 38q1 3 4 11t3 12zM671 306q0 -12 -2 -15q-8 -13 -17 -43t-9 -40q0 -5 2 -17q-12 -23 -14 -44
q-1 -9 -34 -30q-11 -7 -38 -34q-6 -6 -33 -16q-30 -11 -40 -17q-15 -9 -43 -9q-6 0 -24.5 10.5t-26.5 10.5q-50 0 -80 22q-7 5 -36 14q-21 7 -31 27q-14 23 -38 74q-4 10 -2 26q3 22 3 17q0 1 -3 17t-3 21v31q-1 21 -1 31q0 3 3 18.5t3 19.5q0 18 -12 27q-6 4 -6 20
q0 25 19 46t21 47q3 33 12 41.5t36 43.5q21 27 40 39q60 37 120 37t76.5 -23.5t27.5 -31.5q49 -36 54 -61q4 -20 17 -25q18 -7 38 -28t20 -37q0 -5 -3.5 -14.5t-3.5 -14t-3 -22.5t-3 -20q0 -23 7 -57.5t7 -40.5z" />
    <glyph glyph-name="Udieresis" unicode="&#xdc;" horiz-adv-x="766" 
d="M558 835q0 -9 -6 -14.5t-15.5 -18t-37.5 -12.5q-1 0 -4 1.5t-5 1.5h-8q-4 0 -14 5q-4 3 -9 3t-16 16q-12 20 -12 39t13 35q10 13 16 13q12 0 12 4q7 0 16 2t11 2q27 0 39 -14q8 -11 17 -42v-11q0 -1 1.5 -4.5t1.5 -5.5zM370 852q0 -18 -3 -24q-11 -8 -11 -14.5
t-13.5 -12.5t-26.5 -6q-2 0 -6.5 1.5t-6.5 1.5q8 0 -20 -2q-3 3 -13 5q-20 4 -26 20q1 2 1 14t-1 21q9 15 9 23q4 1 7 12q9 22 46 22q21 0 40 -9t19 -19q0 2 3 -15q2 -7 2 -18zM752 721q0 7 -10.5 14.5t-17.5 7.5t-17.5 1t-11.5 1q-3 0 -28.5 -7.5t-30.5 -7.5t-18 6
q-7 3 -18 3q-2 0 -16 -1.5t-19 -1.5q-72 0 -72 -24q0 -11 20 -22q34 -18 44.5 -29.5t17.5 -36.5q10 -36 10 -40v-19q-1 -12 -1 -19l5.5 -21t5.5 -31q0 -14 -4.5 -43l-4.5 -29q0 -3 14 -52q3 -11 3 -33q3 -4 3 -8t-7 -21q-3 -7 -3 -45q-17 -17 -17 -46q0 -8 3.5 -17t3.5 -10
q0 -13 -10.5 -31t-10.5 -23q0 -13 -30 -37q-35 -28 -73 -28h-107q-36 0 -63 35q-4 5 -24 17q-6 4 -14.5 15t-8.5 17q0 19 -8 19q-4 0 -4 5t-7.5 35.5t-7.5 52.5q0 6 5 20t5 29q0 7 -3 40.5t-3 57.5q0 9 6 26q0 2 -1 7.5t-1 7.5q0 30 -2 33q-14 21 -14 35q0 7 12 46t15 44
q12 8 27 31q3 15 25 22q34 10 37 12q12 6 12 19q0 8 -6.5 16.5t-14.5 8.5q-27 0 -77 10.5t-49 10.5q-4 0 -15 -4t-14 -4t-11 1t-10 1q-10 0 -35.5 -5.5t-37.5 -5.5q-3 0 -9 2q-9 0 -18 -7t-9 -15q0 -3 1 -8t1 -7q12 -11 40 -22q3 -1 10 -6q23 -60 23 -104q0 -15 -6.5 -38.5
t-6.5 -32.5q0 -5 3.5 -28.5t3.5 -30.5q0 -5 -2.5 -28t-2.5 -27q0 -8 8 -34.5t8 -44t9 -90.5q2 -18 2 -34q0 -2 -1 -12t-1 -15t4 -13t4 -11q5 -26 18 -36t22 -25q5 -9 13 -13q14 -8 15 -9q21 -16 51 -24q11 -3 16.5 -6.5t13.5 -3.5h21q2 0 7.5 -2t7.5 -2t12.5 1t14.5 1h126
q23 0 47.5 10.5t33.5 22.5q8 2 16 7q19 25 57 50q29 19 29 75q0 27 6 59t6 100q0 14 -4 41t-4 41q0 7 2 19.5t2 15.5q0 12 -4 32q7 25 7 52q0 5 2 19.5t2 18.5t-1.5 12.5t-1.5 12.5q0 20 10 35q28 43 46 52q7 4 13 10q21 23 21 35z" />
    <glyph glyph-name="aacute" unicode="&#xe1;" horiz-adv-x="344" 
d="M320 50q0 -16 -22 -32t-40 -16q-19 0 -42 10t-25 10q-8 0 -22.5 -12.5t-41.5 -12.5q-33 0 -46 9t-21 13q-4 2 -12.5 31t-8.5 41q0 38 10 48q5 5 5 10.5t5 9.5t5 7q0 21 22 21q6 0 8 2q9 8 37 19q21 8 38 38t17 68q0 31 -19 31q-8 0 -22 -14q-19 -18 -56 -18t-37 19
q0 9 17 33l24 33q5 3 31 12t35 9t42 -10q42 -13 58 -46v-10q11 -43 11 -141q0 -6 -1.5 -44t-1.5 -50q0 -25 35 -38q18 -7 18 -30zM194 103q0 33 -4.5 33t-4.5 9q0 32 -1 48q-2 5 -8 5q-10 0 -28.5 -25t-18.5 -42q0 -59 34 -59q20 0 27 24q4 0 4 7zM290 587q0 -25 -19 -37v-2
q-6 0 -10.5 -5.5t-9.5 -6.5q-17 -7 -22 -12l-2 1q-1 -2 -4.5 -4t-12.5 -6q-26 -4 -37 -15q-7 -7 -23 -13q-5 -1 -13 -7q-2 -2 -16 -7q-9 -9 -24 -9q-11 0 -11 15q0 8 15.5 22.5t27.5 19.5q4 2 8 10t11 10q11 2 11 10q0 5 20 19q5 5 6 8q18 7 31 28q3 4 16.5 9t19.5 5
q38 0 38 -33z" />
    <glyph glyph-name="agrave" unicode="&#xe0;" horiz-adv-x="344" 
d="M320 50q0 -16 -22 -32t-40 -16q-19 0 -42 10t-25 10q-8 0 -22.5 -12.5t-41.5 -12.5q-33 0 -46 9t-21 13q-4 2 -12.5 31t-8.5 41q0 38 10 48q5 5 5 10.5t5 9.5t5 7q0 21 22 21q6 0 8 2q9 8 37 19q21 8 38 38t17 68q0 31 -19 31q-8 0 -22 -14q-19 -18 -56 -18t-37 19
q0 9 17 33l24 33q5 3 31 12t35 9t42 -10q42 -13 58 -46v-10q11 -43 11 -141q0 -6 -1.5 -44t-1.5 -50q0 -25 35 -38q18 -7 18 -30zM194 103q0 33 -4.5 33t-4.5 9q0 32 -1 48q-2 5 -8 5q-10 0 -28.5 -25t-18.5 -42q0 -59 34 -59q20 0 27 24q4 0 4 7zM47 587q0 -25 19 -37v-2
q6 0 10.5 -5.5t9.5 -6.5q17 -7 22 -12l2 1q2 -2 5 -4t12 -6q26 -4 37 -15q7 -7 23 -13q5 -1 13 -7q2 -2 16 -7q9 -9 24 -9q11 0 11 15q0 8 -15.5 22.5t-27.5 19.5q-4 2 -8 10t-11 10q-11 2 -11 10q0 5 -20 19q-5 5 -6 8q-18 7 -31 28q-3 4 -16.5 9t-19.5 5q-38 0 -38 -33z
" />
    <glyph glyph-name="acircumflex" unicode="&#xe2;" horiz-adv-x="344" 
d="M320 50q0 -16 -22 -32t-40 -16q-19 0 -42 10t-25 10q-8 0 -22.5 -12.5t-41.5 -12.5q-33 0 -46 9t-21 13q-4 2 -12.5 31t-8.5 41q0 38 10 48q5 5 5 10.5t5 9.5t5 7q0 21 22 21q6 0 8 2q9 8 37 19q21 8 38 38t17 68q0 31 -19 31q-8 0 -22 -14q-19 -18 -56 -18t-37 19
q0 9 17 33l24 33q5 3 31 12t35 9t42 -10q42 -13 58 -46v-10q11 -43 11 -141q0 -6 -1.5 -44t-1.5 -50q0 -25 35 -38q18 -7 18 -30zM194 103q0 33 -4.5 33t-4.5 9q0 32 -1 48q-2 5 -8 5q-10 0 -28.5 -25t-18.5 -42q0 -59 34 -59q20 0 27 24q4 0 4 7zM311 480q0 -15 -11 -15
t-19 10q-11 2 -16 7q-4 2 -11 6q-10 4 -19 15q-12 15 -27 15q-1 2 -3 4h-3q-38 19 -35 19q-16 0 -16 -5t-7 -8q-3 -1 -9 -9q-21 -4 -32 -16q-4 -8 -16 -20q-9 -6 -17.5 -14.5t-25.5 -8.5q-11 0 -11 15q0 8 10.5 25t19 23.5t8.5 10.5t9 7.5t9 9.5q0 3 6.5 7t10.5 13
q9 19 39 46q12 11 22 11q2 0 7 1.5t8 1.5q8 0 17 -24q8 -20 27 -28q0 -2 6 -8q16 -13 16 -19.5t9 -10t9 -7.5t9 -11t22.5 -21t13.5 -22z" />
    <glyph glyph-name="adieresis" unicode="&#xe4;" horiz-adv-x="344" 
d="M320 50q0 -16 -22 -32t-40 -16q-19 0 -42 10t-25 10q-8 0 -22.5 -12.5t-41.5 -12.5q-33 0 -46 9t-21 13q-4 2 -12.5 31t-8.5 41q0 38 10 48q5 5 5 10.5t5 9.5t5 7q0 21 22 21q6 0 8 2q9 8 37 19q21 8 38 38t17 68q0 31 -19 31q-8 0 -22 -14q-19 -18 -56 -18t-37 19
q0 9 17 33l24 33q5 3 31 12t35 9t42 -10q42 -13 58 -46v-10q11 -43 11 -141q0 -6 -1.5 -44t-1.5 -50q0 -25 35 -38q18 -7 18 -30zM194 103q0 33 -4.5 33t-4.5 9q0 32 -1 48q-2 5 -8 5q-10 0 -28.5 -25t-18.5 -42q0 -59 34 -59q20 0 27 24q4 0 4 7zM303 508q0 -7 -5.5 -12
t-13.5 -16t-32 -11q-1 0 -4 1.5t-4 1.5h-7q-5 0 -11 3.5t-10 3.5t-13.5 15t-9.5 32t11 31q9 11 14 11q10 0 10 4q6 0 14 1.5t10 1.5q23 0 34 -13q7 -9 15 -36v-9q0 -1 1 -4t1 -5zM148 523q0 -15 -2 -21q-10 -5 -10 -11.5t-12 -12t-23 -5.5q-2 0 -6 1.5t-5 1.5q5 0 -17 -2
q-5 3 -12 5q-18 4 -22 17q1 3 1 12v8q-1 6 -1 10q8 16 8 20q5 8 9 17q10 13 37 13q19 0 35 -7.5t16 -16.5q0 -2 2 -7t2 -22z" />
    <glyph glyph-name="atilde" unicode="&#xe3;" horiz-adv-x="344" 
d="M320 50q0 -16 -22 -32t-40 -16q-19 0 -42 10t-25 10q-8 0 -22.5 -12.5t-41.5 -12.5q-33 0 -46 9t-21 13q-4 2 -12.5 31t-8.5 41q0 38 10 48q5 5 5 10.5t5 9.5t5 7q0 21 22 21q6 0 8 2q9 8 37 19q21 8 38 38t17 68q0 31 -19 31q-8 0 -22 -14q-19 -18 -56 -18t-37 19
q0 9 17 33l24 33q5 3 31 12t35 9t42 -10q42 -13 58 -46v-10q11 -43 11 -141q0 -6 -1.5 -44t-1.5 -50q0 -25 35 -38q18 -7 18 -30zM194 103q0 33 -4.5 33t-4.5 9q0 32 -1 48q-2 5 -8 5q-10 0 -28.5 -25t-18.5 -42q0 -59 34 -59q20 0 27 24q4 0 4 7zM313 564q0 -7 -6.5 -21
t-13.5 -17l-1 -6q-8 -4 -14 -15q-6 -14 -8 -16q-20 -20 -63 -20q-10 0 -21.5 8.5t-12.5 12.5q-1 1 -11 5t-12 4q-5 0 -10 7q-11 15 -45 30q-2 1 -6 4q-26 0 -26 -39q0 -16 -32 -16q-8 0 -8 28q0 24 24 54q42 30 56 30q31 0 43 -12q9 -9 36 -18q9 -3 27 -17q15 -13 22 -13
q19 0 28 9q7 6 16 26q7 15 33 15q5 0 5 -23z" />
    <glyph glyph-name="aring" unicode="&#xe5;" horiz-adv-x="344" 
d="M320 50q0 -16 -22 -32t-40 -16q-19 0 -42 10t-25 10q-8 0 -22.5 -12.5t-41.5 -12.5q-33 0 -46 9t-21 13q-4 2 -12.5 31t-8.5 41q0 38 10 48q5 5 5 10.5t5 9.5t5 7q0 21 22 21q6 0 8 2q9 8 37 19q21 8 38 38t17 68q0 31 -19 31q-8 0 -22 -14q-19 -18 -56 -18t-37 19
q0 9 17 33l24 33q5 3 31 12t35 9t42 -10q42 -13 58 -46v-10q11 -43 11 -141q0 -6 -1.5 -44t-1.5 -50q0 -25 35 -38q18 -7 18 -30zM194 103q0 33 -4.5 33t-4.5 9q0 32 -1 48q-2 5 -8 5q-10 0 -28.5 -25t-18.5 -42q0 -59 34 -59q20 0 27 24q4 0 4 7zM252 527q0 -27 -27 -42
q-23 -13 -57 -13q-36 0 -60.5 26t-24.5 57q0 6 6 34q47 47 84 47q22 0 42 -9.5t20 -23.5q0 -3 5 -5.5t6 -5.5q3 -6 3 -49q0 -3 1.5 -8.5t1.5 -7.5zM213 560q0 10 -4.5 19.5t-9.5 9.5t-11 9q-2 1 -18 1q-15 0 -17 -1q-6 -2 -7 -2q-8 0 -16.5 -13.5t-8.5 -28.5q0 -29 21 -34
q4 -1 9 -5q7 0 17 -7q3 0 8 1h7q7 0 10 -1q10 4 14 15.5t5 12.5q-2 20 -2 15q0 2 1.5 5t1.5 4z" />
    <glyph glyph-name="ccedilla" unicode="&#xe7;" horiz-adv-x="394" 
d="M314 -121q0 -23 -15 -41q-4 -6 -4 -9q0 -7 -9 -10q-18 -8 -34.5 -18t-34.5 -10q-1 0 -14 1.5t-21 1.5q-24 0 -49 11.5t-25 25.5q0 19 13 19q8 0 19 -5q17 -8 37 -8q27 0 27 11q17 0 17 12q0 2 4.5 12.5t4.5 12.5q0 22 -8 23q-3 1 -11.5 8.5t-18.5 7.5l-6.5 1.5t-10.5 1.5
q-1 0 -12 -2q-10 -1 -15 0q-7 1 -7 7q0 -7 10 23l3 1q3 13 3 21q0 7 -8 11q-12 6 -17 12q-15 17 -54 44q-4 3 -10.5 14t-6.5 15q0 11 -7 23.5t-14 55.5t-7 72q0 26 8 57t15 40q11 14 16.5 32.5t35.5 38.5l50 29q15 9 35 9t92 3l38 -27q21 -36 21 -51q0 -14 -11 -24.5
t-26 -10.5q-2 0 -9 1h-9q-42 4 -57 17q-31 28 -45 28q-2 0 -32 -3q-19 -23 -25.5 -26.5t-6.5 -24.5q0 -4 1.5 -14t1.5 -13q0 -1 -3.5 -5.5t-3.5 -6.5q0 -3 2.5 -15t2.5 -14q0 -6 -4 -14q-1 -3 -1 -19q0 -29 9 -41q12 -16 13 -26q5 -41 41 -62q22 -13 108 -13q13 0 29 13.5
t33 13.5q25 0 25 -27q0 -11 -22.5 -33.5t-46 -36.5t-60.5 -14q-24 0 -46 -9q-4 -9 -4 -15q0 -5 11 -1q12 4 16 4q16 0 45.5 -15.5t32.5 -28.5l6 -18q5 -15 5 -23z" />
    <glyph glyph-name="eacute" unicode="&#xe9;" horiz-adv-x="380" 
d="M359 288q0 -22 -26 -22q-12 0 -18.5 5t-16.5 5h-49q-20 -6 -53 -6q-6 0 -26.5 1t-31.5 1q-28 0 -35 -19q-4 -10 -4 -55q0 -20 8 -20q-4 -7 -4 -14t16.5 -32t30 -29.5t26.5 -14.5q8 -6 33 -6h81q18 16 36 16t18 -29q0 -12 -5 -18t-5 -9q0 -21 -35 -35q-41 -16 -116 -16
t-102 45q-15 0 -20 18q-8 28 -21 50q0 15 -5 41q-4 21 -4 24q0 29 8 69q7 35 12 43.5t5 27.5q1 3 9.5 17t8.5 18q0 14 15 24q20 14 26.5 22.5t31.5 17t48 8.5q32 0 53 -11h13q25 0 57.5 -37.5t32.5 -59.5q0 -2 4 -9.5t4 -10.5zM231 333q0 7 -11.5 17t-21.5 13
q-6 -6 -21.5 -6t-28 -7t-12.5 -17q0 -14 26 -14q37 0 67 6q0 2 1 4.5t1 3.5zM317 587q0 -25 -19 -37v-2q-6 0 -10.5 -5.5t-9.5 -6.5q-17 -7 -22 -12l-2 1q-1 -2 -4.5 -4t-12.5 -6q-26 -4 -37 -15q-7 -7 -23 -13q-5 -1 -13 -7q-2 -2 -16 -7q-9 -9 -24 -9q-11 0 -11 15
q0 8 15.5 22.5t27.5 19.5q4 2 8 10t11 10q11 2 11 10q0 5 20 19q5 5 6 8q18 7 31 28q3 4 16.5 9t19.5 5q38 0 38 -33z" />
    <glyph glyph-name="egrave" unicode="&#xe8;" horiz-adv-x="380" 
d="M359 288q0 -22 -26 -22q-12 0 -18.5 5t-16.5 5h-49q-20 -6 -53 -6q-6 0 -26.5 1t-31.5 1q-28 0 -35 -19q-4 -10 -4 -55q0 -20 8 -20q-4 -7 -4 -14t16.5 -32t30 -29.5t26.5 -14.5q8 -6 33 -6h81q18 16 36 16t18 -29q0 -12 -5 -18t-5 -9q0 -21 -35 -35q-41 -16 -116 -16
t-102 45q-15 0 -20 18q-8 28 -21 50q0 15 -5 41q-4 21 -4 24q0 29 8 69q7 35 12 43.5t5 27.5q1 3 9.5 17t8.5 18q0 14 15 24q20 14 26.5 22.5t31.5 17t48 8.5q32 0 53 -11h13q25 0 57.5 -37.5t32.5 -59.5q0 -2 4 -9.5t4 -10.5zM231 333q0 7 -11.5 17t-21.5 13
q-6 -6 -21.5 -6t-28 -7t-12.5 -17q0 -14 26 -14q37 0 67 6q0 2 1 4.5t1 3.5zM76 587q0 -25 19 -37v-2q6 0 10.5 -5.5t9.5 -6.5q17 -7 22 -12l2 1q2 -2 5 -4t12 -6q26 -4 37 -15q7 -7 23 -13q5 -1 13 -7q2 -2 16 -7q9 -9 24 -9q11 0 11 15q0 8 -15.5 22.5t-27.5 19.5
q-4 2 -8 10t-11 10q-11 2 -11 10q0 5 -20 19q-5 5 -6 8q-18 7 -31 28q-3 4 -16.5 9t-19.5 5q-38 0 -38 -33z" />
    <glyph glyph-name="ecircumflex" unicode="&#xea;" horiz-adv-x="380" 
d="M359 288q0 -22 -26 -22q-12 0 -18.5 5t-16.5 5h-49q-20 -6 -53 -6q-6 0 -26.5 1t-31.5 1q-28 0 -35 -19q-4 -10 -4 -55q0 -20 8 -20q-4 -7 -4 -14t16.5 -32t30 -29.5t26.5 -14.5q8 -6 33 -6h81q18 16 36 16t18 -29q0 -12 -5 -18t-5 -9q0 -21 -35 -35q-41 -16 -116 -16
t-102 45q-15 0 -20 18q-8 28 -21 50q0 15 -5 41q-4 21 -4 24q0 29 8 69q7 35 12 43.5t5 27.5q1 3 9.5 17t8.5 18q0 14 15 24q20 14 26.5 22.5t31.5 17t48 8.5q32 0 53 -11h13q25 0 57.5 -37.5t32.5 -59.5q0 -2 4 -9.5t4 -10.5zM231 333q0 7 -11.5 17t-21.5 13
q-6 -6 -21.5 -6t-28 -7t-12.5 -17q0 -14 26 -14q37 0 67 6q0 2 1 4.5t1 3.5zM333 480q0 -15 -11 -15t-19 10q-11 2 -16 7q-4 2 -11 6q-10 4 -19 15q-12 15 -27 15q-1 2 -3 4h-3q-38 19 -35 19q-16 0 -16 -5t-7 -8q-3 -1 -9 -9q-21 -4 -32 -16q-4 -8 -16 -20
q-9 -6 -17.5 -14.5t-25.5 -8.5q-11 0 -11 15q0 8 10.5 25t19 23.5t8.5 10.5t9 7.5t9 9.5q0 3 6.5 7t10.5 13q9 19 39 46q12 11 22 11q2 0 7 1.5t8 1.5q8 0 17 -24q8 -20 27 -28q0 -2 6 -8q16 -13 16 -19.5t9 -10t9 -7.5t9 -11t22.5 -21t13.5 -22z" />
    <glyph glyph-name="edieresis" unicode="&#xeb;" horiz-adv-x="380" 
d="M359 288q0 -22 -26 -22q-12 0 -18.5 5t-16.5 5h-49q-20 -6 -53 -6q-6 0 -26.5 1t-31.5 1q-28 0 -35 -19q-4 -10 -4 -55q0 -20 8 -20q-4 -7 -4 -14t16.5 -32t30 -29.5t26.5 -14.5q8 -6 33 -6h81q18 16 36 16t18 -29q0 -12 -5 -18t-5 -9q0 -21 -35 -35q-41 -16 -116 -16
t-102 45q-15 0 -20 18q-8 28 -21 50q0 15 -5 41q-4 21 -4 24q0 29 8 69q7 35 12 43.5t5 27.5q1 3 9.5 17t8.5 18q0 14 15 24q20 14 26.5 22.5t31.5 17t48 8.5q32 0 53 -11h13q25 0 57.5 -37.5t32.5 -59.5q0 -2 4 -9.5t4 -10.5zM231 333q0 7 -11.5 17t-21.5 13
q-6 -6 -21.5 -6t-28 -7t-12.5 -17q0 -14 26 -14q37 0 67 6q0 2 1 4.5t1 3.5zM324 508q0 -7 -5.5 -12t-13.5 -16t-32 -11q-1 0 -4 1.5t-4 1.5h-7q-5 0 -11 3.5t-10 3.5t-13.5 15t-9.5 32t11 31q9 11 14 11q10 0 10 4q6 0 14 1.5t10 1.5q23 0 34 -13q7 -9 15 -36v-9q0 -1 1 -4
t1 -5zM169 523q0 -15 -2 -21q-10 -5 -10 -11.5t-12 -12t-23 -5.5q-2 0 -6 1.5t-5 1.5q5 0 -17 -2q-5 3 -12 5q-18 4 -22 17q1 3 1 12v8q-1 6 -1 10q8 16 8 20q5 8 9 17q10 13 37 13q19 0 35 -7.5t16 -16.5q0 -2 2 -7t2 -22z" />
    <glyph glyph-name="iacute" unicode="&#xed;" horiz-adv-x="259" 
d="M225 22q0 -9 -17 -15.5t-32 -6.5q-2 0 -13 1h-14q-18 0 -36 -3.5t-19 -3.5h-11q-9 1 -14 1t-12 -1l-7 -1q-25 0 -25 31q0 10 16 23q3 3 16 8.5t17 15.5q4 17 14 43q-3 3 -3 6t3 6q-4 8 -4 16q0 6 1 8q-3 18 -3 62q0 3 1.5 22.5t1.5 35.5q0 26 -32 39q-14 6 -14 16
q0 24 13 27q21 5 28.5 18.5t19.5 18.5q23 10 43 34q7 8 22 8q24 0 24 -35q0 -1 -5.5 -39.5t-5.5 -43.5q0 -2 2 -5.5t2 -6.5q0 -2 -6 -20q0 -5 1.5 -24.5t1.5 -29.5q0 -14 -1.5 -33.5t-1.5 -26.5q3 -9 5 -18q-1 6 -1 -23l3.5 -7.5t3.5 -12.5v-12q-1 -7 -1 -10q0 -10 22 -27
q17 -13 17 -35zM239 587q0 -25 -19 -37v-2q-6 0 -10.5 -5.5t-9.5 -6.5q-17 -7 -22 -12l-2 1q-1 -2 -4.5 -4t-12.5 -6q-26 -4 -37 -15q-7 -7 -23 -13q-5 -1 -13 -7q-2 -2 -16 -7q-9 -9 -24 -9q-11 0 -11 15q0 8 15.5 22.5t27.5 19.5q4 2 8 10t11 10q11 2 11 10q0 5 20 19
q5 5 6 8q18 7 31 28q3 4 16.5 9t19.5 5q38 0 38 -33z" />
    <glyph glyph-name="igrave" unicode="&#xec;" horiz-adv-x="259" 
d="M225 22q0 22 -17 35q-22 16 -22 27q0 3 1 10v12t-3.5 12.5l-3.5 7.5q0 29 1 23q-2 9 -5 18q0 7 1.5 26.5t1.5 33.5q0 10 -1.5 29.5t-1.5 24.5q6 12 6 20q0 3 -2 6.5t-2 5.5q0 5 5.5 43.5t5.5 39.5q0 35 -24 35q-15 0 -22 -8q-20 -24 -43 -34q-12 -5 -19.5 -18.5
t-28.5 -18.5q-13 -3 -13 -27q0 -10 14 -16q32 -13 32 -39q0 -16 -1.5 -35.5t-1.5 -22.5q0 -44 3 -62q-1 -2 -1 -8q0 -8 4 -16l-3 -6q0 -3 3 -6l-14 -43q-4 -10 -17 -15.5t-16 -8.5q-16 -16 -16 -23q0 -31 25 -31l7 1t12 1t14 -1h11q1 0 19 3.5t36 3.5h14q11 -1 13 -1
q15 0 32 6.5t17 15.5zM0 587q0 33 38 33q6 0 19.5 -5t16.5 -9q13 -21 31 -28q1 -3 6 -8q20 -14 20 -19q0 -8 11 -10q7 -2 11 -10t8 -10q12 -5 27.5 -19.5t15.5 -22.5q0 -15 -11 -15q-15 0 -24 9q-9 1 -16.5 7t-12.5 7q-16 6 -23 13q-11 11 -37 15q-2 2 -13 5q-1 2 -4 5
l-2 -1q-5 5 -22 12q-5 1 -9.5 6.5t-10.5 5.5v2q-19 12 -19 37z" />
    <glyph glyph-name="icircumflex" unicode="&#xee;" horiz-adv-x="259" 
d="M225 22q0 22 -17 35q-22 16 -22 27q0 3 1 10v12t-3.5 12.5l-3.5 7.5q0 30 1 23q0 10 -5 18q0 7 1.5 26.5t1.5 33.5q0 10 -1.5 29.5t-1.5 24.5q6 12 6 20q0 3 -2 6.5t-2 5.5q0 5 5.5 43.5t5.5 39.5q0 35 -24 35q-15 0 -22 -8q-20 -24 -43 -34q-12 -5 -19.5 -18.5
t-28.5 -18.5q-13 -3 -13 -27q0 -10 14 -16q32 -13 32 -39q0 -16 -1.5 -35.5t-1.5 -22.5q0 -44 3 -62q-1 -2 -1 -8q1 -6 4 -16l-3 -6q0 -3 3 -6l-14 -43q-4 -10 -17 -15.5t-16 -8.5q-16 -16 -16 -23q0 -31 25 -31q1 0 7.5 1t11.5 1t14 -1h11q1 0 19 3.5t36 3.5h14
q11 -1 13 -1q15 0 32 6.5t17 15.5zM269 480q0 8 -13.5 22t-22.5 21t-9 11t-9 7.5t-9 10t-16 19.5q-6 6 -6 8q-19 8 -27 28q-9 24 -17 24q-3 0 -8 -1.5t-7 -1.5q-10 0 -22 -11q-30 -27 -39 -46q-4 -9 -10.5 -13t-6.5 -7q0 -6 -9 -9.5t-9 -7.5t-8.5 -10.5t-19 -23.5t-10.5 -25
q0 -15 11 -15q17 0 25.5 8.5t17.5 14.5q5 7 16 19.5t32 16.5q6 8 9 9q7 3 7 8t16 5q-3 0 35 -19h3q1 -2 3 -4q15 0 27 -15q9 -11 19 -15q4 -2 10 -6.5t17 -6.5q8 -10 19 -10t11 15z" />
    <glyph glyph-name="idieresis" unicode="&#xef;" horiz-adv-x="259" 
d="M225 22q0 22 -17 35q-22 17 -22 27q0 3 1 10v12t-3.5 12.5l-3.5 7.5q0 29 1 23q-2 9 -5 18q0 7 1.5 26.5t1.5 33.5q0 10 -1.5 29.5t-1.5 24.5q6 12 6 20q0 3 -2 6.5t-2 5.5q0 5 5.5 43.5t5.5 39.5q0 35 -24 35q-15 0 -22 -8q-20 -24 -43 -34q-12 -5 -19.5 -18.5
t-28.5 -18.5q-13 -3 -13 -27q0 -10 14 -16q32 -13 32 -39q0 -16 -1.5 -35.5t-1.5 -22.5q0 -44 3 -62q-1 -2 -1 -8q0 -8 4 -16l-3 -6q0 -3 3 -6l-14 -43q-4 -10 -17 -15.5t-16 -8.5q-16 -13 -16 -23q0 -31 25 -31l7 1t12 1t14 -1h11q1 0 19 3.5t36 3.5h14q11 -1 13 -1
q15 0 32 6.5t17 15.5zM264 508q0 2 -1 5t-1 4v9q-8 27 -15 36q-11 13 -34 13q-2 0 -10 -1.5t-14 -1.5q0 -4 -10 -4q-5 0 -14 -11q-11 -14 -11 -31t9.5 -32t13.5 -15t10 -3.5t11 -3.5h7q1 0 4 -1.5t4 -1.5q24 0 32 11t13.5 16t5.5 12zM109 523q0 17 -2 22t-2 7q0 9 -16 16.5
t-35 7.5q-27 0 -37 -13q-4 -9 -9 -17q0 -4 -8 -20q0 -4 1 -10v-8q0 -9 -1 -12q4 -13 22 -17q7 -2 12 -5q22 2 17 2q1 0 5 -1.5t6 -1.5q11 0 23 5.5t12 12t10 11.5q2 6 2 21z" />
    <glyph glyph-name="ntilde" unicode="&#xf1;" horiz-adv-x="433" 
d="M399 31q0 -8 -8 -17q-24 0 -70.5 -5.5t-44.5 -5.5q-30 0 -30 30l17 15.5t16 36.5q5 5 5 16q0 8 -3 23l3 5q-1 -8 -1 27q0 2 1.5 5.5t1.5 4.5q0 2 -2 10.5t-2 12.5q0 5 1 18.5t1 21.5q-4 0 -4 38t-9 53q-13 21 -48 21q-18 0 -25.5 -3.5t-17.5 -18.5q-2 -9 -11 -31
q-4 -8 -2 -40q2 -3 2 -22q0 -3 -3 -21q-3 -9 -3 -31l2 -19.5t2 -29.5v-32q0 -8 15 -38q34 -20 34 -35q0 -26 -56 -26q8 0 -24 4q-4 1 -36 1q-55 0 -55 12v12q0 6 15 19.5t15 20.5t4 27.5t4 29.5v59l2 12q2 11 2 25q0 17 -4 46t-4 32.5t-5.5 17t-5.5 21.5q-26 15 -26 25
q0 5 7.5 15.5t10.5 12.5q7 3 28 3q10 0 41.5 24.5t38.5 24.5q18 0 29 -13q0 -23 9 -23q7 0 20 5.5t21 5.5q52 0 80 -22q13 -10 25 -44q2 -5 8 -13q0 -14 2 -30l2 -16q0 -7 -2.5 -21t-2.5 -21q0 -3 1.5 -8.5t1.5 -8.5q0 -5 -2.5 -10.5t-2.5 -6.5q0 -2 2.5 -8.5t2.5 -9.5
q0 -58 -1 -47q1 -8 7 -34q5 -22 4 -33q0 -5 3 -8q24 -23 24 -41zM358 564q0 -7 -6.5 -21t-13.5 -17l-1 -6q-8 -4 -14 -15q-6 -14 -8 -16q-20 -20 -63 -20q-10 0 -21.5 8.5t-12.5 12.5q-1 1 -11 5t-12 4q-5 0 -10 7q-11 15 -45 30q-2 1 -6 4q-26 0 -26 -39q0 -16 -32 -16
q-8 0 -8 28q0 24 24 54q42 30 56 30q31 0 43 -12q9 -9 36 -18q9 -3 27 -17q15 -13 22 -13q19 0 28 9q7 6 16 26q7 15 33 15q5 0 5 -23z" />
    <glyph glyph-name="oacute" unicode="&#xf3;" 
d="M445 165q0 -30 -7 -46q-5 -12 -26 -39q-16 -20 -25 -25q-42 -21 -57 -32q-27 -20 -88 -20q-24 0 -64 11q-63 17 -104 60.5t-41 95.5q0 40 4 46q-6 22 -6 44q8 25 29 63q2 10 12 29q11 11 51 35t53.5 27.5t48.5 3.5q27 0 44 -9q11 -6 27 -6t43.5 -11t38.5 -20q0 -3 10 -11
q40 -33 40 -58q0 -10 6 -34t6 -37q0 -5 2.5 -26.5t2.5 -40.5zM365 199q0 2 -4.5 7t-4.5 12q0 24 -16 51l1 6q-15 7 -17 26t-13 28t-36 18q-4 0 -9 1q-7 9 -13 10q-9 2 -38 2q-32 0 -41 -9q-25 -26 -42 -47q-23 -28 -23 -58q0 -6 6 -22t7 -23q3 -35 10 -49q12 -24 12 -52
q0 -15 26 -29q32 -17 83 -17q33 0 50 11.5t31 46.5q6 5 17 19q14 27 14 68zM361 587q0 -25 -19 -37v-2q-6 0 -10.5 -5.5t-9.5 -6.5q-17 -7 -22 -12l-2 1q-1 -2 -4.5 -4t-12.5 -6q-26 -4 -37 -15q-7 -7 -23 -13q-5 -1 -13 -7q-2 -2 -16 -7q-9 -9 -24 -9q-11 0 -11 15
q0 8 15.5 22.5t27.5 19.5q4 2 8 10t11 10q11 2 11 10q0 5 20 19q5 5 6 8q18 7 31 28q3 4 16.5 9t19.5 5q38 0 38 -33z" />
    <glyph glyph-name="ograve" unicode="&#xf2;" 
d="M445 165q0 -30 -7 -46q-5 -12 -26 -39q-16 -20 -25 -25q-42 -21 -57 -32q-27 -20 -88 -20q-24 0 -64 11q-63 17 -104 60.5t-41 95.5q0 40 4 46q-6 22 -6 44q8 25 29 63q2 10 12 29q11 11 51 35t53.5 27.5t48.5 3.5q27 0 44 -9q11 -6 27 -6t43.5 -11t38.5 -20q0 -3 10 -11
q40 -33 40 -58q0 -10 6 -34t6 -37q0 -5 2.5 -26.5t2.5 -40.5zM365 199q0 2 -4.5 7t-4.5 12q0 24 -16 51l1 6q-15 7 -17 26t-13 28t-36 18q-4 0 -9 1q-7 9 -13 10q-9 2 -38 2q-32 0 -41 -9q-25 -26 -42 -47q-23 -28 -23 -58q0 -6 6 -22t7 -23q3 -35 10 -49q12 -24 12 -52
q0 -15 26 -29q32 -17 83 -17q33 0 50 11.5t31 46.5q6 5 17 19q14 27 14 68zM120 587q0 -25 19 -37v-2q6 0 10.5 -5.5t9.5 -6.5q17 -7 22 -12l2 1q2 -2 5 -4t12 -6q26 -4 37 -15q7 -7 23 -13q5 -1 13 -7q2 -2 16 -7q9 -9 24 -9q11 0 11 15q0 8 -15.5 22.5t-27.5 19.5
q-4 2 -8 10t-11 10q-11 2 -11 10q0 5 -20 19q-5 5 -6 8q-18 7 -31 28q-3 4 -16.5 9t-19.5 5q-38 0 -38 -33z" />
    <glyph glyph-name="ocircumflex" unicode="&#xf4;" 
d="M445 165q0 -30 -7 -46q-5 -12 -26 -39q-16 -20 -25 -25q-42 -21 -57 -32q-27 -20 -88 -20q-24 0 -64 11q-63 17 -104 60.5t-41 95.5q0 40 4 46q-6 22 -6 44q8 25 29 63q2 10 12 29q11 11 51 35t53.5 27.5t48.5 3.5q27 0 44 -9q11 -6 27 -6t43.5 -11t38.5 -20q0 -3 10 -11
q40 -33 40 -58q0 -10 6 -34t6 -37q0 -5 2.5 -26.5t2.5 -40.5zM365 199q0 2 -4.5 7t-4.5 12q0 24 -16 51l1 6q-15 7 -17 26t-13 28t-36 18q-4 0 -9 1q-7 9 -13 10q-9 2 -38 2q-32 0 -41 -9q-25 -26 -42 -47q-23 -28 -23 -58q0 -6 6 -22t7 -23q3 -35 10 -49q12 -24 12 -52
q0 -15 26 -29q32 -17 83 -17q33 0 50 11.5t31 46.5q6 5 17 19q14 27 14 68zM373 480q0 -15 -11 -15t-19 10q-11 2 -16 7q-4 2 -11 6q-10 4 -19 15q-12 15 -27 15q-1 2 -3 4h-3q-38 19 -35 19q-16 0 -16 -5t-7 -8q-3 -1 -9 -9q-21 -4 -32 -16q-4 -8 -16 -20
q-9 -6 -17.5 -14.5t-25.5 -8.5q-11 0 -11 15q0 8 10.5 25t19 23.5t8.5 10.5t9 7.5t9 9.5q0 3 6.5 7t10.5 13q9 19 39 46q12 11 22 11q2 0 7 1.5t8 1.5q8 0 17 -24q8 -20 27 -28q0 -2 6 -8q16 -13 16 -19.5t9 -10t9 -7.5t9 -11t22.5 -21t13.5 -22z" />
    <glyph glyph-name="odieresis" unicode="&#xf6;" 
d="M445 165q0 -30 -7 -46q-5 -12 -26 -39q-16 -20 -25 -25q-42 -21 -57 -32q-27 -20 -88 -20q-24 0 -64 11q-63 17 -104 60.5t-41 95.5q0 40 4 46q-6 22 -6 44q8 25 29 63q2 10 12 29q11 11 51 35t53.5 27.5t48.5 3.5q27 0 44 -9q11 -6 27 -6t43.5 -11t38.5 -20q0 -3 10 -11
q40 -33 40 -58q0 -10 6 -34t6 -37q0 -5 2.5 -26.5t2.5 -40.5zM365 199q0 2 -4.5 7t-4.5 12q0 24 -16 51l1 6q-15 7 -17 26t-13 28t-36 18q-4 0 -9 1q-7 9 -13 10q-9 2 -38 2q-32 0 -41 -9q-25 -26 -42 -47q-23 -28 -23 -58q0 -6 6 -22t7 -23q3 -35 10 -49q12 -24 12 -52
q0 -15 26 -29q32 -17 83 -17q33 0 50 11.5t31 46.5q6 5 17 19q14 27 14 68zM368 508q0 -7 -5.5 -12t-13.5 -16t-32 -11q-1 0 -4 1.5t-4 1.5h-7q-5 0 -11 3.5t-10 3.5t-13.5 15t-9.5 32t11 31q9 11 14 11q10 0 10 4q6 0 14 1.5t10 1.5q23 0 34 -13q7 -9 15 -36v-9q0 -1 1 -4
t1 -5zM213 523q0 -15 -2 -21q-10 -5 -10 -11.5t-12 -12t-23 -5.5q-2 0 -6 1.5t-5 1.5q5 0 -17 -2q-5 3 -12 5q-18 4 -22 17q1 3 1 12v8q-1 6 -1 10q8 16 8 20q5 8 9 17q10 13 37 13q19 0 35 -7.5t16 -16.5q0 -2 2 -7t2 -22z" />
    <glyph glyph-name="otilde" unicode="&#xf5;" 
d="M445 165q0 -30 -7 -46q-5 -12 -26 -39q-16 -20 -25 -25q-42 -21 -57 -32q-27 -20 -88 -20q-24 0 -64 11q-63 17 -104 60.5t-41 95.5q0 40 4 46q-6 22 -6 44q8 25 29 63q2 10 12 29q11 11 51 35t53.5 27.5t48.5 3.5q27 0 44 -9q11 -6 27 -6t43.5 -11t38.5 -20q0 -3 10 -11
q40 -33 40 -58q0 -10 6 -34t6 -37q0 -5 2.5 -26.5t2.5 -40.5zM365 199q0 2 -4.5 7t-4.5 12q0 24 -16 51l1 6q-15 7 -17 26t-13 28t-36 18q-4 0 -9 1q-7 9 -13 10q-9 2 -38 2q-32 0 -41 -9q-25 -26 -42 -47q-23 -28 -23 -58q0 -6 6 -22t7 -23q3 -35 10 -49q12 -24 12 -52
q0 -15 26 -29q32 -17 83 -17q33 0 50 11.5t31 46.5q6 5 17 19q14 27 14 68zM382 564q0 -7 -6.5 -21t-13.5 -17l-1 -6q-8 -4 -14 -15q-6 -14 -8 -16q-20 -20 -63 -20q-10 0 -21.5 8.5t-12.5 12.5q-1 1 -11 5t-12 4q-5 0 -10 7q-11 15 -45 30q-2 1 -6 4q-26 0 -26 -39
q0 -16 -32 -16q-8 0 -8 28q0 24 24 54q42 30 56 30q31 0 43 -12q9 -9 36 -18q9 -3 27 -17q15 -13 22 -13q19 0 28 9q7 6 16 26q7 15 33 15q5 0 5 -23z" />
    <glyph glyph-name="uacute" unicode="&#xfa;" horiz-adv-x="464" 
d="M406 50q-12 -13 -39 -22q-33 -11 -56 -55q-2 -3 -12 -3q-18 0 -24 24q-1 6 -16 6q-4 0 -13 -7q-14 -11 -39 -11q-47 0 -82 25q-47 35 -47 105q0 9 1 18t1 10q0 10 -2 32t-2 37q0 3 1.5 9.5t1.5 8.5t-3 13t-3 15q0 3 5 20v31q-6 17 -24 49q-26 30 -26 42q0 5 10 12.5
t28 7.5q4 0 14 -1t15 -1q6 0 16.5 2.5t14.5 2.5q24 0 30.5 -7t6.5 -32h2q0 -5 -2.5 -13t-2.5 -10q0 -11 3.5 -29t3.5 -25q0 -44 -8 -80q0 -1 5 -41q-6 0 -4 -79q5 -3 7 -22q4 -39 51 -39q25 0 49 18.5t24 34.5q0 3 -3.5 10.5t-3.5 10.5q0 4 2 13.5t2 13.5t-2 10q5 0 9 35
q4 31 4 51q0 36 -8 57q5 0 5 21q0 11 -11 33q-40 38 -40 49q0 8 11 14t21 6q6 0 56 -2q3 0 12.5 1t15.5 1q30 0 30 -32q0 -17 -1.5 -36.5t-1.5 -20.5q0 -3 2.5 -13.5t2.5 -12.5q0 -1 -3.5 -21t-3.5 -28q0 -9 5.5 -38.5t5.5 -42.5q0 -12 -3.5 -32t-3.5 -23q0 -1 8 -23.5
t8 -46.5zM349 587q0 -25 -19 -37v-2q-6 0 -10.5 -5.5t-9.5 -6.5q-17 -7 -22 -12l-2 1q-1 -2 -4.5 -4t-12.5 -6q-26 -4 -37 -15q-7 -7 -23 -13q-5 -1 -13 -7q-2 -2 -16 -7q-9 -9 -24 -9q-11 0 -11 15q0 8 15.5 22.5t27.5 19.5q4 2 8 10t11 10q11 2 11 10q0 5 20 19q5 5 6 8
q18 7 31 28q3 4 16.5 9t19.5 5q38 0 38 -33z" />
    <glyph glyph-name="ugrave" unicode="&#xf9;" horiz-adv-x="464" 
d="M406 50q-12 -13 -39 -22q-33 -11 -56 -55q-2 -3 -12 -3q-18 0 -24 24q-1 6 -16 6q-4 0 -13 -7q-14 -11 -39 -11q-47 0 -82 25q-47 35 -47 105q0 9 1 18t1 10q0 10 -2 32t-2 37q0 3 1.5 9.5t1.5 8.5t-3 13t-3 15q0 3 5 20v31q-6 17 -24 49q-26 30 -26 42q0 5 10 12.5
t28 7.5q4 0 14 -1t15 -1q6 0 16.5 2.5t14.5 2.5q24 0 30.5 -7t6.5 -32h2q0 -5 -2.5 -13t-2.5 -10q0 -11 3.5 -29t3.5 -25q0 -44 -8 -80q0 -1 5 -41q-6 0 -4 -79q5 -3 7 -22q4 -39 51 -39q25 0 49 18.5t24 34.5q0 3 -3.5 10.5t-3.5 10.5q0 4 2 13.5t2 13.5t-2 10q5 0 9 35
q4 31 4 51q0 36 -8 57q5 0 5 21q0 11 -11 33q-40 38 -40 49q0 8 11 14t21 6q6 0 56 -2q3 0 12.5 1t15.5 1q30 0 30 -32q0 -17 -1.5 -36.5t-1.5 -20.5q0 -3 2.5 -13.5t2.5 -12.5q0 -1 -3.5 -21t-3.5 -28q0 -9 5.5 -38.5t5.5 -42.5q0 -12 -3.5 -32t-3.5 -23q0 -1 8 -23.5
t8 -46.5zM93 587q0 -25 19 -37v-2q6 0 10.5 -5.5t9.5 -6.5q17 -7 22 -12l2 1q2 -2 5 -4t12 -6q26 -4 37 -15q7 -7 23 -13q5 -1 13 -7q2 -2 16 -7q9 -9 24 -9q11 0 11 15q0 8 -15.5 22.5t-27.5 19.5q-4 2 -8 10t-11 10q-11 2 -11 10q0 5 -20 19q-5 5 -6 8q-18 7 -31 28
q-3 4 -16.5 9t-19.5 5q-38 0 -38 -33z" />
    <glyph glyph-name="ucircumflex" unicode="&#xfb;" horiz-adv-x="464" 
d="M406 50q-12 -13 -39 -22q-33 -11 -56 -55q-2 -3 -12 -3q-18 0 -24 24q-1 6 -16 6q-4 0 -13 -7q-14 -11 -39 -11q-47 0 -82 25q-47 35 -47 105q0 9 1 18t1 10q0 10 -2 32t-2 37q0 3 1.5 9.5t1.5 8.5t-3 13t-3 15q0 3 5 20v31q-6 17 -24 49q-26 30 -26 42q0 5 10 12.5
t28 7.5q4 0 14 -1t15 -1q6 0 16.5 2.5t14.5 2.5q24 0 30.5 -7t6.5 -32h2q0 -5 -2.5 -13t-2.5 -10q0 -11 3.5 -29t3.5 -25q0 -44 -8 -80q0 -1 5 -41q-6 0 -4 -79q5 -3 7 -22q4 -39 51 -39q25 0 49 18.5t24 34.5q0 3 -3.5 10.5t-3.5 10.5q0 4 2 13.5t2 13.5t-2 10q5 0 9 35
q4 31 4 51q0 36 -8 57q5 0 5 21q0 11 -11 33q-40 38 -40 49q0 8 11 14t21 6q6 0 56 -2q3 0 12.5 1t15.5 1q30 0 30 -32q0 -17 -1.5 -36.5t-1.5 -20.5q0 -3 2.5 -13.5t2.5 -12.5q0 -1 -3.5 -21t-3.5 -28q0 -9 5.5 -38.5t5.5 -42.5q0 -12 -3.5 -32t-3.5 -23q0 -1 8 -23.5
t8 -46.5zM358 480q0 -15 -11 -15t-19 10q-11 2 -16 7q-4 2 -11 6q-10 4 -19 15q-12 15 -27 15q-1 2 -3 4h-3q-38 19 -35 19q-16 0 -16 -5t-7 -8q-3 -1 -9 -9q-21 -4 -32 -16q-4 -8 -16 -20q-9 -6 -17.5 -14.5t-25.5 -8.5q-11 0 -11 15q0 8 10.5 25t19 23.5t8.5 10.5t9 7.5
t9 9.5q0 3 6.5 7t10.5 13q9 19 39 46q12 11 22 11q2 0 7 1.5t8 1.5q8 0 17 -24q8 -20 27 -28q0 -2 6 -8q16 -13 16 -19.5t9 -10t9 -7.5t9 -11t22.5 -21t13.5 -22z" />
    <glyph glyph-name="udieresis" unicode="&#xfc;" horiz-adv-x="464" 
d="M406 50q-12 -13 -39 -22q-33 -11 -56 -55q-2 -3 -12 -3q-18 0 -24 24q-1 6 -16 6q-4 0 -13 -7q-14 -11 -39 -11q-47 0 -82 25q-47 35 -47 105q0 9 1 18t1 10q0 10 -2 32t-2 37q0 3 1.5 9.5t1.5 8.5t-3 13t-3 15q0 3 5 20v31q-6 17 -24 49q-26 30 -26 42q0 5 10 12.5
t28 7.5q4 0 14 -1t15 -1q6 0 16.5 2.5t14.5 2.5q24 0 30.5 -7t6.5 -32h2q0 -5 -2.5 -13t-2.5 -10q0 -11 3.5 -29t3.5 -25q0 -44 -8 -80q0 -1 5 -41q-6 0 -4 -79q5 -3 7 -22q4 -39 51 -39q25 0 49 18.5t24 34.5q0 3 -3.5 10.5t-3.5 10.5q0 4 2 13.5t2 13.5t-2 10q5 0 9 35
q4 31 4 51q0 36 -8 57q5 0 5 21q0 11 -11 33q-40 38 -40 49q0 8 11 14t21 6q6 0 56 -2q3 0 12.5 1t15.5 1q30 0 30 -32q0 -17 -1.5 -36.5t-1.5 -20.5q0 -3 2.5 -13.5t2.5 -12.5q0 -1 -3.5 -21t-3.5 -28q0 -9 5.5 -38.5t5.5 -42.5q0 -12 -3.5 -32t-3.5 -23q0 -1 8 -23.5
t8 -46.5zM354 508q0 -7 -5.5 -12t-13.5 -16t-32 -11q-1 0 -4 1.5t-4 1.5h-7q-5 0 -11 3.5t-10 3.5t-13.5 15t-9.5 32t11 31q9 11 14 11q10 0 10 4q6 0 14 1.5t10 1.5q23 0 34 -13q7 -9 15 -36v-9q0 -1 1 -4t1 -5zM199 523q0 -15 -2 -21q-10 -5 -10 -11.5t-12 -12t-23 -5.5
q-2 0 -6 1.5t-5 1.5q5 0 -17 -2q-5 3 -12 5q-18 4 -22 17q1 3 1 12v8q-1 6 -1 10q8 16 8 20q5 8 9 17q10 13 37 13q19 0 35 -7.5t16 -16.5q0 -2 2 -7t2 -22z" />
    <glyph glyph-name="degree" unicode="&#xb0;" horiz-adv-x="627" 
d="M614 391q0 -7 -11 -17.5t-16 -10.5h-25q-10 0 -24.5 -13.5t-14.5 -36.5q0 -17 1 -23q-4 -12 -4 -26q0 -16 2.5 -40.5t2.5 -29.5q0 -7 -3 -22t-3 -23q0 -34 16 -49q5 -4 30 -15q16 -8 16 -22q0 -17 -18 -27q-9 -5 -29 -26q-15 -16 -55 -16q-16 0 -33 18t-17 44q0 3 1 9v10
q0 20 -3 29q2 2 2 8l-3 15l5 3q-5 20 -5 23q0 1 5 16t5 27q0 3 -1.5 19t-1.5 28l4 3l-4 3q7 37 7 69q0 35 -23 35h-10q-7 -1 -10 -1q-37 0 -37 23q0 27 25 27h32q4 0 11.5 7t7.5 11q0 13 7 20q1 7 1 17l4 6q-8 48 -8 63q0 4 1 25t1 36q0 17 -19.5 31t-36.5 14
q-11 0 -17.5 6.5t-33.5 6.5q-30 0 -55 -11q-14 -6 -35 -8q-9 -1 -20 -10.5t-12 -17t-21 -30.5q-15 -17 -15 -58q0 -28 19 -59t33 -31q9 0 20 -8q8 -6 29 -6q18 0 22 -12q6 -16 6 -57q0 -5 1 -12t1 -8q0 -5 -7.5 -13.5t-12.5 -8.5q-21 0 -26.5 27.5t-37.5 52.5q-8 6 -30 6
q-65 0 -65 -41q0 -11 3.5 -12.5t4.5 -5.5q6 -22 12 -30t28 -20q3 -2 55 -24q30 -13 54 -35q8 -7 19 -43.5t11 -51.5q0 -47 -48 -84q-43 -34 -83 -34q-43 0 -62 10q-10 5 -13 5q-2 0 -26 -10.5t-27 -10.5q-20 0 -20 22q0 14 3.5 32t3.5 24t-2 13t-2 9t1.5 6t1.5 5q0 -2 -3 7
q0 22 15 22t53 -62q35 -23 74 -23q21 0 39 11.5t18 27.5q0 2 2 7t2 7q0 15 -2 18q-5 8 -5 11.5t-13 16.5q-19 19 -47 19q-9 9 -28 16q-64 23 -64 48q0 4 -8.5 4t-15.5 9.5t-7 15.5q0 15 -9 17q-2 5 -2 7q5 13 5 40.5t22 47.5q41 37 101 47q-33 22 -33 28.5t-11 14.5
q-20 15 -20 70q0 37 12 54q10 14 17 36q10 31 46 41q21 6 35 24l10 -3q21 17 87 17q18 0 47.5 -13t33.5 -13t14 -7.5t28 -7.5q7 0 21.5 -1.5t17.5 -1.5l13 2.5t24 2.5q12 0 16 -32q3 -24 3 -92q0 -14 1 -31t1 -24q1 -3 1 -9q0 -4 -2.5 -13.5t-2.5 -14.5q0 -33 37 -33
q2 0 9 1t10 1q8 0 18.5 -6.5t10.5 -17.5z" />
    <glyph glyph-name="registered" unicode="&#xae;" horiz-adv-x="850" 
d="M782 410q0 -13 -7 -23q0 -11 1 -38t1 -39q0 -31 -3 -39q-11 -30 -13 -38q-33 -116 -156 -200q-45 -31 -87 -31q-24 0 -82 5t-82.5 5t-68.5 10.5t-52 19.5q-22 22 -49 41q-1 1 -7 14q-8 18 -33 43q-16 16 -28.5 40t-33.5 48q-16 18 -16 52q0 9 1.5 19.5t1.5 12t5 11.5
t5 12q0 9 -5 38t-5 37q0 30 16 90q3 10 17.5 27.5t17.5 23.5q25 54 62 81q8 6 23 21q11 11 15 11q15 0 35 20q7 7 33 7q3 0 20.5 9.5t22.5 9.5q52 0 64.5 5t33.5 5q70 0 137 -26q81 -32 108 -85q19 -37 60 -71q15 -12 19 -31t12 -36q17 -35 17 -61zM721 450q0 18 -34 71
t-54 59q-16 5 -16 30q-66 14 -95 52q-12 16 -84 16q-73 0 -127 -24q-46 -20 -108 -72q-6 -5 -14.5 -27t-9.5 -32q-2 -27 -26 -48q-34 -30 -34 -67q0 -4 7.5 -12.5t7.5 -14t5 -21t5 -18.5q0 -11 -2.5 -34t-2.5 -30q0 -5 10 -34t10 -30l10 -2q23 -55 42 -89q15 -27 38 -27
q27 0 45 -11q35 -21 99 -21q10 0 28 -10.5t25 -10.5q23 0 43 9q12 6 50 14q32 6 40 14q24 24 47 35q40 19 42 31q1 7 9.5 25t8.5 20t-1.5 7.5t-1.5 6.5q0 11 11 41.5t21 43.5q2 3 2 15q0 -3 -2.5 32.5t-2.5 84.5q0 5 4.5 14.5t4.5 13.5zM615 189q0 -14 -23 -25t-42 -11
q-28 0 -37 25h-5q-6 13 -17 33q-2 4 -2 12q-7 0 -13 35q0 32 -6 44.5t-35 38.5q-15 4 -28 4q-35 0 -35 -17l5.5 -10.5t5.5 -21.5t-5.5 -22t-5.5 -16q14 -8 15 -26l1 -31q0 -11 37 -23q9 -3 9 -17q0 -11 -21 -11q-8 0 -30.5 2.5t-34.5 2.5q-14 0 -40.5 -3.5t-32.5 -3.5
q-18 0 -22 6v16q39 16 39 46q0 5 -2 13q3 15 3 28q0 43 5 50q-2 10 -2 14q0 1 1.5 5.5t1.5 6.5t-3 9.5t-3 13.5q0 4 2.5 12t2.5 10q0 4 -2 14t-2 16q0 3 1.5 15t1.5 13q0 13 -3.5 37t-3.5 36q0 31 -13 35q-25 9 -25 33q6 9 31 9q3 0 17.5 -2.5t22.5 -2.5q-1 0 24.5 1t38.5 1
q31 0 66.5 -2.5t32.5 -2.5q10 0 32 -9t34 -18q47 -37 47 -88v-12q0 -19 -8 -28q-4 -4 -28 -36q-12 -16 -35 -16q-19 0 -19 -7q0 -5 22 -14q10 -4 18.5 -20t8.5 -29q0 -44 14 -83q15 -19 29.5 -19t14.5 -10zM514 451q0 12 -4.5 15.5t-4.5 13.5q0 2 1 5v5q0 4 -8 9t-8 13
q-13 9 -18 17q-10 14 -67 13q-5 0 -12 -6t-7 -14q0 -28 -16 -46q16 -16 16 -23q0 -3 -1.5 -8.5t-1.5 -8.5q0 -35 20 -43q9 -4 52 -4q15 0 37 17q4 8 13 21t9 24z" />
    <glyph glyph-name="copyright" unicode="&#xa9;" horiz-adv-x="850" 
d="M782 410q0 -13 -7 -23q0 -11 1 -38t1 -39q0 -31 -3 -39q-11 -30 -13 -38q-33 -116 -156 -200q-45 -31 -87 -31q-24 0 -82 5t-82.5 5t-68.5 10.5t-52 19.5q-22 22 -49 41q-1 1 -7 14q-8 18 -33 43q-16 16 -28.5 40t-33.5 48q-16 18 -16 52q0 9 1.5 19.5t1.5 12t5 11.5
t5 12q0 9 -5 38t-5 37q0 30 16 90q3 10 17.5 27.5t17.5 23.5q25 54 62 81q8 6 23 21q11 11 15 11q15 0 35 20q7 7 33 7q3 0 20.5 9.5t22.5 9.5q52 0 64.5 5t33.5 5q70 0 137 -26q81 -32 108 -85q19 -37 60 -71q15 -12 19 -31t12 -36q17 -35 17 -61zM721 450q0 18 -34 71
t-54 59q-16 5 -16 30q-66 14 -95 52q-12 16 -84 16q-73 0 -127 -24q-46 -20 -108 -72q-6 -5 -14.5 -27t-9.5 -32q-2 -27 -26 -48q-34 -30 -34 -67q0 -4 7.5 -12.5t7.5 -14t5 -21t5 -18.5q0 -11 -2.5 -34t-2.5 -30q0 -5 10 -34t10 -30l10 -2q23 -55 42 -89q15 -27 38 -27
q27 0 45 -11q35 -21 99 -21q10 0 28 -10.5t25 -10.5q23 0 43 9q12 6 50 14q32 6 40 14q24 24 47 35q40 19 42 31q1 7 9.5 25t8.5 20t-1.5 7.5t-1.5 6.5q0 11 11 41.5t21 43.5q2 3 2 15q0 -3 -2.5 32.5t-2.5 84.5q0 5 4.5 14.5t4.5 13.5zM606 212q0 -40 -30 -48
q-21 -7 -65 -19q-23 -6 -36 -6q-6 0 -21.5 1t-20.5 1q-6 0 -16 -2t-14 -2q-18 0 -40.5 15.5t-43.5 21.5q-12 4 -18.5 12t-21.5 20q-64 51 -64 114q0 4 1 17v17v24q-1 16 -1 24q0 26 13 49l26 47q17 31 35 31q10 0 16 8.5t18 23.5q28 23 65 23h65q6 0 15.5 2t11.5 2
q15 -6 50 -6q8 0 17 -5q6 -3 18 -5t24 -12t12 -17v-45q0 -4 1 -14.5t1 -15.5q0 -22 -13 -22q-8 0 -17.5 11t-9.5 16q0 9 -11 14q-28 14 -36 23q-15 17 -31 21q-12 3 -27 10q-9 4 -24 4q-18 0 -24 -6q-10 -7 -19 -7t-25 -12q-40 -29 -40 -47q0 -8 -13 -47q-7 -21 -7 -53
q0 -18 2 -22q5 -10 5 -17q0 -2 -1.5 -19.5t-1.5 -23.5q0 -38 39 -66q47 -34 76 -34q19 0 25 4q17 -3 30 -3q42 0 59 23q12 15 27 42q6 19 22 19q18 0 18 -13q0 -1 -1.5 -10t-1.5 -11t1.5 -14t1.5 -16z" />
    <glyph glyph-name="trademark" unicode="&#x2122;" horiz-adv-x="1000" 
d="M958 709q0 -12 -10 -16q-25 -10 -25 -38q0 -5 3.5 -17t3.5 -18t-3 -9q-8 -10 -8 -22v-24q0 -14 -4 -36t-4 -34q5 -7 5 -66q0 -3 -3 -17t-3 -19q0 -1 1 -5v-6q0 -1 2 -3.5t2 -3.5t-1 -6.5t-1 -7.5t1.5 -6t1.5 -5q0 -2 -1 -8.5t-1 -9.5q0 -7 16 -17q9 -6 9 -12
q0 -17 -20 -17q-12 1 -16 1q-35 0 -63 -2t-27 -2q-21 0 -21 12t6 15q32 15 32 38q0 2 -3 16.5t-3 15.5q0 18 1 22q4 11 4 23v51q0 1 1 5.5t1 6.5q0 6 -1.5 8t-1.5 4q0 17 4.5 51.5t4.5 32.5q0 25 -11 25q-6 0 -12 -9t-6 -14q0 -17 -11 -34q-16 -25 -16 -40q0 -2 -5 -11.5
t-6 -13.5q-2 -10 -10 -20q-6 -16 -22 -40q-14 -12 -31 -72q-1 -4 -9 -12q-12 -14 -12 -23q0 -21 -15 -21q-10 0 -10 6q-2 11 -8 20t-8 31q-1 13 -7 25q-17 36 -34 55t-20 39q-5 33 -14 39q-14 10 -20 28q-4 12 -12 18q2 4 2 6q-18 14 -20 27q-2 17 -15 17q-10 0 -10 -16
q0 -1 3 -7q0 -18 1 -20l3 -12q0 -1 -2.5 -6.5t-2.5 -7.5v-24q0 -2 1.5 -12t1.5 -14q0 -42 5 -72q3 -18 3 -38q0 -7 -2 -13.5t-2 -8.5q0 -16 11 -27q26 -27 26 -36q0 -12 -24 -12q-1 0 -16 1.5t-21 1.5t-21 -1t-16 -1q-16 0 -16 10q0 7 8 14q21 17 21 31q0 3 2 12t2 13
q0 58 6 75q1 2 1 7t-1 11q-5 30 -5 44q0 2 1 6.5t1 7.5v12q-1 7 -1 9t1 7.5t1 7.5q0 8 -3 16t-3 9q0 9 5.5 22t5.5 17t-6 13l4 7q-3 0 -10.5 14t-7.5 18q0 26 -16 26q-3 0 -9 5t-7 6q-2 6 -2 11q0 20 17 20q2 0 11 -2t10 -2q2 0 7.5 1t6.5 1q3 0 9.5 -2.5t9.5 -2.5h41
q10 0 21 2l11 2q15 0 15 -14q0 -2 -2 -7.5t-2 -8.5q0 -17 9 -36q1 -7 4 -18l13 -20q6 -9 22 -43q5 -10 18.5 -29.5t28.5 -81.5q8 -35 33 -35q16 0 25 29q2 6 18 27q0 26 5 35q1 11 9 32q5 9 9 24q0 2 5.5 6t5.5 6q0 10 4 16q28 42 32 67q7 44 30 44q4 0 20 1h19t18.5 -3
t21.5 -3q1 0 7 1t8 1q23 0 23 -14zM391 720q0 -9 -2 -14l-2 -5q0 -10 -5 -15q-9 -7 -9 -22q0 -2 1.5 -8.5t1.5 -10.5q0 -20 -15 -20q-28 0 -31 20q-7 44 -26 43l-29 -1q-3 0 -8 -1h-6q-13 0 -13 -37q0 -36 1 -77t1 -40q0 -12 -3 -28.5t-3 -20.5q0 -8 4.5 -22t4.5 -17
q0 -1 -1 -5.5t-1 -7.5q0 -2 1 -7t1 -8q0 -2 -2 -8.5t-2 -9.5q0 -7 4 -23q-6 -8 -6 -18q0 -22 54 -47q17 -8 17 -21q0 -11 -15 -11q-7 0 -20 3q-23 5 -120 5q-16 0 -25 -3.5t-10 -3.5q-12 0 -19 7q0 18 33 36q15 8 15 26q0 2 -1 12.5t-1 20.5q0 5 1 26t1 38q-4 28 -4 42
q0 -1 1.5 22.5t1.5 35.5q0 4 1.5 11t1.5 9q0 1 -3 10.5t-3 17.5q0 20 4 27q-3 15 -3 27q0 18 -4 24t-16 6q-21 0 -56 -6q-6 -1 -23.5 -23t-21.5 -22q-19 0 -19 19q0 3 6 16t6 18q0 11 -4 27q-4 3 -6 6q-2 8 -2 16q0 13 19 13q5 0 26.5 -7t40.5 -7q2 0 13.5 1t12.5 1
q10 0 29.5 -3t28.5 -3q15 0 44.5 3.5t43.5 3.5q24 0 30 -6q9 0 47 13q15 5 21 5q21 0 21 -22z" />
    <glyph glyph-name="notequal" unicode="&#x2260;" horiz-adv-x="600" 
d="M543 298q0 -8 -4.5 -21.5t-8.5 -13.5q-2 0 -13.5 1.5t-14.5 1.5q-13 0 -34 -2l-21 -2q-6 0 -29.5 4t-36.5 4q-41 -12 -70 -2q-31 0 -34 -11.5t-8 -16.5q-19 -19 -23 -32q-5 -16 -30 -63q2 -12 -13 -27t-16 -23t-40 -8q-4 0 -12.5 5.5t-8.5 9.5q0 20 12 42q19 22 54 85
q-1 6 16 40q-5 0 -16 -1.5t-17 -1.5q-7 0 -19 1t-17 1q-7 0 -17 -2t-13 -2t-7 2t-5 2q-2 0 -8 -2t-9 -2q-5 0 -18 10q-5 4 -5 36q0 16 10 19.5t42 3.5q18 0 26 3q13 0 73 -4q0 4 12.5 4t30.5 3q4 25 20 38t16 32l3 7q-13 5 -17 5q-63 0 -103 -6l-6 6l-20.5 -4t-34.5 -4
q-26 0 -37 5q-15 7 -15 29q0 9 4.5 22t8.5 13q3 0 14.5 -1.5t13.5 -1.5q13 0 34 2l21 2q6 0 29.5 -4t36.5 -4q18 5 41 5q20 0 29 -3q-4 0 32 3q7 14 12 20q36 43 36 67q0 17 34 60q10 13 27 13q3 3 31 3q8 0 10 -15q2 -16 -4 -21q-14 -11 -15 -26t-13 -28q-21 -23 -26 -55
q-6 -3 -17 -19h29q8 0 20 -1t16 -1q7 0 17 2t13 2q4 0 8 -2l4 -2q3 0 9 2t8 2q5 0 18 -10q5 -4 5 -36q0 -16 -10 -19.5t-42 -3.5q-18 0 -26 -3q-13 0 -73 4q0 -5 -32 -5q-7 0 -11 -11q-7 -19 -25 -43q-9 -12 -9 -20q0 -10 12 -10q97 0 103 6l6 -6l20.5 4t34.5 4q26 0 37 -5
q15 -7 15 -29z" />
    <glyph glyph-name="plusminus" unicode="&#xb1;" horiz-adv-x="600" 
d="M543 444q0 -8 -4.5 -21.5t-8.5 -13.5q-2 0 -13.5 1.5t-14.5 1.5q-13 0 -34 -2l-21 -2q-6 0 -29.5 4t-36.5 4q-20 -5 -48 -5q-6 -15 -6 -66q0 -6 1.5 -19t1.5 -14q0 -7 -1 -19t-1 -17q0 -7 2 -17t2 -13t-2 -7t-2 -5q0 -2 2 -8t2 -9t-10 -18q-3 -5 -36 -5q-16 0 -19.5 10
t-3.5 42q0 18 -3 26q0 18 4 78q-4 0 -4 11q0 57 -9 57q-3 0 -23 -1.5t-25.5 -1.5t-16 -1.5t-11.5 -1.5q-7 0 -19 1t-17 1q-7 0 -17 -2t-13 -2t-7 2t-5 2q-2 0 -8 -2t-9 -2q-5 0 -18 10q-5 4 -5 36q0 16 10 19.5t42 3.5q18 0 26 3q13 0 73 -4q0 4 11 4q3 0 22 -1t26 -1
q0 7 -2 23t-2 31l4 16l-1.5 40.5t-1.5 54.5q0 26 5 37q7 15 29 15q21 0 26.5 -9.5t5.5 -31.5q0 -13 2 -34l2 -21q0 -6 -4 -27.5t-4 -34.5q0 -52 15 -67q43 1 89 4l6 -6l20.5 4t34.5 4q26 0 37 -5q15 -7 15 -29zM543 102q0 -8 -4.5 -21.5t-8.5 -13.5q-2 0 -13.5 1.5
t-14.5 1.5q-13 0 -34 -2l-21 -2q-6 0 -29.5 4t-36.5 4q-41 -12 -70 -2q-10 0 -34 -3t-26 -3q-3 0 -23 3.5t-25 3.5q-6 0 -16.5 -1.5t-11.5 -1.5q-7 0 -19 1t-17 1q-7 0 -17 -2t-13 -2t-7 2t-5 2q-2 0 -8 -2t-9 -2q-1 0 -18 10q-5 3 -5 36q0 16 10 19.5t42 3.5q18 0 26 3
q13 0 73 -4q0 4 11 4q3 0 18.5 2t22.5 2q17 0 40.5 -8t26.5 -8q97 0 103 6l6 -6l20.5 4t34.5 4q26 0 37 -5q15 -7 15 -29z" />
    <glyph glyph-name="lessequal" unicode="&#x2264;" horiz-adv-x="600" 
d="M508 654q0 -10 -16 -24t-39 -19q-63 -13 -81 -39q-12 -18 -35 -27q-23 -15 -79 -40q-25 -8 -57 -26q-35 -20 -35 -30q0 -9 27 -24q44 -24 45 -25q15 -9 37 -26q39 -42 76 -48l1 -12q17 -13 58 -30q49 -20 63 -28q27 -15 27 -32q0 -10 -20 -24t-28 -14q-11 0 -45 28
q-17 14 -87 52l-47 22q-34 17 -44 32q-2 1 -29 22q-20 15 -33 15q-10 13 -33 31.5t-37 23.5q-23 8 -23 39q0 32 50 48q69 22 113 57q27 22 73 55q7 4 49 21q38 16 53 35q27 34 43 34q36 0 53 -47zM543 102q0 -8 -4.5 -21.5t-8.5 -13.5q-2 0 -13.5 1.5t-14.5 1.5
q-13 0 -34 -2l-21 -2q-6 0 -29.5 4t-36.5 4q-41 -12 -70 -2q-10 0 -34 -3t-26 -3q-3 0 -23 3.5t-25 3.5q-6 0 -16.5 -1.5t-11.5 -1.5q-7 0 -19 1t-17 1q-7 0 -17 -2t-13 -2t-7 2t-5 2q-2 0 -8 -2t-9 -2q-1 0 -18 10q-5 3 -5 36q0 16 10 19.5t42 3.5q18 0 26 3q13 0 73 -4
q0 4 11 4q3 0 18.5 2t22.5 2q17 0 40.5 -8t26.5 -8q97 0 103 6l6 -6l20.5 4t34.5 4q26 0 37 -5q15 -7 15 -29z" />
    <glyph glyph-name="greaterequal" unicode="&#x2265;" horiz-adv-x="600" 
d="M525 436q0 -32 -50 -48q-70 -23 -113 -57q-28 -20 -73 -55l-45 -20q-44 -20 -57 -36q-27 -34 -43 -34q-36 0 -53 47q0 10 16 23t39 20q69 21 81 39t35 27q22 13 79 40q92 35 92 56q0 8 -27 23q-44 25 -45 26q-15 9 -37 26q-39 42 -76 48l-1 12q-14 12 -50 26
q-45 18 -54 23q-27 15 -33 19q-11 9 -11 22q0 10 20 24t28 14q11 0 45 -28q17 -14 87 -52l47 -22q34 -17 44 -32q2 -1 29 -21q20 -16 33 -16q10 -13 33 -31.5t37 -23.5q23 -8 23 -39zM543 96q0 -16 -10 -19.5t-42 -3.5q-18 0 -26 -3q-13 0 -73 4q0 -4 -11 -4q-3 0 -18.5 -2
t-22.5 -2q-17 0 -40.5 8t-26.5 8q-97 0 -103 -6l-6 6l-20.5 -4t-34.5 -4q-26 0 -37 5q-15 7 -15 29q0 9 4.5 22t8.5 13q3 0 14.5 -1.5t13.5 -1.5q13 0 34 2l21 2q6 0 29.5 -4t36.5 -4q41 12 70 2q10 0 34 3t26 3q3 0 23 -3.5t25 -3.5q6 0 16.5 1.5t11.5 1.5q8 0 20 -1t16 -1
q7 0 17 2t13 2q4 0 8 -2l4 -2q3 0 9 2t8 2q-4 0 13 -7q10 -4 10 -39z" />
    <glyph glyph-name="mu" unicode="&#xb5;" horiz-adv-x="314" 
d="M242 20q0 -17 -30 -17q-1 0 -7 -1t-14 -1q-2 0 -9.5 1t-13.5 1q-10 0 -30 -3.5l-20 -3.5q-10 0 -19 7.5t-9 13.5q0 14 7.5 33t7.5 26q0 2 -1 5t-1 4q0 2 1.5 5t1.5 4t-1.5 4.5t-1.5 4.5q0 2 4 16.5t4 24.5q0 1 -1.5 14t-1.5 19q0 4 1 12t1 12q0 5 -1.5 16.5t-1.5 16.5
q0 4 1 14.5t1 14.5q-4 0 -4 20q0 7 3 10q-7 5 -7 47q-28 21 -28 33q0 14 4 29q18 15 34 15q18 0 54 -4t55.5 -4t19.5 -23q0 -11 -17 -27q-12 -11 -12 -31q0 -14 -2.5 -31.5t-2.5 -21.5q6 -21 6 -53q0 -33 -1 -37q1 -5 1 -65h3q-2 -6 -2 -17q0 -39 17 -45q4 -9 7 -17
q5 -13 5 -21z" />
    <glyph glyph-name="mu" unicode="&#x3bc;" horiz-adv-x="314" 
d="M242 20q0 -17 -30 -17q-1 0 -7 -1t-14 -1q-2 0 -9.5 1t-13.5 1q-10 0 -30 -3.5l-20 -3.5q-10 0 -19 7.5t-9 13.5q0 14 7.5 33t7.5 26q0 2 -1 5t-1 4q0 2 1.5 5t1.5 4t-1.5 4.5t-1.5 4.5q0 2 4 16.5t4 24.5q0 1 -1.5 14t-1.5 19q0 4 1 12t1 12q0 5 -1.5 16.5t-1.5 16.5
q0 4 1 14.5t1 14.5q-4 0 -4 20q0 7 3 10q-7 5 -7 47q-28 21 -28 33q0 14 4 29q18 15 34 15q18 0 54 -4t55.5 -4t19.5 -23q0 -11 -17 -27q-12 -11 -12 -31q0 -14 -2.5 -31.5t-2.5 -21.5q6 -21 6 -53q0 -33 -1 -37q1 -5 1 -65h3q-2 -6 -2 -17q0 -39 17 -45q4 -9 7 -17
q5 -13 5 -21z" />
    <glyph glyph-name="partialdiff" unicode="&#x2202;" horiz-adv-x="348" 
d="M301 264q0 -59 -34.5 -83t-56.5 -64q-1 -1 -12 -11t-11 -16q6 -6 24 -6q2 0 15 1.5t15 1.5q8 0 26.5 -16t18.5 -24q0 -47 -39 -48l-68 -2q-2 0 -24 2t-24 2t-5.5 -1.5t-5.5 -1.5q-20 -1 -61 -3.5l-41 -2.5q-25 0 -25 13q0 11 36 28q48 23 135 110q26 26 32 38t6 39
q0 58 -32 94.5t-88 36.5q-2 0 -8 -1t-9 -1q-26 0 -26 19q0 2 4 6.5t4 6.5q3 13 31 22q23 7 42 7q21 0 49 -9t40 -21q8 -8 34 -16q39 -12 47 -32q10 -23 10 -52q0 -5 -2 -13q3 1 3 -3z" />
    <glyph glyph-name="summation" unicode="&#x2211;" horiz-adv-x="396" 
d="M360 -99q0 -44 -7 -97q-2 -10 -18 -24v-14q-59 -82 -121 -82l-13.5 2t-21.5 2q-3 0 -13.5 -1.5t-17.5 -1.5q2 0 -10 4q-4 -2 -7 -2q-58 0 -106 38q-9 7 -21 12q-15 6 -28 35q-12 25 -12 39q0 35 33 63q8 7 27 7q24 0 40 -14q12 -10 12 -20q0 -2 -4.5 -20t-4.5 -20t2 -5
t2 -5q0 -32 40 -51q31 -15 64 -15q31 0 54 9q20 9 20 19q29 15 29 85q0 2 -6.5 21.5t-6.5 32.5q0 1 -3.5 13t-3.5 21q0 29 -24.5 55.5t-39.5 47.5q-10 14 -33 23q-31 13 -37 17l-4 20q24 4 50 17q31 15 38.5 29.5t24.5 40.5q15 20 15 61q0 9 -12 37.5t-20 28.5q0 7 -10 17
q-20 19 -41 37q-38 0 -52 8q-7 0 -45.5 -11t-40.5 -11q-25 0 -25 15q0 16 19 24q10 9 38 23q90 9 83 9q8 -6 98 -24q13 -11 31 -17q22 -8 34 -32.5t23 -33.5q17 -15 17 -46q0 -89 -25 -107q-47 -34 -47 -59q0 -11 27 -32q60 -46 60 -168z" />
    <glyph glyph-name="product" unicode="&#x220f;" horiz-adv-x="436" 
d="M389 23q0 -18 -27 -41q-9 -18 -9 -90q0 -18 3 -38t3 -24q0 -9 -1.5 -29.5t-1.5 -21.5q0 -2 3.5 -27t3.5 -30q0 -24 -19 -24q-3 0 -25.5 -5.5t-30.5 -5.5q-30 0 -30 36v43q-1 35 -1 43q0 5 -4 29.5t-4 45.5q0 7 1 23v23q0 57 -56 57q-7 0 -22 -3t-17 -3q-1 0 -17 2t-25 2
q2 0 -39.5 -2t-62.5 -2q-5 3 -19 3q-2 0 -6.5 7t-4.5 10q10 25 25 39q19 19 19 28q0 16 22 38q16 16 29 41q20 38 54.5 66t49 54t60.5 72q14 14 14 21q0 26 14 37.5t19 30.5q3 11 19.5 22.5t27.5 11.5q12 0 20 -10.5t8 -20.5q0 -2 -6 -22.5t-6 -38.5q0 -6 2 -44.5t2 -67.5
q0 -26 -1.5 -78t-1.5 -64q0 -3 3 -21.5t3 -32.5q1 -3 18 -13q14 -9 14 -26zM255 155q-3 13 -3 44q0 13 3 55q-9 9 -13 9q-11 0 -33 -33q-18 -27 -37 -41q-39 -28 -67 -75q-9 -12 -17.5 -24.5t-8.5 -28.5q0 -8 25 -13q20 -5 34 -5q4 0 8 2q3 0 27 -4.5t26 -4.5q54 0 54 56
q0 6 -3 33l3 6q-3 5 -3 13q0 4 5 11z" />
    <glyph glyph-name="pi" unicode="&#x3c0;" horiz-adv-x="373" 
d="M370 -144q0 -26 -16 -50q0 -1 -6.5 -10.5t-10.5 -17.5q-23 -46 -62 -75.5t-74 -29.5h-12q-10 1 -13 1q-13 0 -17 -6q-18 0 -37 -1.5t-18 -1.5q-29 0 -40.5 8t-39.5 22q-14 6 -24 24q-8 15 -8 26q0 64 47 64q22 0 30 -17q14 -28 38 -48q28 -21 57 -21q47 0 69 19
q41 35 51.5 48.5t19.5 44.5q2 4 4 17q0 10 -3 28t-3 21q0 39 -1 46q-3 25 -18 39l-54 51q-16 18 -35 18q-12 0 -37 22q-11 10 -36 10h-36q-15 0 -26 18q7 18 7 44q0 10 -3.5 43.5t-3.5 54.5q0 7 2.5 37.5t2.5 45.5q0 4 -1.5 15t-1.5 17q0 18 28 31q22 10 40 10h29
q19 -1 20 -1l8 4q29 0 85 8q18 5 22 5q33 0 33 -23q0 -25 -29 -35q-7 -3 -28.5 -17.5t-32.5 -14.5q-4 0 -17 -3.5t-18 -3.5t-13.5 -6t-19.5 -6h-31q-35 0 -35 -27q0 -1 1 -22t1 -29q0 -19 54 -29q27 -5 53 -16q0 3 6 3q3 0 13 -7t14 -13q21 -29 40 -34q16 -4 24 -24
q3 -4 8.5 -12t5.5 -16t20 -25q0 -5 7.5 -24t7.5 -28q0 -4 6 -23t6 -33v-21q-1 -11 -1 -14q0 -6 1 -32.5t1 -27.5z" />
    <glyph glyph-name="integral" unicode="&#x222b;" horiz-adv-x="477" 
d="M443 156q0 -53 -113 -140q-6 -4 -27 -10t-30 -6h-54q-1 0 -4 -1.5t-5 -1.5q-21 0 -56 27q-6 6 -26 17q-8 3 -22 10q-5 3 -13 19q-4 7 -18 17q-33 22 -33 65v96q0 4 -1 14t-1 12q0 7 6 42q8 42 17 64q4 11 10 40q3 15 8 25l45 87q6 13 34 39t28 36q8 14 64 51.5t76 37.5
q27 0 27 -19q0 -8 -15.5 -21.5t-29.5 -19.5q-31 -12 -46 -31q-18 -22 -53 -56q-10 -9 -20.5 -30.5t-33.5 -60.5q-4 -7 -4 -17q0 -3 -6.5 -20.5t-6.5 -21.5q0 -6 8.5 -11t12.5 -5q17 0 49.5 8.5t50.5 8.5q10 0 22 -2.5t13 -2.5q7 0 15 2t10 2q10 0 44 -20t34 -31t16.5 -35.5
t16.5 -40.5q0 -3 4 -12.5t4 -13.5q0 -27 1.5 -59.5t1.5 -30.5zM366 144q0 4 -4 19t-4 18q0 81 -48 125q-45 41 -82 41q-95 0 -95 -57q0 -30 7 -44q-2 -22 -2 -28q0 -23 13 -40l-1 -10q6 -7 10 -22t7 -22t15 -25q5 -5 7 -13t12.5 -11.5t27.5 -12.5q2 0 44 3h33l5 6
q28 5 43 30q12 20 12 43z" />
    <glyph glyph-name="Omega" unicode="&#x3a9;" horiz-adv-x="484" 
d="M457 180q0 -6 -1.5 -23t-1.5 -24l-5 -5q-1 -6 1 -25q1 -22 1 -29q0 -10 -6 -30q-9 -30 -9 -31q-5 -21 -5 -50q0 3 -13 -32q-15 -42 -23 -59q-16 -33 -34 -53q-35 -38 -51 -69q-8 -2 -14 -8q-37 -38 -81 -53q-29 -10 -46 -24q-40 -6 -63 -6q-24 0 -24 11q0 14 14 24t29 10
q21 0 69 33q53 37 69 73q9 20 22 42q0 14 38 73q5 10 5 16q0 3 -1.5 9.5t-1.5 9.5q0 10 5 20q-7 9 -24 9q-12 0 -17 -8q-15 0 -46 -2t-47 -2q-31 0 -45.5 10t-21.5 11q-10 2 -25.5 12.5t-20.5 20.5q-9 18 -19 26q-17 13 -17 37q0 8 -3 21t-3 39q0 7 -1.5 24.5t-1.5 23.5
t3 35t3 45q28 47 76 89q37 32 64 32q12 0 35 2.5t24 2.5q12 0 26 -2.5t17 -2.5q12 0 46 -12.5t42 -21.5q31 -37 56 -56q2 -9 8 -23q15 -22 15 -68q0 -6 2 -20.5t2 -21.5zM360 143q0 50 -12 61q5 6 5 17q0 13 -10 31.5t-10 23.5q0 13 -25 41q-28 31 -51 31q-42 0 -57 -3
q-33 -7 -43.5 -31t-20.5 -24q1 -6 1 -22q0 -4 -5 -21t-5 -22q0 -4 3.5 -22t3.5 -29q0 -37 22 -65q6 -8 21 -35q8 -15 42 -26q30 -10 58 -10q25 0 48 12q12 6 15 18q2 9 11 18t9 57z" />
    <glyph glyph-name="Omega" unicode="&#x2126;" horiz-adv-x="484" 
d="M457 180q0 -6 -1.5 -23t-1.5 -24l-5 -5q-1 -6 1 -25q1 -22 1 -29q0 -10 -6 -30q-9 -30 -9 -31q-5 -21 -5 -50q0 3 -13 -32q-15 -42 -23 -59q-16 -33 -34 -53q-35 -38 -51 -69q-8 -2 -14 -8q-37 -38 -81 -53q-29 -10 -46 -24q-40 -6 -63 -6q-24 0 -24 11q0 14 14 24t29 10
q21 0 69 33q53 37 69 73q9 20 22 42q0 14 38 73q5 10 5 16q0 3 -1.5 9.5t-1.5 9.5q0 10 5 20q-7 9 -24 9q-12 0 -17 -8q-15 0 -46 -2t-47 -2q-31 0 -45.5 10t-21.5 11q-10 2 -25.5 12.5t-20.5 20.5q-9 18 -19 26q-17 13 -17 37q0 8 -3 21t-3 39q0 7 -1.5 24.5t-1.5 23.5
t3 35t3 45q28 47 76 89q37 32 64 32q12 0 35 2.5t24 2.5q12 0 26 -2.5t17 -2.5q12 0 46 -12.5t42 -21.5q31 -37 56 -56q2 -9 8 -23q15 -22 15 -68q0 -6 2 -20.5t2 -21.5zM360 143q0 50 -12 61q5 6 5 17q0 13 -10 31.5t-10 23.5q0 13 -25 41q-28 31 -51 31q-42 0 -57 -3
q-33 -7 -43.5 -31t-20.5 -24q1 -6 1 -22q0 -4 -5 -21t-5 -22q0 -4 3.5 -22t3.5 -29q0 -37 22 -65q6 -8 21 -35q8 -15 42 -26q30 -10 58 -10q25 0 48 12q12 6 15 18q2 9 11 18t9 57z" />
    <glyph glyph-name="logicalnot" unicode="&#xac;" horiz-adv-x="447" 
d="M413 165q-12 -16 -12 -45q-12 -32 -35 -48q-12 -8 -49 -45q-8 -8 -38 -19t-44 -11q-15 0 -33 4t-23 4q-42 0 -61 19q-29 29 -42 29q0 6 -9 25t-14 26q0 8 -12 41q-7 17 -7 31q0 2 2 7t2 8q0 8 -4 22q2 6 2 8v15q-1 10 -1 16q0 38 12 50q8 10 8 14q0 13 25 42.5t39 29.5
q2 0 4 4t6 4t28.5 8t45.5 8q2 0 9.5 1.5t14.5 1.5q-1 0 20 -3q38 0 74 -22q33 -20 33 -24t20 -21q39 -33 39 -103l-3 -1q3 -45 3 -76zM310 190q0 5 -4 28t-4 33q0 3 1 12.5t1 14.5q0 6 -7.5 18t-10.5 22q-15 47 -79 47q-1 0 -6.5 -1t-8.5 -1q-6 0 -14.5 -6.5t-12.5 -6.5
q-7 0 -20 -19l-16 -26q-1 -9 -10 -27q2 -4 -8 -23q-6 -8 -6 -59q0 -40 15 -62q11 -16 11 -30q0 -9 15.5 -21t18.5 -22q2 0 29 -9q9 -3 21 -3q21 0 42 13t27 29q17 49 17 68q0 3 6 18q3 8 3 13z" />
    </font>
</defs>
</svg>
